STARTFONT 2.1
FONT -addy-tiramisu-Medium-R-Normal--12-120-75-75-M-50-ISO10646-1
SIZE 12 75 75
FONTBOUNDINGBOX 10 13 -2 -3
COMMENT "(c) 2018 Addy"
COMMENT "Based on Lemon"
STARTPROPERTIES 31
FOUNDRY "addy"
FAMILY_NAME "tiramisu"
WEIGHT_NAME "Medium"
SLANT "R"
SETWIDTH_NAME "Normal"
ADD_STYLE_NAME ""
PIXEL_SIZE 12
POINT_SIZE 120
RESOLUTION_X 75
RESOLUTION_Y 75
SPACING "M"
AVERAGE_WIDTH 50
CHARSET_REGISTRY "ISO10646"
CHARSET_ENCODING "1"
FONTNAME_REGISTRY ""
CHARSET_COLLECTIONS "ISO8859-5 ISO8859-7 ISO10646-1"
FONT_NAME "tiramisumedium"
FACE_NAME "tiramisu medium"
COPYRIGHT "(c) 2018 Addy"
FONT_VERSION "001.000"
FONT_ASCENT 10
FONT_DESCENT 2
UNDERLINE_POSITION 0
UNDERLINE_THICKNESS 1
X_HEIGHT 4
CAP_HEIGHT 7
RAW_ASCENT 1000
RAW_DESCENT 200
FIGURE_WIDTH 5
AVG_LOWERCASE_WIDTH 50
AVG_UPPERCASE_WIDTH 50
ENDPROPERTIES
CHARS 1070
STARTCHAR exclam
ENCODING 33
SWIDTH 416 0
DWIDTH 5 0
BBX 1 7 2 0
BITMAP
80
80
80
80
80
00
80
ENDCHAR
STARTCHAR uni0022
ENCODING 34
SWIDTH 230 0
DWIDTH 5 0
BBX 3 2 1 5
BITMAP
A0
A0
ENDCHAR
STARTCHAR uni0023
ENCODING 35
SWIDTH 230 0
DWIDTH 5 0
BBX 4 5 1 1
BITMAP
50
F0
50
F0
50
ENDCHAR
STARTCHAR uni0024
ENCODING 36
SWIDTH 230 0
DWIDTH 5 0
BBX 4 7 1 0
BITMAP
40
70
80
60
10
E0
40
ENDCHAR
STARTCHAR uni0025
ENCODING 37
SWIDTH 230 0
DWIDTH 5 0
BBX 4 6 1 0
BITMAP
D0
D0
20
40
B0
B0
ENDCHAR
STARTCHAR uni0026
ENCODING 38
SWIDTH 230 0
DWIDTH 5 0
BBX 4 7 1 0
BITMAP
40
A0
A0
40
B0
A0
50
ENDCHAR
STARTCHAR uni0027
ENCODING 39
SWIDTH 230 0
DWIDTH 5 0
BBX 1 2 2 5
BITMAP
80
80
ENDCHAR
STARTCHAR uni0028
ENCODING 40
SWIDTH 230 0
DWIDTH 5 0
BBX 3 10 1 -1
BITMAP
20
40
40
80
80
80
80
40
40
20
ENDCHAR
STARTCHAR uni0028
ENCODING 41
SWIDTH 230 0
DWIDTH 5 0
BBX 3 10 1 -1
BITMAP
80
40
40
20
20
20
20
40
40
80
ENDCHAR
STARTCHAR uni002A
ENCODING 42
SWIDTH 230 0
DWIDTH 5 0
BBX 4 5 1 1
BITMAP
90
60
F0
60
90
ENDCHAR
STARTCHAR uni002B
ENCODING 43
SWIDTH 230 0
DWIDTH 5 0
BBX 3 3 1 2
BITMAP
40
E0
40
ENDCHAR
STARTCHAR uni002C
ENCODING 44
SWIDTH 230 0
DWIDTH 5 0
BBX 2 2 2 -1
BITMAP
40
80
ENDCHAR
STARTCHAR uni002D
ENCODING 45
SWIDTH 230 0
DWIDTH 5 0
BBX 3 1 1 3
BITMAP
E0
ENDCHAR
STARTCHAR uni002E
ENCODING 46
SWIDTH 230 0
DWIDTH 5 0
BBX 1 1 2 0
BITMAP
80
ENDCHAR
STARTCHAR uni002F
ENCODING 47
SWIDTH 230 0
DWIDTH 5 0
BBX 4 8 1 -1
BITMAP
10
10
20
20
40
40
80
80
ENDCHAR
STARTCHAR uni0030
ENCODING 48
SWIDTH 230 0
DWIDTH 5 0
BBX 4 8 1 0
BITMAP
60
90
90
B0
D0
90
90
60
ENDCHAR
STARTCHAR uni0031
ENCODING 49
SWIDTH 230 0
DWIDTH 5 0
BBX 3 8 1 0
BITMAP
20
60
A0
20
20
20
20
20
ENDCHAR
STARTCHAR uni0032
ENCODING 50
SWIDTH 230 0
DWIDTH 5 0
BBX 4 8 1 0
BITMAP
60
90
10
10
20
40
80
F0
ENDCHAR
STARTCHAR uni0033
ENCODING 51
SWIDTH 230 0
DWIDTH 5 0
BBX 4 8 1 0
BITMAP
E0
10
10
60
10
10
10
E0
ENDCHAR
STARTCHAR uni0034
ENCODING 52
SWIDTH 230 0
DWIDTH 5 0
BBX 4 8 1 0
BITMAP
10
30
50
90
F0
10
10
10
ENDCHAR
STARTCHAR uni0035
ENCODING 53
SWIDTH 230 0
DWIDTH 5 0
BBX 4 8 1 0
BITMAP
F0
80
80
E0
10
10
90
60
ENDCHAR
STARTCHAR uni0036
ENCODING 54
SWIDTH 230 0
DWIDTH 5 0
BBX 4 8 1 0
BITMAP
60
90
80
E0
90
90
90
60
ENDCHAR
STARTCHAR uni0037
ENCODING 55
SWIDTH 230 0
DWIDTH 5 0
BBX 4 8 1 0
BITMAP
F0
10
20
20
40
40
40
40
ENDCHAR
STARTCHAR uni0038
ENCODING 56
SWIDTH 230 0
DWIDTH 5 0
BBX 4 8 1 0
BITMAP
60
90
90
60
90
90
90
60
ENDCHAR
STARTCHAR uni0039
ENCODING 57
SWIDTH 230 0
DWIDTH 5 0
BBX 4 8 1 0
BITMAP
60
90
90
90
70
10
90
60
ENDCHAR
STARTCHAR uni003A
ENCODING 58
SWIDTH 230 0
DWIDTH 5 0
BBX 1 4 2 1
BITMAP
80
00
00
80
ENDCHAR
STARTCHAR uni003B
ENCODING 59
SWIDTH 230 0
DWIDTH 5 0
BBX 2 5 1 0
BITMAP
40
00
00
40
80
ENDCHAR
STARTCHAR uni003C
ENCODING 60
SWIDTH 230 0
DWIDTH 5 0
BBX 4 7 1 0
BITMAP
10
20
40
80
40
20
10
ENDCHAR
STARTCHAR uni003D
ENCODING 61
SWIDTH 230 0
DWIDTH 5 0
BBX 3 3 1 2
BITMAP
E0
00
E0
ENDCHAR
STARTCHAR uni003E
ENCODING 62
SWIDTH 230 0
DWIDTH 5 0
BBX 4 7 1 0
BITMAP
80
40
20
10
20
40
80
ENDCHAR
STARTCHAR uni003F
ENCODING 63
SWIDTH 230 0
DWIDTH 5 0
BBX 4 7 1 0
BITMAP
60
90
10
20
40
00
40
ENDCHAR
STARTCHAR uni0040
ENCODING 64
SWIDTH 230 0
DWIDTH 5 0
BBX 4 8 1 0
BITMAP
60
90
B0
B0
B0
80
80
60
ENDCHAR
STARTCHAR uni0041
ENCODING 65
SWIDTH 230 0
DWIDTH 5 0
BBX 4 8 1 0
BITMAP
60
90
90
90
F0
90
90
90
ENDCHAR
STARTCHAR uni0042
ENCODING 66
SWIDTH 230 0
DWIDTH 5 0
BBX 4 8 1 0
BITMAP
E0
90
90
E0
90
90
90
E0
ENDCHAR
STARTCHAR uni0043
ENCODING 67
SWIDTH 230 0
DWIDTH 5 0
BBX 4 8 1 0
BITMAP
60
90
80
80
80
80
90
60
ENDCHAR
STARTCHAR uni0044
ENCODING 68
SWIDTH 230 0
DWIDTH 5 0
BBX 4 8 1 0
BITMAP
E0
90
90
90
90
90
90
E0
ENDCHAR
STARTCHAR uni0045
ENCODING 69
SWIDTH 230 0
DWIDTH 5 0
BBX 4 8 1 0
BITMAP
F0
80
80
E0
80
80
80
F0
ENDCHAR
STARTCHAR uni0046
ENCODING 70
SWIDTH 230 0
DWIDTH 5 0
BBX 4 8 1 0
BITMAP
F0
80
80
E0
80
80
80
80
ENDCHAR
STARTCHAR uni0047
ENCODING 71
SWIDTH 230 0
DWIDTH 5 0
BBX 4 8 1 0
BITMAP
60
90
80
80
B0
90
90
60
ENDCHAR
STARTCHAR uni0048
ENCODING 72
SWIDTH 230 0
DWIDTH 5 0
BBX 4 8 1 0
BITMAP
90
90
90
F0
90
90
90
90
ENDCHAR
STARTCHAR uni0049
ENCODING 73
SWIDTH 230 0
DWIDTH 5 0
BBX 3 8 1 0
BITMAP
E0
40
40
40
40
40
40
E0
ENDCHAR
STARTCHAR uni004A
ENCODING 74
SWIDTH 230 0
DWIDTH 5 0
BBX 4 8 1 0
BITMAP
30
10
10
10
10
10
90
60
ENDCHAR
STARTCHAR uni004B
ENCODING 75
SWIDTH 230 0
DWIDTH 5 0
BBX 4 8 1 0
BITMAP
90
90
A0
C0
A0
90
90
90
ENDCHAR
STARTCHAR uni004C
ENCODING 76
SWIDTH 230 0
DWIDTH 5 0
BBX 4 8 1 0
BITMAP
80
80
80
80
80
80
80
F0
ENDCHAR
STARTCHAR uni004D
ENCODING 77
SWIDTH 230 0
DWIDTH 5 0
BBX 4 8 1 0
BITMAP
90
F0
90
90
90
90
90
90
ENDCHAR
STARTCHAR uni004E
ENCODING 78
SWIDTH 230 0
DWIDTH 5 0
BBX 4 8 1 0
BITMAP
90
D0
B0
90
90
90
90
90
ENDCHAR
STARTCHAR uni004F
ENCODING 79
SWIDTH 230 0
DWIDTH 5 0
BBX 4 8 1 0
BITMAP
60
90
90
90
90
90
90
60
ENDCHAR
STARTCHAR uni0050
ENCODING 80
SWIDTH 230 0
DWIDTH 5 0
BBX 4 8 1 0
BITMAP
E0
90
90
E0
80
80
80
80
ENDCHAR
STARTCHAR uni0051
ENCODING 81
SWIDTH 230 0
DWIDTH 5 0
BBX 4 9 1 -1
BITMAP
60
90
90
90
90
90
90
60
30
ENDCHAR
STARTCHAR uni0052
ENCODING 82
SWIDTH 230 0
DWIDTH 5 0
BBX 4 8 1 0
BITMAP
E0
90
90
E0
A0
90
90
90
ENDCHAR
STARTCHAR uni0053
ENCODING 83
SWIDTH 230 0
DWIDTH 5 0
BBX 4 8 1 0
BITMAP
60
90
80
60
10
10
90
60
ENDCHAR
STARTCHAR uni0054
ENCODING 84
SWIDTH 230 0
DWIDTH 5 0
BBX 5 8 0 0
BITMAP
F8
20
20
20
20
20
20
20
ENDCHAR
STARTCHAR uni0055
ENCODING 85
SWIDTH 230 0
DWIDTH 5 0
BBX 4 8 1 0
BITMAP
90
90
90
90
90
90
90
60
ENDCHAR
STARTCHAR uni0056
ENCODING 86
SWIDTH 230 0
DWIDTH 5 0
BBX 4 8 1 0
BITMAP
90
90
90
90
90
90
60
60
ENDCHAR
STARTCHAR uni0057
ENCODING 87
SWIDTH 230 0
DWIDTH 5 0
BBX 4 8 1 0
BITMAP
90
90
90
90
90
90
F0
90
ENDCHAR
STARTCHAR uni0058
ENCODING 88
SWIDTH 230 0
DWIDTH 5 0
BBX 4 8 1 0
BITMAP
90
90
90
60
90
90
90
90
ENDCHAR
STARTCHAR uni0059
ENCODING 89
SWIDTH 230 0
DWIDTH 5 0
BBX 4 8 1 0
BITMAP
90
90
90
90
90
70
10
60
ENDCHAR
STARTCHAR uni005A
ENCODING 90
SWIDTH 230 0
DWIDTH 5 0
BBX 4 8 1 0
BITMAP
F0
10
10
20
40
80
80
F0
ENDCHAR
STARTCHAR uni005B
ENCODING 91
SWIDTH 230 0
DWIDTH 5 0
BBX 3 10 1 -1
BITMAP
E0
80
80
80
80
80
80
80
80
E0
ENDCHAR
STARTCHAR uni005C
ENCODING 92
SWIDTH 230 0
DWIDTH 5 0
BBX 4 8 1 -1
BITMAP
80
80
40
40
20
20
10
10
ENDCHAR
STARTCHAR uni005D
ENCODING 93
SWIDTH 230 0
DWIDTH 5 0
BBX 3 10 1 -1
BITMAP
E0
20
20
20
20
20
20
20
20
E0
ENDCHAR
STARTCHAR uni005E
ENCODING 94
SWIDTH 230 0
DWIDTH 5 0
BBX 3 2 1 5
BITMAP
40
A0
ENDCHAR
STARTCHAR uni005F
ENCODING 95
SWIDTH 230 0
DWIDTH 5 0
BBX 3 1 1 -1
BITMAP
E0
ENDCHAR
STARTCHAR uni0060
ENCODING 96
SWIDTH 230 0
DWIDTH 5 0
BBX 2 2 2 6
BITMAP
80
40
ENDCHAR
STARTCHAR uni0061
ENCODING 97
SWIDTH 230 0
DWIDTH 5 0
BBX 4 6 1 0
BITMAP
60
10
70
90
90
70
ENDCHAR
STARTCHAR uni0062
ENCODING 98
SWIDTH 230 0
DWIDTH 5 0
BBX 4 8 1 0
BITMAP
80
80
E0
90
90
90
90
E0
ENDCHAR
STARTCHAR uni0063
ENCODING 99
SWIDTH 230 0
DWIDTH 5 0
BBX 4 6 1 0
BITMAP
60
90
80
80
80
70
ENDCHAR
STARTCHAR uni0064
ENCODING 100
SWIDTH 230 0
DWIDTH 5 0
BBX 4 8 1 0
BITMAP
10
10
70
90
90
90
90
70
ENDCHAR
STARTCHAR uni0065
ENCODING 101
SWIDTH 230 0
DWIDTH 5 0
BBX 4 6 1 0
BITMAP
60
90
90
F0
80
70
ENDCHAR
STARTCHAR uni0066
ENCODING 102
SWIDTH 230 0
DWIDTH 5 0
BBX 4 8 1 0
BITMAP
30
40
E0
40
40
40
40
40
ENDCHAR
STARTCHAR uni0067
ENCODING 103
SWIDTH 230 0
DWIDTH 5 0
BBX 4 8 1 -2
BITMAP
70
90
90
90
90
70
10
60
ENDCHAR
STARTCHAR uni0068
ENCODING 104
SWIDTH 230 0
DWIDTH 5 0
BBX 4 8 1 0
BITMAP
80
80
E0
90
90
90
90
90
ENDCHAR
STARTCHAR uni0069
ENCODING 105
SWIDTH 230 0
DWIDTH 5 0
BBX 3 8 2 0
BITMAP
40
00
C0
40
40
40
40
E0
ENDCHAR
STARTCHAR uni006A
ENCODING 106
SWIDTH 230 0
DWIDTH 5 0
BBX 3 10 1 -2
BITMAP
20
00
60
20
20
20
20
20
20
C0
ENDCHAR
STARTCHAR uni006B
ENCODING 107
SWIDTH 230 0
DWIDTH 5 0
BBX 4 8 1 0
BITMAP
80
80
90
A0
C0
A0
90
90
ENDCHAR
STARTCHAR uni006C
ENCODING 108
SWIDTH 230 0
DWIDTH 5 0
BBX 4 8 1 0
BITMAP
C0
40
40
40
40
40
40
30
ENDCHAR
STARTCHAR uni006D
ENCODING 109
SWIDTH 230 0
DWIDTH 5 0
BBX 4 6 1 0
BITMAP
90
F0
90
90
90
90
ENDCHAR
STARTCHAR uni006E
ENCODING 110
SWIDTH 230 0
DWIDTH 5 0
BBX 4 6 1 0
BITMAP
E0
90
90
90
90
90
ENDCHAR
STARTCHAR uni006F
ENCODING 111
SWIDTH 230 0
DWIDTH 5 0
BBX 4 6 1 0
BITMAP
60
90
90
90
90
60
ENDCHAR
STARTCHAR uni0070
ENCODING 112
SWIDTH 230 0
DWIDTH 5 0
BBX 4 8 1 -2
BITMAP
E0
90
90
90
90
E0
80
80
ENDCHAR
STARTCHAR uni0071
ENCODING 113
SWIDTH 230 0
DWIDTH 5 0
BBX 4 8 1 -2
BITMAP
70
90
90
90
90
70
10
10
ENDCHAR
STARTCHAR uni0072
ENCODING 114
SWIDTH 230 0
DWIDTH 5 0
BBX 4 6 1 0
BITMAP
E0
90
80
80
80
80
ENDCHAR
STARTCHAR uni0073
ENCODING 115
SWIDTH 230 0
DWIDTH 5 0
BBX 4 6 1 0
BITMAP
60
80
60
10
10
E0
ENDCHAR
STARTCHAR uni0074
ENCODING 116
SWIDTH 230 0
DWIDTH 5 0
BBX 4 8 1 0
BITMAP
40
40
F0
40
40
40
40
30
ENDCHAR
STARTCHAR uni0075
ENCODING 117
SWIDTH 230 0
DWIDTH 5 0
BBX 4 6 1 0
BITMAP
90
90
90
90
90
60
ENDCHAR
STARTCHAR uni0076
ENCODING 118
SWIDTH 230 0
DWIDTH 5 0
BBX 4 6 1 0
BITMAP
90
90
90
90
60
60
ENDCHAR
STARTCHAR uni0077
ENCODING 119
SWIDTH 230 0
DWIDTH 5 0
BBX 4 6 1 0
BITMAP
90
90
90
90
F0
90
ENDCHAR
STARTCHAR uni0078
ENCODING 120
SWIDTH 230 0
DWIDTH 5 0
BBX 4 6 1 0
BITMAP
90
90
60
90
90
90
ENDCHAR
STARTCHAR uni0079
ENCODING 121
SWIDTH 230 0
DWIDTH 5 0
BBX 4 8 1 -2
BITMAP
90
90
90
90
90
70
10
E0
ENDCHAR
STARTCHAR uni007A
ENCODING 122
SWIDTH 230 0
DWIDTH 5 0
BBX 4 6 1 0
BITMAP
F0
10
20
40
80
F0
ENDCHAR
STARTCHAR uni007B
ENCODING 123
SWIDTH 230 0
DWIDTH 5 0
BBX 3 10 1 -1
BITMAP
20
40
40
40
40
80
40
40
40
20
ENDCHAR
STARTCHAR uni007C
ENCODING 124
SWIDTH 230 0
DWIDTH 5 0
BBX 1 10 2 -1
BITMAP
80
80
80
80
80
80
80
80
80
80
ENDCHAR
STARTCHAR uni007D
ENCODING 125
SWIDTH 230 0
DWIDTH 5 0
BBX 3 10 2 -1
BITMAP
80
40
40
40
40
20
40
40
40
80
ENDCHAR
STARTCHAR uni007E
ENCODING 126
SWIDTH 230 0
DWIDTH 5 0
BBX 4 2 1 3
BITMAP
50
A0
ENDCHAR
STARTCHAR char149
ENCODING 149
SWIDTH 230 0
DWIDTH 5 0
BBX 4 4 1 0
BITMAP
60
F0
F0
60
ENDCHAR
STARTCHAR char161
ENCODING 161
SWIDTH 230 0
DWIDTH 5 0
BBX 1 7 2 0
BITMAP
80
00
80
80
80
80
80
ENDCHAR
STARTCHAR char162
ENCODING 162
SWIDTH 230 0
DWIDTH 5 0
BBX 4 7 0 -1
BITMAP
10
70
A0
A0
A0
70
40
ENDCHAR
STARTCHAR char163
ENCODING 163
SWIDTH 230 0
DWIDTH 5 0
BBX 5 7 0 0
BITMAP
30
40
40
E0
40
48
F0
ENDCHAR
STARTCHAR char164
ENCODING 164
SWIDTH 230 0
DWIDTH 5 0
BBX 5 6 0 0
BITMAP
88
70
50
50
70
88
ENDCHAR
STARTCHAR char165
ENCODING 165
SWIDTH 230 0
DWIDTH 5 0
BBX 5 7 0 0
BITMAP
88
50
20
70
20
70
20
ENDCHAR
STARTCHAR char166
ENCODING 166
SWIDTH 230 0
DWIDTH 5 0
BBX 1 9 2 -1
BITMAP
80
80
80
80
00
80
80
80
80
ENDCHAR
STARTCHAR char167
ENCODING 167
SWIDTH 230 0
DWIDTH 5 0
BBX 3 9 1 -1
BITMAP
60
80
40
E0
A0
E0
40
20
C0
ENDCHAR
STARTCHAR char168
ENCODING 168
SWIDTH 230 0
DWIDTH 5 0
BBX 3 1 1 5
BITMAP
A0
ENDCHAR
STARTCHAR char169
ENCODING 169
SWIDTH 230 0
DWIDTH 5 0
BBX 6 7 0 0
BITMAP
38
44
B8
A0
B8
44
38
ENDCHAR
STARTCHAR char170
ENCODING 170
SWIDTH 230 0
DWIDTH 5 0
BBX 3 6 2 2
BITMAP
E0
20
E0
E0
00
E0
ENDCHAR
STARTCHAR char171
ENCODING 171
SWIDTH 230 0
DWIDTH 5 0
BBX 4 3 1 2
BITMAP
50
A0
50
ENDCHAR
STARTCHAR char172
ENCODING 172
SWIDTH 230 0
DWIDTH 5 0
BBX 5 3 0 1
BITMAP
F8
08
08
ENDCHAR
STARTCHAR char174
ENCODING 174
SWIDTH 230 0
DWIDTH 5 0
BBX 7 7 0 0
BITMAP
38
44
BA
B2
AA
44
38
ENDCHAR
STARTCHAR char175
ENCODING 175
SWIDTH 230 0
DWIDTH 5 0
BBX 3 1 1 6
BITMAP
E0
ENDCHAR
STARTCHAR char176
ENCODING 176
SWIDTH 230 0
DWIDTH 5 0
BBX 3 3 1 4
BITMAP
40
A0
40
ENDCHAR
STARTCHAR char177
ENCODING 177
SWIDTH 230 0
DWIDTH 5 0
BBX 3 5 1 0
BITMAP
40
E0
40
00
E0
ENDCHAR
STARTCHAR char178
ENCODING 178
SWIDTH 230 0
DWIDTH 5 0
BBX 3 4 1 3
BITMAP
C0
20
40
E0
ENDCHAR
STARTCHAR char179
ENCODING 179
SWIDTH 230 0
DWIDTH 5 0
BBX 3 4 1 3
BITMAP
E0
40
20
C0
ENDCHAR
STARTCHAR char180
ENCODING 180
SWIDTH 230 0
DWIDTH 5 0
BBX 2 2 1 6
BITMAP
40
80
ENDCHAR
STARTCHAR char181
ENCODING 181
SWIDTH 230 0
DWIDTH 5 0
BBX 4 6 1 -1
BITMAP
90
90
90
90
E0
80
ENDCHAR
STARTCHAR char182
ENCODING 182
SWIDTH 230 0
DWIDTH 5 0
BBX 5 6 0 0
BITMAP
78
A8
A8
68
28
28
ENDCHAR
STARTCHAR char183
ENCODING 183
SWIDTH 230 0
DWIDTH 5 0
BBX 2 2 2 2
BITMAP
C0
C0
ENDCHAR
STARTCHAR char184
ENCODING 184
SWIDTH 230 0
DWIDTH 5 0
BBX 3 3 1 1
BITMAP
40
20
E0
ENDCHAR
STARTCHAR char185
ENCODING 185
SWIDTH 230 0
DWIDTH 5 0
BBX 2 4 1 3
BITMAP
40
C0
40
40
ENDCHAR
STARTCHAR char186
ENCODING 186
SWIDTH 230 0
DWIDTH 5 0
BBX 4 4 0 4
BITMAP
60
90
90
60
ENDCHAR
STARTCHAR char187
ENCODING 187
SWIDTH 230 0
DWIDTH 5 0
BBX 4 3 1 2
BITMAP
A0
50
A0
ENDCHAR
STARTCHAR char188
ENCODING 188
SWIDTH 230 0
DWIDTH 5 0
BBX 5 8 1 0
BITMAP
40
C0
40
50
30
50
78
10
ENDCHAR
STARTCHAR char189
ENCODING 189
SWIDTH 230 0
DWIDTH 5 0
BBX 5 7 1 1
BITMAP
40
C0
40
70
08
10
38
ENDCHAR
STARTCHAR char190
ENCODING 190
SWIDTH 230 0
DWIDTH 5 0
BBX 6 8 0 0
BITMAP
C0
20
40
28
D8
28
3C
08
ENDCHAR
STARTCHAR char191
ENCODING 191
SWIDTH 230 0
DWIDTH 5 0
BBX 3 6 2 0
BITMAP
40
00
40
80
A0
E0
ENDCHAR
STARTCHAR char192
ENCODING 192
SWIDTH 230 0
DWIDTH 5 0
BBX 4 9 1 0
BITMAP
40
20
60
90
90
F0
90
90
90
ENDCHAR
STARTCHAR char193
ENCODING 193
SWIDTH 230 0
DWIDTH 5 0
BBX 4 9 1 0
BITMAP
20
40
60
90
90
F0
90
90
90
ENDCHAR
STARTCHAR char194
ENCODING 194
SWIDTH 230 0
DWIDTH 5 0
BBX 4 10 1 0
BITMAP
20
50
00
60
90
90
F0
90
90
90
ENDCHAR
STARTCHAR char195
ENCODING 195
SWIDTH 230 0
DWIDTH 5 0
BBX 4 9 1 0
BITMAP
50
A0
60
90
90
F0
90
90
90
ENDCHAR
STARTCHAR char196
ENCODING 196
SWIDTH 230 0
DWIDTH 5 0
BBX 4 9 1 0
BITMAP
90
00
60
90
90
F0
90
90
90
ENDCHAR
STARTCHAR char197
ENCODING 197
SWIDTH 230 0
DWIDTH 5 0
BBX 4 9 1 0
BITMAP
60
90
60
90
90
F0
90
90
90
ENDCHAR
STARTCHAR char198
ENCODING 198
SWIDTH 230 0
DWIDTH 5 0
BBX 6 7 0 0
BITMAP
7C
90
90
F8
90
90
9C
ENDCHAR
STARTCHAR char199
ENCODING 199
SWIDTH 230 0
DWIDTH 5 0
BBX 4 9 0 -2
BITMAP
60
90
80
80
80
90
60
20
40
ENDCHAR
STARTCHAR char200
ENCODING 200
SWIDTH 230 0
DWIDTH 5 0
BBX 4 9 1 0
BITMAP
40
20
F0
80
80
E0
80
80
F0
ENDCHAR
STARTCHAR char201
ENCODING 201
SWIDTH 230 0
DWIDTH 5 0
BBX 4 9 1 0
BITMAP
20
40
F0
80
80
E0
80
80
F0
ENDCHAR
STARTCHAR char202
ENCODING 202
SWIDTH 230 0
DWIDTH 5 0
BBX 4 9 1 0
BITMAP
40
A0
F0
80
80
E0
80
80
F0
ENDCHAR
STARTCHAR char203
ENCODING 203
SWIDTH 230 0
DWIDTH 5 0
BBX 4 9 1 0
BITMAP
A0
00
F0
80
80
E0
80
80
F0
ENDCHAR
STARTCHAR char204
ENCODING 204
SWIDTH 230 0
DWIDTH 5 0
BBX 3 10 1 0
BITMAP
80
40
00
E0
40
40
40
40
40
E0
ENDCHAR
STARTCHAR char205
ENCODING 205
SWIDTH 230 0
DWIDTH 5 0
BBX 3 10 1 0
BITMAP
20
40
00
E0
40
40
40
40
40
E0
ENDCHAR
STARTCHAR char206
ENCODING 206
SWIDTH 230 0
DWIDTH 5 0
BBX 3 10 1 0
BITMAP
40
A0
00
E0
40
40
40
40
40
E0
ENDCHAR
STARTCHAR char207
ENCODING 207
SWIDTH 230 0
DWIDTH 5 0
BBX 3 9 1 0
BITMAP
A0
00
E0
40
40
40
40
40
E0
ENDCHAR
STARTCHAR char208
ENCODING 208
SWIDTH 230 0
DWIDTH 5 0
BBX 5 7 0 0
BITMAP
70
48
48
E8
48
48
70
ENDCHAR
STARTCHAR char209
ENCODING 209
SWIDTH 230 0
DWIDTH 5 0
BBX 4 8 1 0
BITMAP
50
A0
00
E0
90
90
90
90
ENDCHAR
STARTCHAR char210
ENCODING 210
SWIDTH 230 0
DWIDTH 5 0
BBX 4 8 1 0
BITMAP
80
40
00
60
90
90
90
60
ENDCHAR
STARTCHAR char211
ENCODING 211
SWIDTH 230 0
DWIDTH 5 0
BBX 4 8 1 0
BITMAP
20
40
00
60
90
90
90
60
ENDCHAR
STARTCHAR char212
ENCODING 212
SWIDTH 230 0
DWIDTH 5 0
BBX 4 8 1 0
BITMAP
40
A0
00
60
90
90
90
60
ENDCHAR
STARTCHAR char213
ENCODING 213
SWIDTH 230 0
DWIDTH 5 0
BBX 4 8 1 0
BITMAP
50
A0
00
60
90
90
90
60
ENDCHAR
STARTCHAR char214
ENCODING 214
SWIDTH 230 0
DWIDTH 5 0
BBX 4 7 1 0
BITMAP
90
00
60
90
90
90
60
ENDCHAR
STARTCHAR char215
ENCODING 215
SWIDTH 230 0
DWIDTH 5 0
BBX 3 3 1 2
BITMAP
A0
40
A0
ENDCHAR
STARTCHAR char216
ENCODING 216
SWIDTH 230 0
DWIDTH 5 0
BBX 4 8 1 -1
BITMAP
10
60
B0
B0
D0
D0
60
80
ENDCHAR
STARTCHAR char217
ENCODING 217
SWIDTH 230 0
DWIDTH 5 0
BBX 4 9 1 0
BITMAP
80
40
90
90
90
90
90
90
60
ENDCHAR
STARTCHAR char218
ENCODING 218
SWIDTH 230 0
DWIDTH 5 0
BBX 4 9 1 0
BITMAP
10
20
90
90
90
90
90
90
60
ENDCHAR
STARTCHAR char219
ENCODING 219
SWIDTH 230 0
DWIDTH 5 0
BBX 4 10 1 0
BITMAP
20
50
00
90
90
90
90
90
90
60
ENDCHAR
STARTCHAR char220
ENCODING 220
SWIDTH 230 0
DWIDTH 5 0
BBX 4 9 1 0
BITMAP
50
00
90
90
90
90
90
90
60
ENDCHAR
STARTCHAR char221
ENCODING 221
SWIDTH 230 0
DWIDTH 5 0
BBX 5 9 0 0
BITMAP
10
20
88
50
20
20
20
20
20
ENDCHAR
STARTCHAR char222
ENCODING 222
SWIDTH 230 0
DWIDTH 5 0
BBX 4 7 1 -1
BITMAP
80
80
E0
90
90
E0
80
ENDCHAR
STARTCHAR char223
ENCODING 223
SWIDTH 230 0
DWIDTH 5 0
BBX 4 8 1 -1
BITMAP
60
90
A0
90
90
A0
80
80
ENDCHAR
STARTCHAR char224
ENCODING 224
SWIDTH 230 0
DWIDTH 5 0
BBX 4 8 1 0
BITMAP
40
20
00
60
10
70
90
70
ENDCHAR
STARTCHAR char225
ENCODING 225
SWIDTH 230 0
DWIDTH 5 0
BBX 4 8 1 0
BITMAP
10
20
00
60
10
70
90
70
ENDCHAR
STARTCHAR char226
ENCODING 226
SWIDTH 230 0
DWIDTH 5 0
BBX 4 8 1 0
BITMAP
20
50
00
60
10
70
90
70
ENDCHAR
STARTCHAR char227
ENCODING 227
SWIDTH 230 0
DWIDTH 5 0
BBX 4 8 1 0
BITMAP
50
A0
00
60
10
F0
90
70
ENDCHAR
STARTCHAR char228
ENCODING 228
SWIDTH 230 0
DWIDTH 5 0
BBX 4 7 1 0
BITMAP
50
00
60
10
70
90
70
ENDCHAR
STARTCHAR char229
ENCODING 229
SWIDTH 230 0
DWIDTH 5 0
BBX 4 7 1 0
BITMAP
20
00
60
10
70
90
70
ENDCHAR
STARTCHAR char230
ENCODING 230
SWIDTH 230 0
DWIDTH 5 0
BBX 5 5 1 0
BITMAP
D0
28
78
A0
58
ENDCHAR
STARTCHAR char231
ENCODING 231
SWIDTH 230 0
DWIDTH 5 0
BBX 4 7 1 -2
BITMAP
60
90
80
80
70
20
40
ENDCHAR
STARTCHAR char232
ENCODING 232
SWIDTH 230 0
DWIDTH 5 0
BBX 4 8 1 0
BITMAP
80
40
00
60
90
F0
80
70
ENDCHAR
STARTCHAR char233
ENCODING 233
SWIDTH 230 0
DWIDTH 5 0
BBX 4 8 1 0
BITMAP
20
40
00
60
90
F0
80
70
ENDCHAR
STARTCHAR char234
ENCODING 234
SWIDTH 230 0
DWIDTH 5 0
BBX 4 8 1 0
BITMAP
40
A0
00
60
90
F0
80
70
ENDCHAR
STARTCHAR char235
ENCODING 235
SWIDTH 230 0
DWIDTH 5 0
BBX 4 7 1 0
BITMAP
A0
00
60
90
F0
80
70
ENDCHAR
STARTCHAR char236
ENCODING 236
SWIDTH 230 0
DWIDTH 5 0
BBX 2 8 2 0
BITMAP
80
40
00
C0
40
40
40
40
ENDCHAR
STARTCHAR char237
ENCODING 237
SWIDTH 230 0
DWIDTH 5 0
BBX 3 8 2 0
BITMAP
20
40
00
C0
40
40
40
40
ENDCHAR
STARTCHAR char238
ENCODING 238
SWIDTH 230 0
DWIDTH 5 0
BBX 3 8 2 0
BITMAP
40
A0
00
C0
40
40
40
40
ENDCHAR
STARTCHAR char239
ENCODING 239
SWIDTH 230 0
DWIDTH 5 0
BBX 3 7 2 0
BITMAP
A0
00
C0
40
40
40
40
ENDCHAR
STARTCHAR char240
ENCODING 240
SWIDTH 230 0
DWIDTH 5 0
BBX 4 8 1 0
BITMAP
A0
60
90
70
90
90
90
60
ENDCHAR
STARTCHAR char241
ENCODING 241
SWIDTH 230 0
DWIDTH 5 0
BBX 4 8 1 0
BITMAP
50
A0
00
E0
90
90
90
90
ENDCHAR
STARTCHAR char242
ENCODING 242
SWIDTH 230 0
DWIDTH 5 0
BBX 4 8 1 0
BITMAP
80
40
00
60
90
90
90
60
ENDCHAR
STARTCHAR char243
ENCODING 243
SWIDTH 230 0
DWIDTH 5 0
BBX 4 8 1 0
BITMAP
10
20
00
60
90
90
90
60
ENDCHAR
STARTCHAR char244
ENCODING 244
SWIDTH 230 0
DWIDTH 5 0
BBX 4 8 1 0
BITMAP
40
A0
00
60
90
90
90
60
ENDCHAR
STARTCHAR char245
ENCODING 245
SWIDTH 230 0
DWIDTH 5 0
BBX 4 8 1 0
BITMAP
50
A0
00
60
90
90
90
60
ENDCHAR
STARTCHAR char246
ENCODING 246
SWIDTH 230 0
DWIDTH 5 0
BBX 4 7 1 0
BITMAP
90
00
60
90
90
90
60
ENDCHAR
STARTCHAR char247
ENCODING 247
SWIDTH 230 0
DWIDTH 5 0
BBX 5 5 0 1
BITMAP
20
00
F8
00
20
ENDCHAR
STARTCHAR char248
ENCODING 248
SWIDTH 230 0
DWIDTH 5 0
BBX 4 7 1 -1
BITMAP
10
60
B0
90
D0
60
80
ENDCHAR
STARTCHAR char249
ENCODING 249
SWIDTH 230 0
DWIDTH 5 0
BBX 4 8 1 0
BITMAP
80
40
00
90
90
90
90
70
ENDCHAR
STARTCHAR char250
ENCODING 250
SWIDTH 230 0
DWIDTH 5 0
BBX 4 8 1 0
BITMAP
20
40
00
90
90
90
90
70
ENDCHAR
STARTCHAR char251
ENCODING 251
SWIDTH 230 0
DWIDTH 5 0
BBX 4 8 1 0
BITMAP
40
A0
00
90
90
90
90
70
ENDCHAR
STARTCHAR char252
ENCODING 252
SWIDTH 230 0
DWIDTH 5 0
BBX 4 7 1 0
BITMAP
A0
00
90
90
90
90
70
ENDCHAR
STARTCHAR char253
ENCODING 253
SWIDTH 230 0
DWIDTH 5 0
BBX 4 10 1 -2
BITMAP
20
40
00
90
90
90
90
70
10
60
ENDCHAR
STARTCHAR char254
ENCODING 254
SWIDTH 230 0
DWIDTH 5 0
BBX 4 9 1 -2
BITMAP
80
80
E0
90
90
90
E0
80
80
ENDCHAR
STARTCHAR char255
ENCODING 255
SWIDTH 230 0
DWIDTH 5 0
BBX 4 9 1 -2
BITMAP
50
00
90
90
90
90
70
10
60
ENDCHAR
STARTCHAR $5240
ENCODING 256
SWIDTH 230 0
DWIDTH 5 0
BBX 4 9 1 0
BITMAP
F0
00
60
90
90
F0
90
90
90
ENDCHAR
STARTCHAR uni0061
ENCODING 257
SWIDTH 230 0
DWIDTH 5 0
BBX 4 7 1 0
BITMAP
F0
00
60
10
70
90
70
ENDCHAR
STARTCHAR uni0041
ENCODING 258
SWIDTH 230 0
DWIDTH 5 0
BBX 4 9 1 0
BITMAP
90
60
00
60
90
90
F0
90
90
ENDCHAR
STARTCHAR uni0061
ENCODING 259
SWIDTH 230 0
DWIDTH 5 0
BBX 4 8 1 0
BITMAP
90
60
00
60
10
70
90
70
ENDCHAR
STARTCHAR uni0041
ENCODING 260
SWIDTH 230 0
DWIDTH 5 0
BBX 5 8 1 -1
BITMAP
60
90
90
F0
90
90
90
08
ENDCHAR
STARTCHAR uni0061
ENCODING 261
SWIDTH 230 0
DWIDTH 5 0
BBX 5 6 1 -1
BITMAP
60
10
70
90
70
08
ENDCHAR
STARTCHAR uni0043
ENCODING 262
SWIDTH 230 0
DWIDTH 5 0
BBX 4 10 1 0
BITMAP
20
40
00
60
90
80
80
80
90
60
ENDCHAR
STARTCHAR uni0063
ENCODING 263
SWIDTH 230 0
DWIDTH 5 0
BBX 4 8 1 0
BITMAP
20
40
00
60
90
80
80
70
ENDCHAR
STARTCHAR uni0043
ENCODING 264
SWIDTH 230 0
DWIDTH 5 0
BBX 4 10 1 -1
BITMAP
20
50
00
60
90
80
80
80
90
60
ENDCHAR
STARTCHAR uni0063
ENCODING 265
SWIDTH 230 0
DWIDTH 5 0
BBX 4 8 1 0
BITMAP
20
50
00
60
90
80
80
70
ENDCHAR
STARTCHAR uni0043
ENCODING 266
SWIDTH 230 0
DWIDTH 5 0
BBX 4 9 1 0
BITMAP
20
00
60
90
80
80
80
90
60
ENDCHAR
STARTCHAR uni0063
ENCODING 267
SWIDTH 230 0
DWIDTH 5 0
BBX 4 7 1 0
BITMAP
20
00
60
90
80
80
70
ENDCHAR
STARTCHAR uni0043
ENCODING 268
SWIDTH 230 0
DWIDTH 5 0
BBX 4 10 1 0
BITMAP
50
20
00
60
90
80
80
80
90
60
ENDCHAR
STARTCHAR uni0063
ENCODING 269
SWIDTH 230 0
DWIDTH 5 0
BBX 4 8 1 0
BITMAP
50
20
00
60
90
80
80
70
ENDCHAR
STARTCHAR uni0044
ENCODING 270
SWIDTH 230 0
DWIDTH 5 0
BBX 4 10 1 0
BITMAP
A0
40
00
E0
90
90
90
90
90
E0
ENDCHAR
STARTCHAR uni0064
ENCODING 271
SWIDTH 230 0
DWIDTH 5 0
BBX 6 8 1 0
BITMAP
04
14
18
70
90
90
90
70
ENDCHAR
STARTCHAR uni0044
ENCODING 272
SWIDTH 230 0
DWIDTH 5 0
BBX 5 7 0 0
BITMAP
70
48
48
E8
48
48
70
ENDCHAR
STARTCHAR uni0064
ENCODING 273
SWIDTH 230 0
DWIDTH 5 0
BBX 5 7 1 0
BITMAP
38
10
70
90
90
90
70
ENDCHAR
STARTCHAR uni0045
ENCODING 274
SWIDTH 230 0
DWIDTH 5 0
BBX 4 9 1 0
BITMAP
60
00
F0
80
80
E0
80
80
F0
ENDCHAR
STARTCHAR uni0065
ENCODING 275
SWIDTH 230 0
DWIDTH 5 0
BBX 4 7 1 0
BITMAP
F0
00
60
90
F0
80
70
ENDCHAR
STARTCHAR uni0045
ENCODING 276
SWIDTH 230 0
DWIDTH 5 0
BBX 4 10 1 0
BITMAP
90
60
00
F0
80
80
E0
80
80
F0
ENDCHAR
STARTCHAR uni0065
ENCODING 277
SWIDTH 230 0
DWIDTH 5 0
BBX 4 8 1 0
BITMAP
90
60
00
60
90
F0
80
70
ENDCHAR
STARTCHAR uni0045
ENCODING 278
SWIDTH 230 0
DWIDTH 5 0
BBX 4 9 1 0
BITMAP
40
00
F0
80
80
E0
80
80
F0
ENDCHAR
STARTCHAR uni0065
ENCODING 279
SWIDTH 230 0
DWIDTH 5 0
BBX 4 7 1 0
BITMAP
40
00
60
90
F0
80
70
ENDCHAR
STARTCHAR uni0045
ENCODING 280
SWIDTH 230 0
DWIDTH 5 0
BBX 5 8 1 -1
BITMAP
F0
80
80
E0
80
80
F0
08
ENDCHAR
STARTCHAR uni0065
ENCODING 281
SWIDTH 230 0
DWIDTH 5 0
BBX 4 6 1 -1
BITMAP
60
90
F0
80
60
10
ENDCHAR
STARTCHAR uni0045
ENCODING 282
SWIDTH 230 0
DWIDTH 5 0
BBX 4 10 1 0
BITMAP
A0
40
00
F0
80
80
E0
80
80
F0
ENDCHAR
STARTCHAR uni0065
ENCODING 283
SWIDTH 230 0
DWIDTH 5 0
BBX 4 8 1 0
BITMAP
A0
40
00
60
90
F0
80
70
ENDCHAR
STARTCHAR uni0047
ENCODING 284
SWIDTH 230 0
DWIDTH 5 0
BBX 4 10 1 0
BITMAP
20
50
00
60
90
80
B0
90
90
70
ENDCHAR
STARTCHAR uni0067
ENCODING 285
SWIDTH 230 0
DWIDTH 5 0
BBX 4 10 1 -2
BITMAP
20
50
00
70
90
90
90
70
10
60
ENDCHAR
STARTCHAR uni0047
ENCODING 286
SWIDTH 230 0
DWIDTH 5 0
BBX 4 10 1 0
BITMAP
90
60
00
60
90
80
B0
90
90
60
ENDCHAR
STARTCHAR uni0067
ENCODING 287
SWIDTH 230 0
DWIDTH 5 0
BBX 4 10 1 -2
BITMAP
90
60
00
70
90
90
90
70
10
60
ENDCHAR
STARTCHAR uni0047
ENCODING 288
SWIDTH 230 0
DWIDTH 5 0
BBX 4 9 1 0
BITMAP
20
00
60
90
80
B0
90
90
60
ENDCHAR
STARTCHAR uni0067
ENCODING 289
SWIDTH 230 0
DWIDTH 5 0
BBX 4 9 1 -2
BITMAP
20
00
70
90
90
90
70
10
60
ENDCHAR
STARTCHAR uni0047
ENCODING 290
SWIDTH 230 0
DWIDTH 5 0
BBX 4 9 1 -2
BITMAP
60
90
80
B0
90
90
70
20
40
ENDCHAR
STARTCHAR uni0067
ENCODING 291
SWIDTH 230 0
DWIDTH 5 0
BBX 4 10 1 -2
BITMAP
20
40
00
70
90
90
90
70
10
60
ENDCHAR
STARTCHAR uni0048
ENCODING 292
SWIDTH 230 0
DWIDTH 5 0
BBX 4 10 1 0
BITMAP
20
50
00
90
90
90
F0
90
90
90
ENDCHAR
STARTCHAR uni0068
ENCODING 293
SWIDTH 230 0
DWIDTH 5 0
BBX 4 9 1 0
BITMAP
20
50
80
80
E0
90
90
90
90
ENDCHAR
STARTCHAR uni0048
ENCODING 294
SWIDTH 230 0
DWIDTH 5 0
BBX 6 6 0 0
BITMAP
FC
48
78
48
48
48
ENDCHAR
STARTCHAR uni0068
ENCODING 295
SWIDTH 230 0
DWIDTH 5 0
BBX 5 7 0 0
BITMAP
F0
40
70
48
48
48
48
ENDCHAR
STARTCHAR uni0049
ENCODING 296
SWIDTH 230 0
DWIDTH 5 0
BBX 4 9 0 0
BITMAP
50
A0
00
70
20
20
20
20
70
ENDCHAR
STARTCHAR uni0069
ENCODING 297
SWIDTH 230 0
DWIDTH 5 0
BBX 4 8 1 0
BITMAP
50
A0
00
60
20
20
20
20
ENDCHAR
STARTCHAR uni0049
ENCODING 298
SWIDTH 230 0
DWIDTH 5 0
BBX 3 8 1 0
BITMAP
E0
00
E0
40
40
40
40
E0
ENDCHAR
STARTCHAR uni0069
ENCODING 299
SWIDTH 230 0
DWIDTH 5 0
BBX 3 7 2 0
BITMAP
E0
00
C0
40
40
40
40
ENDCHAR
STARTCHAR uni0049
ENCODING 300
SWIDTH 230 0
DWIDTH 5 0
BBX 3 9 1 0
BITMAP
A0
40
00
E0
40
40
40
40
E0
ENDCHAR
STARTCHAR uni0069
ENCODING 301
SWIDTH 230 0
DWIDTH 5 0
BBX 3 8 2 0
BITMAP
A0
40
00
C0
40
40
40
40
ENDCHAR
STARTCHAR uni0049
ENCODING 302
SWIDTH 230 0
DWIDTH 5 0
BBX 3 8 1 -2
BITMAP
E0
40
40
40
40
E0
80
40
ENDCHAR
STARTCHAR uni0069
ENCODING 303
SWIDTH 230 0
DWIDTH 5 0
BBX 2 9 2 -2
BITMAP
40
00
C0
40
40
40
C0
80
40
ENDCHAR
STARTCHAR uni0049
ENCODING 304
SWIDTH 230 0
DWIDTH 5 0
BBX 3 8 1 0
BITMAP
40
00
E0
40
40
40
40
E0
ENDCHAR
STARTCHAR uni0069
ENCODING 305
SWIDTH 230 0
DWIDTH 5 0
BBX 2 5 2 0
BITMAP
C0
40
40
40
40
ENDCHAR
STARTCHAR uni0049
ENCODING 306
SWIDTH 230 0
DWIDTH 5 0
BBX 6 6 1 0
BITMAP
FC
44
44
44
54
E8
ENDCHAR
STARTCHAR uni0069
ENCODING 307
SWIDTH 230 0
DWIDTH 5 0
BBX 5 8 1 -1
BITMAP
48
00
D8
48
48
48
48
30
ENDCHAR
STARTCHAR uni004A
ENCODING 308
SWIDTH 230 0
DWIDTH 5 0
BBX 4 10 1 0
BITMAP
20
50
00
30
10
10
10
10
90
60
ENDCHAR
STARTCHAR uni006A
ENCODING 309
SWIDTH 230 0
DWIDTH 5 0
BBX 4 10 1 -2
BITMAP
20
50
00
30
10
10
10
10
90
60
ENDCHAR
STARTCHAR uni004B
ENCODING 310
SWIDTH 230 0
DWIDTH 5 0
BBX 4 9 1 -2
BITMAP
90
90
A0
C0
A0
90
90
40
80
ENDCHAR
STARTCHAR uni006B
ENCODING 311
SWIDTH 230 0
DWIDTH 5 0
BBX 4 9 1 -2
BITMAP
80
80
90
A0
C0
A0
90
40
80
ENDCHAR
STARTCHAR uni006B
ENCODING 312
SWIDTH 230 0
DWIDTH 5 0
BBX 4 5 1 0
BITMAP
90
A0
C0
A0
90
ENDCHAR
STARTCHAR uni004C
ENCODING 313
SWIDTH 230 0
DWIDTH 5 0
BBX 4 9 1 0
BITMAP
10
20
80
80
80
80
80
80
F0
ENDCHAR
STARTCHAR uni006C
ENCODING 314
SWIDTH 230 0
DWIDTH 5 0
BBX 4 9 2 0
BITMAP
10
20
C0
40
40
40
40
40
40
ENDCHAR
STARTCHAR uni004C
ENCODING 315
SWIDTH 230 0
DWIDTH 5 0
BBX 4 9 1 -2
BITMAP
80
80
80
80
80
80
F0
20
40
ENDCHAR
STARTCHAR uni006C
ENCODING 316
SWIDTH 230 0
DWIDTH 5 0
BBX 3 9 1 -2
BITMAP
60
20
20
20
20
20
20
40
80
ENDCHAR
STARTCHAR uni004C
ENCODING 317
SWIDTH 230 0
DWIDTH 5 0
BBX 4 8 1 0
BITMAP
30
90
80
80
80
80
80
F0
ENDCHAR
STARTCHAR uni006C
ENCODING 318
SWIDTH 230 0
DWIDTH 5 0
BBX 4 9 1 0
BITMAP
30
10
C0
40
40
40
40
40
30
ENDCHAR
STARTCHAR uni004C
ENCODING 319
SWIDTH 230 0
DWIDTH 5 0
BBX 4 7 1 0
BITMAP
80
80
80
80
A0
80
F0
ENDCHAR
STARTCHAR uni006C
ENCODING 320
SWIDTH 230 0
DWIDTH 5 0
BBX 4 7 1 0
BITMAP
C0
40
40
40
50
40
40
ENDCHAR
STARTCHAR uni004C
ENCODING 321
SWIDTH 230 0
DWIDTH 5 0
BBX 4 7 1 0
BITMAP
80
80
A0
C0
80
80
F0
ENDCHAR
STARTCHAR uni006C
ENCODING 322
SWIDTH 230 0
DWIDTH 5 0
BBX 3 7 2 0
BITMAP
C0
40
40
60
C0
40
40
ENDCHAR
STARTCHAR uni004E
ENCODING 323
SWIDTH 230 0
DWIDTH 5 0
BBX 4 10 1 0
BITMAP
20
40
00
90
D0
B0
90
90
90
90
ENDCHAR
STARTCHAR uni006E
ENCODING 324
SWIDTH 230 0
DWIDTH 5 0
BBX 4 8 1 0
BITMAP
20
40
00
E0
90
90
90
90
ENDCHAR
STARTCHAR uni004E
ENCODING 325
SWIDTH 230 0
DWIDTH 5 0
BBX 4 9 1 -2
BITMAP
90
D0
B0
90
90
90
D0
40
80
ENDCHAR
STARTCHAR uni006E
ENCODING 326
SWIDTH 230 0
DWIDTH 5 0
BBX 4 10 1 -2
BITMAP
20
40
00
E0
90
90
90
D0
40
80
ENDCHAR
STARTCHAR uni004E
ENCODING 327
SWIDTH 230 0
DWIDTH 5 0
BBX 4 10 1 0
BITMAP
50
20
00
90
D0
B0
90
90
90
90
ENDCHAR
STARTCHAR uni006E
ENCODING 328
SWIDTH 230 0
DWIDTH 5 0
BBX 4 8 1 0
BITMAP
50
20
00
E0
90
90
90
90
ENDCHAR
STARTCHAR uni006E
ENCODING 329
SWIDTH 230 0
DWIDTH 5 0
BBX 4 8 1 0
BITMAP
80
80
00
E0
90
90
90
90
ENDCHAR
STARTCHAR uni004E
ENCODING 330
SWIDTH 230 0
DWIDTH 5 0
BBX 4 9 1 -2
BITMAP
90
D0
B0
90
90
90
90
10
60
ENDCHAR
STARTCHAR uni006E
ENCODING 331
SWIDTH 230 0
DWIDTH 5 0
BBX 4 10 1 -2
BITMAP
20
40
00
E0
90
90
90
90
10
60
ENDCHAR
STARTCHAR uni004F
ENCODING 332
SWIDTH 230 0
DWIDTH 5 0
BBX 4 9 1 0
BITMAP
F0
00
60
90
90
90
90
90
60
ENDCHAR
STARTCHAR uni006F
ENCODING 333
SWIDTH 230 0
DWIDTH 5 0
BBX 4 7 1 0
BITMAP
F0
00
60
90
90
90
60
ENDCHAR
STARTCHAR uni004F
ENCODING 334
SWIDTH 230 0
DWIDTH 5 0
BBX 4 10 1 0
BITMAP
90
60
00
60
90
90
90
90
90
60
ENDCHAR
STARTCHAR uni006F
ENCODING 335
SWIDTH 230 0
DWIDTH 5 0
BBX 4 8 1 0
BITMAP
90
60
00
60
90
90
90
60
ENDCHAR
STARTCHAR uni004F
ENCODING 336
SWIDTH 230 0
DWIDTH 5 0
BBX 4 10 1 0
BITMAP
50
A0
00
60
90
90
90
90
90
60
ENDCHAR
STARTCHAR uni006F
ENCODING 337
SWIDTH 230 0
DWIDTH 5 0
BBX 4 8 1 0
BITMAP
50
A0
00
60
90
90
90
60
ENDCHAR
STARTCHAR char198
ENCODING 338
SWIDTH 230 0
DWIDTH 5 0
BBX 6 6 0 0
BITMAP
7C
90
98
90
90
7C
ENDCHAR
STARTCHAR char230
ENCODING 339
SWIDTH 230 0
DWIDTH 5 0
BBX 5 5 1 0
BITMAP
70
A8
B8
A0
78
ENDCHAR
STARTCHAR uni0052
ENCODING 340
SWIDTH 230 0
DWIDTH 5 0
BBX 4 9 1 0
BITMAP
20
40
E0
90
90
E0
90
90
90
ENDCHAR
STARTCHAR uni0072
ENCODING 341
SWIDTH 230 0
DWIDTH 5 0
BBX 4 8 1 0
BITMAP
20
40
00
E0
90
80
80
80
ENDCHAR
STARTCHAR uni0052
ENCODING 342
SWIDTH 230 0
DWIDTH 5 0
BBX 4 9 1 -2
BITMAP
E0
90
90
E0
90
90
90
40
80
ENDCHAR
STARTCHAR uni0072
ENCODING 343
SWIDTH 230 0
DWIDTH 5 0
BBX 4 7 1 -2
BITMAP
E0
90
80
80
80
40
80
ENDCHAR
STARTCHAR uni0052
ENCODING 344
SWIDTH 230 0
DWIDTH 5 0
BBX 4 9 1 0
BITMAP
A0
40
E0
90
90
E0
90
90
90
ENDCHAR
STARTCHAR uni0072
ENCODING 345
SWIDTH 230 0
DWIDTH 5 0
BBX 4 8 1 0
BITMAP
A0
40
00
E0
90
80
80
80
ENDCHAR
STARTCHAR uni0053
ENCODING 346
SWIDTH 230 0
DWIDTH 5 0
BBX 4 10 1 0
BITMAP
20
40
00
60
90
80
60
10
90
60
ENDCHAR
STARTCHAR uni0073
ENCODING 347
SWIDTH 230 0
DWIDTH 5 0
BBX 4 8 1 0
BITMAP
20
40
00
60
80
60
10
E0
ENDCHAR
STARTCHAR uni0053
ENCODING 348
SWIDTH 230 0
DWIDTH 5 0
BBX 4 10 1 0
BITMAP
20
50
00
60
90
80
60
10
90
60
ENDCHAR
STARTCHAR uni0073
ENCODING 349
SWIDTH 230 0
DWIDTH 5 0
BBX 4 8 1 0
BITMAP
20
50
00
60
80
60
10
E0
ENDCHAR
STARTCHAR uni0053
ENCODING 350
SWIDTH 230 0
DWIDTH 5 0
BBX 4 9 1 -2
BITMAP
60
90
80
60
10
90
60
20
20
ENDCHAR
STARTCHAR uni0073
ENCODING 351
SWIDTH 230 0
DWIDTH 5 0
BBX 4 7 1 -2
BITMAP
60
80
60
10
E0
20
20
ENDCHAR
STARTCHAR uni0053
ENCODING 352
SWIDTH 230 0
DWIDTH 5 0
BBX 4 10 1 0
BITMAP
50
20
00
60
90
80
60
10
90
60
ENDCHAR
STARTCHAR uni0073
ENCODING 353
SWIDTH 230 0
DWIDTH 5 0
BBX 4 8 1 0
BITMAP
50
20
00
60
80
60
10
E0
ENDCHAR
STARTCHAR uni0054
ENCODING 354
SWIDTH 230 0
DWIDTH 5 0
BBX 5 8 0 -1
BITMAP
F8
20
20
20
20
20
20
40
ENDCHAR
STARTCHAR uni0074
ENCODING 355
SWIDTH 230 0
DWIDTH 5 0
BBX 4 8 1 -1
BITMAP
40
40
E0
40
40
40
30
40
ENDCHAR
STARTCHAR uni0054
ENCODING 356
SWIDTH 230 0
DWIDTH 5 0
BBX 5 10 0 0
BITMAP
50
20
00
F8
20
20
20
20
20
20
ENDCHAR
STARTCHAR uni0074
ENCODING 357
SWIDTH 230 0
DWIDTH 5 0
BBX 4 9 1 0
BITMAP
30
10
40
40
E0
40
40
40
30
ENDCHAR
STARTCHAR uni0054
ENCODING 358
SWIDTH 230 0
DWIDTH 5 0
BBX 5 7 0 0
BITMAP
F8
20
20
70
20
20
20
ENDCHAR
STARTCHAR uni0074
ENCODING 359
SWIDTH 230 0
DWIDTH 5 0
BBX 4 7 1 0
BITMAP
40
40
E0
40
E0
40
30
ENDCHAR
STARTCHAR uni0055
ENCODING 360
SWIDTH 230 0
DWIDTH 5 0
BBX 4 10 1 0
BITMAP
50
A0
00
90
90
90
90
90
90
60
ENDCHAR
STARTCHAR uni0075
ENCODING 361
SWIDTH 230 0
DWIDTH 5 0
BBX 4 8 1 0
BITMAP
50
A0
00
90
90
90
90
70
ENDCHAR
STARTCHAR uni0055
ENCODING 362
SWIDTH 230 0
DWIDTH 5 0
BBX 4 9 1 0
BITMAP
F0
00
90
90
90
90
90
90
60
ENDCHAR
STARTCHAR uni0075
ENCODING 363
SWIDTH 230 0
DWIDTH 5 0
BBX 4 7 1 0
BITMAP
F0
00
90
90
90
90
70
ENDCHAR
STARTCHAR uni0055
ENCODING 364
SWIDTH 230 0
DWIDTH 5 0
BBX 4 10 1 0
BITMAP
90
60
00
90
90
90
90
90
90
60
ENDCHAR
STARTCHAR uni0075
ENCODING 365
SWIDTH 230 0
DWIDTH 5 0
BBX 4 8 1 0
BITMAP
90
60
00
90
90
90
90
70
ENDCHAR
STARTCHAR uni0055
ENCODING 366
SWIDTH 230 0
DWIDTH 5 0
BBX 4 10 1 0
BITMAP
20
50
20
90
90
90
90
90
90
60
ENDCHAR
STARTCHAR uni0075
ENCODING 367
SWIDTH 230 0
DWIDTH 5 0
BBX 4 8 1 0
BITMAP
20
50
20
90
90
90
90
70
ENDCHAR
STARTCHAR uni0055
ENCODING 368
SWIDTH 230 0
DWIDTH 5 0
BBX 5 10 1 0
BITMAP
48
90
00
90
90
90
90
90
90
60
ENDCHAR
STARTCHAR uni0075
ENCODING 369
SWIDTH 230 0
DWIDTH 5 0
BBX 5 8 1 0
BITMAP
48
90
00
90
90
90
90
70
ENDCHAR
STARTCHAR uni0055
ENCODING 370
SWIDTH 230 0
DWIDTH 5 0
BBX 4 9 1 -2
BITMAP
90
90
90
90
90
90
60
40
20
ENDCHAR
STARTCHAR uni0075
ENCODING 371
SWIDTH 230 0
DWIDTH 5 0
BBX 4 7 1 -2
BITMAP
90
90
90
90
70
40
20
ENDCHAR
STARTCHAR uni0077
ENCODING 372
SWIDTH 230 0
DWIDTH 5 0
BBX 4 10 1 0
BITMAP
20
50
00
90
90
90
90
90
F0
90
ENDCHAR
STARTCHAR uni0077
ENCODING 373
SWIDTH 230 0
DWIDTH 5 0
BBX 4 8 1 0
BITMAP
20
50
00
90
90
90
F0
90
ENDCHAR
STARTCHAR uni0059
ENCODING 374
SWIDTH 230 0
DWIDTH 5 0
BBX 5 10 0 0
BITMAP
20
50
00
88
50
20
20
20
20
20
ENDCHAR
STARTCHAR uni0079
ENCODING 375
SWIDTH 230 0
DWIDTH 5 0
BBX 4 10 1 -2
BITMAP
20
50
00
90
90
90
90
70
10
60
ENDCHAR
STARTCHAR uni0059
ENCODING 376
SWIDTH 230 0
DWIDTH 5 0
BBX 5 9 0 0
BITMAP
50
00
88
50
20
20
20
20
20
ENDCHAR
STARTCHAR uni005A
ENCODING 377
SWIDTH 230 0
DWIDTH 5 0
BBX 4 10 1 0
BITMAP
20
40
00
F0
10
20
40
80
80
F0
ENDCHAR
STARTCHAR uni007A
ENCODING 378
SWIDTH 230 0
DWIDTH 5 0
BBX 4 8 1 0
BITMAP
20
40
00
F0
20
40
80
F0
ENDCHAR
STARTCHAR uni005A
ENCODING 379
SWIDTH 230 0
DWIDTH 5 0
BBX 4 9 1 0
BITMAP
20
00
F0
10
20
40
80
80
F0
ENDCHAR
STARTCHAR uni007A
ENCODING 380
SWIDTH 230 0
DWIDTH 5 0
BBX 4 7 1 0
BITMAP
20
00
F0
20
40
80
F0
ENDCHAR
STARTCHAR uni005A
ENCODING 381
SWIDTH 230 0
DWIDTH 5 0
BBX 4 10 1 0
BITMAP
50
20
00
F0
10
20
40
80
80
F0
ENDCHAR
STARTCHAR uni007A
ENCODING 382
SWIDTH 230 0
DWIDTH 5 0
BBX 4 8 1 0
BITMAP
50
20
00
F0
20
40
80
F0
ENDCHAR
STARTCHAR LATIN
ENCODING 383
SWIDTH 230 0
DWIDTH 5 0
BBX 4 7 1 0
BITMAP
30
40
C0
40
40
40
40
ENDCHAR
STARTCHAR uni0062
ENCODING 384
SWIDTH 230 0
DWIDTH 5 0
BBX 5 7 0 0
BITMAP
E0
40
70
48
48
48
70
ENDCHAR
STARTCHAR uni0042
ENCODING 385
SWIDTH 230 0
DWIDTH 5 0
BBX 5 7 0 0
BITMAP
F0
48
48
70
48
48
70
ENDCHAR
STARTCHAR uni0042
ENCODING 386
SWIDTH 230 0
DWIDTH 5 0
BBX 5 8 1 0
BITMAP
E0
A0
80
F0
88
88
88
F0
ENDCHAR
STARTCHAR uni0042
ENCODING 387
SWIDTH 230 0
DWIDTH 5 0
BBX 4 8 1 0
BITMAP
E0
A0
80
E0
90
90
90
E0
ENDCHAR
STARTCHAR uni0062
ENCODING 388
SWIDTH 230 0
DWIDTH 5 0
BBX 6 7 0 0
BITMAP
40
C0
78
44
44
44
78
ENDCHAR
STARTCHAR uni0062
ENCODING 389
SWIDTH 230 0
DWIDTH 5 0
BBX 5 7 0 0
BITMAP
40
C0
70
48
48
48
70
ENDCHAR
STARTCHAR uni0043
ENCODING 390
SWIDTH 230 0
DWIDTH 5 0
BBX 4 7 1 0
BITMAP
60
90
10
10
10
90
60
ENDCHAR
STARTCHAR uni0043
ENCODING 391
SWIDTH 230 0
DWIDTH 5 0
BBX 5 8 1 0
BITMAP
08
60
90
80
80
80
90
60
ENDCHAR
STARTCHAR uni0063
ENCODING 392
SWIDTH 230 0
DWIDTH 5 0
BBX 4 5 1 0
BITMAP
60
90
80
80
70
ENDCHAR
STARTCHAR uni0044
ENCODING 393
SWIDTH 230 0
DWIDTH 5 0
BBX 5 7 0 0
BITMAP
70
48
48
E8
48
48
70
ENDCHAR
STARTCHAR uni0044
ENCODING 394
SWIDTH 230 0
DWIDTH 5 0
BBX 6 7 -1 0
BITMAP
78
A4
24
24
24
24
38
ENDCHAR
STARTCHAR uni0042
ENCODING 395
SWIDTH 230 0
DWIDTH 5 0
BBX 5 8 1 0
BITMAP
38
28
08
78
88
88
98
68
ENDCHAR
STARTCHAR uni0042
ENCODING 396
SWIDTH 230 0
DWIDTH 5 0
BBX 4 8 1 0
BITMAP
70
50
10
70
90
90
B0
50
ENDCHAR
STARTCHAR uni0045
ENCODING 398
SWIDTH 230 0
DWIDTH 5 0
BBX 5 6 0 0
BITMAP
78
88
38
08
08
78
ENDCHAR
STARTCHAR uni0065
ENCODING 399
SWIDTH 230 0
DWIDTH 5 0
BBX 4 5 1 0
BITMAP
E0
10
F0
90
60
ENDCHAR
STARTCHAR char1028
ENCODING 400
SWIDTH 230 0
DWIDTH 5 0
BBX 4 6 1 0
BITMAP
60
90
40
80
90
60
ENDCHAR
STARTCHAR uni0066
ENCODING 402
SWIDTH 230 0
DWIDTH 5 0
BBX 4 8 1 -1
BITMAP
30
40
60
40
40
40
40
80
ENDCHAR
STARTCHAR uni0047
ENCODING 403
SWIDTH 230 0
DWIDTH 5 0
BBX 7 6 1 0
BITMAP
76
8A
80
B0
90
70
ENDCHAR
STARTCHAR uni0049
ENCODING 407
SWIDTH 230 0
DWIDTH 5 0
BBX 3 8 1 0
BITMAP
E0
00
E0
40
40
40
40
E0
ENDCHAR
STARTCHAR uni0049
ENCODING 410
SWIDTH 230 0
DWIDTH 5 0
BBX 3 7 1 0
BITMAP
C0
40
40
E0
40
40
40
ENDCHAR
STARTCHAR uni006E
ENCODING 414
SWIDTH 230 0
DWIDTH 5 0
BBX 4 6 1 -1
BITMAP
E0
90
90
90
90
10
ENDCHAR
STARTCHAR GREEK
ENCODING 415
SWIDTH 230 0
DWIDTH 5 0
BBX 4 5 0 0
BITMAP
60
90
F0
90
60
ENDCHAR
STARTCHAR uni004F
ENCODING 416
SWIDTH 230 0
DWIDTH 5 0
BBX 6 8 1 0
BITMAP
04
04
68
90
90
90
90
60
ENDCHAR
STARTCHAR uni006F
ENCODING 417
SWIDTH 230 0
DWIDTH 5 0
BBX 6 8 1 0
BITMAP
04
04
08
60
90
90
90
60
ENDCHAR
STARTCHAR uni004F
ENCODING 418
SWIDTH 230 0
DWIDTH 5 0
BBX 6 7 1 0
BITMAP
08
64
94
94
94
94
64
ENDCHAR
STARTCHAR uni006F
ENCODING 419
SWIDTH 230 0
DWIDTH 5 0
BBX 6 6 1 0
BITMAP
08
64
94
94
94
64
ENDCHAR
STARTCHAR uni0050
ENCODING 420
SWIDTH 230 0
DWIDTH 5 0
BBX 6 6 -1 0
BITMAP
F8
A4
24
38
20
20
ENDCHAR
STARTCHAR uni0070
ENCODING 421
SWIDTH 230 0
DWIDTH 5 0
BBX 6 9 1 -2
BITMAP
0C
14
E0
90
90
90
E0
80
80
ENDCHAR
STARTCHAR uni0053
ENCODING 423
SWIDTH 230 0
DWIDTH 5 0
BBX 4 6 1 0
BITMAP
E0
10
60
80
80
70
ENDCHAR
STARTCHAR uni0073
ENCODING 424
SWIDTH 230 0
DWIDTH 5 0
BBX 4 5 1 0
BITMAP
E0
10
60
80
70
ENDCHAR
STARTCHAR GREEK
ENCODING 425
SWIDTH 230 0
DWIDTH 5 0
BBX 5 6 0 0
BITMAP
F8
48
20
40
88
F8
ENDCHAR
STARTCHAR uni0074
ENCODING 427
SWIDTH 230 0
DWIDTH 5 0
BBX 3 7 1 -1
BITMAP
40
E0
40
40
40
20
40
ENDCHAR
STARTCHAR uni0054
ENCODING 428
SWIDTH 230 0
DWIDTH 5 0
BBX 5 6 0 0
BITMAP
F8
28
20
20
20
20
ENDCHAR
STARTCHAR uni0054
ENCODING 430
SWIDTH 230 0
DWIDTH 5 0
BBX 5 6 0 0
BITMAP
F8
A8
20
20
20
20
ENDCHAR
STARTCHAR GREEK
ENCODING 480
SWIDTH 230 0
DWIDTH 5 0
BBX 5 5 1 0
BITMAP
F8
50
50
50
50
ENDCHAR
STARTCHAR uni0061
ENCODING 592
SWIDTH 230 0
DWIDTH 5 0
BBX 4 5 1 0
BITMAP
A0
D0
90
90
E0
ENDCHAR
STARTCHAR uni0061
ENCODING 593
SWIDTH 230 0
DWIDTH 5 0
BBX 4 5 1 0
BITMAP
50
B0
90
B0
50
ENDCHAR
STARTCHAR uni0061
ENCODING 594
SWIDTH 230 0
DWIDTH 5 0
BBX 4 5 1 0
BITMAP
A0
D0
90
D0
A0
ENDCHAR
STARTCHAR uni0062
ENCODING 595
SWIDTH 230 0
DWIDTH 5 0
BBX 4 7 1 0
BITMAP
80
80
E0
90
90
90
E0
ENDCHAR
STARTCHAR uni0063
ENCODING 596
SWIDTH 230 0
DWIDTH 5 0
BBX 4 5 1 0
BITMAP
60
90
80
90
60
ENDCHAR
STARTCHAR uni0063
ENCODING 597
SWIDTH 230 0
DWIDTH 5 0
BBX 4 5 1 0
BITMAP
60
90
80
B0
60
ENDCHAR
STARTCHAR uni0064
ENCODING 598
SWIDTH 230 0
DWIDTH 5 0
BBX 5 8 1 -1
BITMAP
10
10
70
90
90
B0
50
08
ENDCHAR
STARTCHAR uni0064
ENCODING 599
SWIDTH 230 0
DWIDTH 5 0
BBX 5 8 1 0
BITMAP
08
10
10
70
90
90
B0
50
ENDCHAR
STARTCHAR uni0065
ENCODING 600
SWIDTH 230 0
DWIDTH 5 0
BBX 4 5 1 0
BITMAP
60
90
F0
10
E0
ENDCHAR
STARTCHAR uni0065
ENCODING 601
SWIDTH 230 0
DWIDTH 5 0
BBX 4 5 1 0
BITMAP
E0
10
F0
90
60
ENDCHAR
STARTCHAR uni0065
ENCODING 602
SWIDTH 230 0
DWIDTH 5 0
BBX 5 5 1 0
BITMAP
E8
10
F0
90
60
ENDCHAR
STARTCHAR uni0033
ENCODING 603
SWIDTH 230 0
DWIDTH 5 0
BBX 4 6 1 0
BITMAP
70
80
60
80
80
70
ENDCHAR
STARTCHAR uni0033
ENCODING 604
SWIDTH 230 0
DWIDTH 5 0
BBX 4 6 1 0
BITMAP
E0
10
60
10
10
E0
ENDCHAR
STARTCHAR uni0033
ENCODING 605
SWIDTH 230 0
DWIDTH 5 0
BBX 5 6 1 0
BITMAP
E8
10
60
10
10
E0
ENDCHAR
STARTCHAR char223
ENCODING 606
SWIDTH 230 0
DWIDTH 5 0
BBX 4 6 1 0
BITMAP
60
90
A0
90
90
60
ENDCHAR
STARTCHAR uni006A
ENCODING 607
SWIDTH 230 0
DWIDTH 5 0
BBX 4 7 1 -2
BITMAP
60
20
30
60
20
20
C0
ENDCHAR
STARTCHAR uni0067
ENCODING 608
SWIDTH 230 0
DWIDTH 5 0
BBX 5 8 1 -2
BITMAP
08
70
90
90
B0
50
10
60
ENDCHAR
STARTCHAR uni0067
ENCODING 609
SWIDTH 230 0
DWIDTH 5 0
BBX 4 7 1 -2
BITMAP
70
90
90
B0
50
10
60
ENDCHAR
STARTCHAR uni0047
ENCODING 610
SWIDTH 230 0
DWIDTH 5 0
BBX 4 5 1 0
BITMAP
70
80
B0
90
70
ENDCHAR
STARTCHAR uni0076
ENCODING 611
SWIDTH 230 0
DWIDTH 5 0
BBX 4 7 1 -2
BITMAP
90
90
90
60
60
90
60
ENDCHAR
STARTCHAR uni0076
ENCODING 612
SWIDTH 230 0
DWIDTH 5 0
BBX 6 7 0 -2
BITMAP
84
48
48
30
30
48
30
ENDCHAR
STARTCHAR uni0068
ENCODING 613
SWIDTH 230 0
DWIDTH 5 0
BBX 4 7 1 0
BITMAP
90
90
90
90
70
10
10
ENDCHAR
STARTCHAR uni0068
ENCODING 614
SWIDTH 230 0
DWIDTH 5 0
BBX 4 8 1 0
BITMAP
60
80
80
E0
90
90
90
90
ENDCHAR
STARTCHAR uni0068
ENCODING 615
SWIDTH 230 0
DWIDTH 5 0
BBX 4 9 1 -1
BITMAP
60
80
80
E0
90
90
90
90
20
ENDCHAR
STARTCHAR uni0069
ENCODING 616
SWIDTH 230 0
DWIDTH 5 0
BBX 3 7 2 0
BITMAP
40
00
C0
40
E0
40
40
ENDCHAR
STARTCHAR uni0069
ENCODING 617
SWIDTH 230 0
DWIDTH 5 0
BBX 3 6 2 -1
BITMAP
C0
40
40
40
40
20
ENDCHAR
STARTCHAR uni0069
ENCODING 618
SWIDTH 230 0
DWIDTH 5 0
BBX 3 5 1 0
BITMAP
E0
40
40
40
E0
ENDCHAR
STARTCHAR uni006C
ENCODING 619
SWIDTH 230 0
DWIDTH 5 0
BBX 5 7 1 0
BITMAP
60
20
20
68
B0
20
20
ENDCHAR
STARTCHAR uni006C
ENCODING 620
SWIDTH 230 0
DWIDTH 5 0
BBX 4 7 1 0
BITMAP
60
20
60
A0
70
20
20
ENDCHAR
STARTCHAR uni006C
ENCODING 621
SWIDTH 230 0
DWIDTH 5 0
BBX 3 8 2 -1
BITMAP
C0
40
40
40
40
40
40
20
ENDCHAR
STARTCHAR LATIN
ENCODING 622
SWIDTH 230 0
DWIDTH 5 0
BBX 5 8 0 -1
BITMAP
80
F8
88
90
B0
88
48
30
ENDCHAR
STARTCHAR uni006D
ENCODING 623
SWIDTH 230 0
DWIDTH 5 0
BBX 4 5 1 0
BITMAP
90
90
90
F0
90
ENDCHAR
STARTCHAR uni006D
ENCODING 624
SWIDTH 230 0
DWIDTH 5 0
BBX 4 6 1 -1
BITMAP
90
90
90
F0
90
10
ENDCHAR
STARTCHAR uni006D
ENCODING 625
SWIDTH 230 0
DWIDTH 5 0
BBX 4 6 1 -1
BITMAP
90
F0
B0
90
90
20
ENDCHAR
STARTCHAR uni006E
ENCODING 626
SWIDTH 230 0
DWIDTH 5 0
BBX 5 6 0 -1
BITMAP
70
48
48
48
48
80
ENDCHAR
STARTCHAR uni006E
ENCODING 627
SWIDTH 230 0
DWIDTH 5 0
BBX 5 6 1 -1
BITMAP
E0
90
90
90
90
08
ENDCHAR
STARTCHAR GREEK
ENCODING 628
SWIDTH 230 0
DWIDTH 5 0
BBX 4 5 1 0
BITMAP
90
D0
B0
90
90
ENDCHAR
STARTCHAR LATIN
ENCODING 629
SWIDTH 230 0
DWIDTH 5 0
BBX 4 5 1 0
BITMAP
60
90
F0
90
60
ENDCHAR
STARTCHAR char230
ENCODING 630
SWIDTH 230 0
DWIDTH 5 0
BBX 6 5 1 0
BITMAP
78
94
9C
90
7C
ENDCHAR
STARTCHAR GREEK
ENCODING 631
SWIDTH 230 0
DWIDTH 5 0
BBX 5 5 0 0
BITMAP
70
88
88
A8
D8
ENDCHAR
STARTCHAR GREEK
ENCODING 632
SWIDTH 230 0
DWIDTH 5 0
BBX 5 7 0 0
BITMAP
20
70
A8
A8
A8
70
20
ENDCHAR
STARTCHAR uni0072
ENCODING 633
SWIDTH 230 0
DWIDTH 5 0
BBX 4 5 1 0
BITMAP
10
10
10
30
D0
ENDCHAR
STARTCHAR uni0072
ENCODING 634
SWIDTH 230 0
DWIDTH 5 0
BBX 4 6 1 0
BITMAP
10
10
10
10
30
D0
ENDCHAR
STARTCHAR uni0072
ENCODING 635
SWIDTH 230 0
DWIDTH 5 0
BBX 5 6 1 -1
BITMAP
10
10
10
30
D0
08
ENDCHAR
STARTCHAR uni0072
ENCODING 636
SWIDTH 230 0
DWIDTH 5 0
BBX 4 6 1 0
BITMAP
B0
C0
80
80
80
80
ENDCHAR
STARTCHAR uni0072
ENCODING 637
SWIDTH 230 0
DWIDTH 5 0
BBX 4 7 1 -1
BITMAP
B0
C0
80
80
80
80
40
ENDCHAR
STARTCHAR uni0072
ENCODING 638
SWIDTH 230 0
DWIDTH 5 0
BBX 4 5 1 0
BITMAP
60
90
80
80
80
ENDCHAR
STARTCHAR uni0072
ENCODING 639
SWIDTH 230 0
DWIDTH 5 0
BBX 4 5 1 0
BITMAP
60
90
10
10
10
ENDCHAR
STARTCHAR char1071
ENCODING 640
SWIDTH 230 0
DWIDTH 5 0
BBX 4 6 1 0
BITMAP
70
90
90
70
90
90
ENDCHAR
STARTCHAR char1071
ENCODING 641
SWIDTH 230 0
DWIDTH 5 0
BBX 4 6 1 0
BITMAP
90
90
E0
90
90
E0
ENDCHAR
STARTCHAR uni0073
ENCODING 642
SWIDTH 230 0
DWIDTH 5 0
BBX 4 7 1 -2
BITMAP
70
80
60
10
E0
80
40
ENDCHAR
STARTCHAR uni0066
ENCODING 643
SWIDTH 230 0
DWIDTH 5 0
BBX 5 8 0 -1
BITMAP
18
20
20
20
20
20
20
C0
ENDCHAR
STARTCHAR uni0066
ENCODING 644
SWIDTH 230 0
DWIDTH 5 0
BBX 5 8 0 -1
BITMAP
18
20
20
70
20
20
20
C0
ENDCHAR
STARTCHAR uni0066
ENCODING 645
SWIDTH 230 0
DWIDTH 5 0
BBX 3 7 1 -1
BITMAP
80
40
40
40
40
40
20
ENDCHAR
STARTCHAR uni0066
ENCODING 646
SWIDTH 230 0
DWIDTH 5 0
BBX 5 8 0 -1
BITMAP
10
20
20
20
20
60
B0
48
ENDCHAR
STARTCHAR uni0066
ENCODING 647
SWIDTH 230 0
DWIDTH 5 0
BBX 4 7 1 0
BITMAP
C0
20
20
70
20
20
20
ENDCHAR
STARTCHAR uni0075
ENCODING 648
SWIDTH 230 0
DWIDTH 5 0
BBX 4 5 1 0
BITMAP
90
F0
90
90
70
ENDCHAR
STARTCHAR uni0075
ENCODING 649
SWIDTH 230 0
DWIDTH 5 0
BBX 4 5 1 0
BITMAP
90
60
90
90
70
ENDCHAR
STARTCHAR uni0076
ENCODING 650
SWIDTH 230 0
DWIDTH 5 0
BBX 4 5 1 0
BITMAP
A0
90
90
60
60
ENDCHAR
STARTCHAR uni0076
ENCODING 651
SWIDTH 230 0
DWIDTH 5 0
BBX 4 5 1 0
BITMAP
60
60
90
90
90
ENDCHAR
STARTCHAR uni0076
ENCODING 652
SWIDTH 230 0
DWIDTH 5 0
BBX 6 5 0 0
BITMAP
30
30
48
48
84
ENDCHAR
STARTCHAR uni006D
ENCODING 653
SWIDTH 230 0
DWIDTH 5 0
BBX 4 5 1 0
BITMAP
90
F0
B0
90
90
ENDCHAR
STARTCHAR uni0079
ENCODING 654
SWIDTH 230 0
DWIDTH 5 0
BBX 4 7 1 -2
BITMAP
60
80
E0
90
90
90
90
ENDCHAR
STARTCHAR uni0059
ENCODING 655
SWIDTH 230 0
DWIDTH 5 0
BBX 5 4 0 0
BITMAP
88
50
20
20
ENDCHAR
STARTCHAR uni007A
ENCODING 656
SWIDTH 230 0
DWIDTH 5 0
BBX 4 7 1 -2
BITMAP
F0
20
40
80
F0
10
20
ENDCHAR
STARTCHAR uni007A
ENCODING 657
SWIDTH 230 0
DWIDTH 5 0
BBX 4 6 1 -1
BITMAP
F0
20
40
A0
F0
20
ENDCHAR
STARTCHAR uni007A
ENCODING 658
SWIDTH 230 0
DWIDTH 5 0
BBX 4 7 1 -2
BITMAP
F0
20
40
20
10
90
60
ENDCHAR
STARTCHAR uni007A
ENCODING 659
SWIDTH 230 0
DWIDTH 5 0
BBX 4 7 1 -2
BITMAP
F0
20
40
20
50
B0
60
ENDCHAR
STARTCHAR LATIN
ENCODING 660
SWIDTH 230 0
DWIDTH 5 0
BBX 5 7 0 0
BITMAP
70
88
08
10
20
20
20
ENDCHAR
STARTCHAR LATIN
ENCODING 661
SWIDTH 230 0
DWIDTH 5 0
BBX 5 7 0 0
BITMAP
70
88
80
40
20
20
20
ENDCHAR
STARTCHAR LATIN
ENCODING 662
SWIDTH 230 0
DWIDTH 5 0
BBX 5 7 0 0
BITMAP
20
20
20
10
08
88
70
ENDCHAR
STARTCHAR uni0043
ENCODING 663
SWIDTH 230 0
DWIDTH 5 0
BBX 4 7 1 -1
BITMAP
70
80
80
80
80
80
70
ENDCHAR
STARTCHAR LATIN
ENCODING 664
SWIDTH 230 0
DWIDTH 5 0
BBX 5 5 0 0
BITMAP
70
88
A8
88
70
ENDCHAR
STARTCHAR LATIN
ENCODING 665
SWIDTH 230 0
DWIDTH 5 0
BBX 4 5 1 0
BITMAP
E0
90
E0
90
E0
ENDCHAR
STARTCHAR LATIN
ENCODING 666
SWIDTH 230 0
DWIDTH 5 0
BBX 4 5 1 0
BITMAP
60
90
70
90
60
ENDCHAR
STARTCHAR uni0047
ENCODING 667
SWIDTH 230 0
DWIDTH 5 0
BBX 5 6 1 0
BITMAP
08
70
80
B0
90
70
ENDCHAR
STARTCHAR uni0048
ENCODING 668
SWIDTH 230 0
DWIDTH 5 0
BBX 4 5 1 0
BITMAP
90
90
F0
90
90
ENDCHAR
STARTCHAR uni006A
ENCODING 669
SWIDTH 230 0
DWIDTH 5 0
BBX 4 9 1 -2
BITMAP
20
00
60
20
20
20
70
A0
C0
ENDCHAR
STARTCHAR uni006B
ENCODING 670
SWIDTH 230 0
DWIDTH 5 0
BBX 4 7 1 0
BITMAP
90
90
70
50
90
10
10
ENDCHAR
STARTCHAR LATIN
ENCODING 671
SWIDTH 230 0
DWIDTH 5 0
BBX 4 5 1 0
BITMAP
80
80
80
80
F0
ENDCHAR
STARTCHAR uni0071
ENCODING 672
SWIDTH 230 0
DWIDTH 5 0
BBX 5 8 1 -2
BITMAP
08
70
90
90
90
70
10
10
ENDCHAR
STARTCHAR LATIN
ENCODING 673
SWIDTH 230 0
DWIDTH 5 0
BBX 5 7 0 0
BITMAP
70
88
08
10
20
70
20
ENDCHAR
STARTCHAR LATIN
ENCODING 674
SWIDTH 230 0
DWIDTH 5 0
BBX 5 7 0 0
BITMAP
70
88
80
40
20
70
20
ENDCHAR
STARTCHAR LATIN
ENCODING 675
SWIDTH 230 0
DWIDTH 5 0
BBX 6 7 0 0
BITMAP
20
20
7C
A4
A8
B0
7C
ENDCHAR
STARTCHAR LATIN
ENCODING 676
SWIDTH 230 0
DWIDTH 5 0
BBX 6 8 0 -1
BITMAP
20
20
7C
A4
A8
A4
74
08
ENDCHAR
STARTCHAR LATIN
ENCODING 677
SWIDTH 230 0
DWIDTH 5 0
BBX 6 8 0 -1
BITMAP
20
20
7C
A4
A8
B4
7C
10
ENDCHAR
STARTCHAR LATIN
ENCODING 678
SWIDTH 230 0
DWIDTH 5 0
BBX 6 6 0 0
BITMAP
40
FC
60
58
44
38
ENDCHAR
STARTCHAR LATIN
ENCODING 679
SWIDTH 230 0
DWIDTH 5 0
BBX 5 9 0 -2
BITMAP
08
50
F0
50
50
50
30
10
20
ENDCHAR
STARTCHAR LATIN
ENCODING 680
SWIDTH 230 0
DWIDTH 5 0
BBX 6 7 0 -1
BITMAP
40
EC
50
58
54
3C
10
ENDCHAR
STARTCHAR LATIN
ENCODING 681
SWIDTH 230 0
DWIDTH 5 0
BBX 6 9 0 -2
BITMAP
20
40
40
F8
54
54
54
08
10
ENDCHAR
STARTCHAR LATIN
ENCODING 682
SWIDTH 230 0
DWIDTH 5 0
BBX 5 7 0 0
BITMAP
80
80
B8
C0
B0
88
F0
ENDCHAR
STARTCHAR LATIN
ENCODING 683
SWIDTH 230 0
DWIDTH 5 0
BBX 5 7 0 0
BITMAP
80
80
F8
90
A0
C0
F8
ENDCHAR
STARTCHAR LATIN
ENCODING 684
SWIDTH 230 0
DWIDTH 5 0
BBX 5 6 0 0
BITMAP
A8
A8
50
A8
A8
50
ENDCHAR
STARTCHAR LATIN
ENCODING 685
SWIDTH 230 0
DWIDTH 5 0
BBX 5 5 0 0
BITMAP
F8
88
00
F8
88
ENDCHAR
STARTCHAR uni0068
ENCODING 686
SWIDTH 230 0
DWIDTH 5 0
BBX 5 7 0 0
BITMAP
88
48
48
48
38
08
08
ENDCHAR
STARTCHAR uni0068
ENCODING 687
SWIDTH 230 0
DWIDTH 5 0
BBX 6 8 0 -1
BITMAP
88
48
48
48
38
08
08
04
ENDCHAR
STARTCHAR uni003C
ENCODING 706
SWIDTH 230 0
DWIDTH 5 0
BBX 3 5 1 0
BITMAP
20
40
80
40
20
ENDCHAR
STARTCHAR uni003C
ENCODING 707
SWIDTH 230 0
DWIDTH 5 0
BBX 3 5 1 0
BITMAP
80
40
20
40
80
ENDCHAR
STARTCHAR uni005E
ENCODING 708
SWIDTH 230 0
DWIDTH 5 0
BBX 5 3 0 2
BITMAP
88
50
20
ENDCHAR
STARTCHAR uni005E
ENCODING 709
SWIDTH 230 0
DWIDTH 5 0
BBX 5 3 0 2
BITMAP
20
50
88
ENDCHAR
STARTCHAR MODIFIER
ENCODING 710
SWIDTH 230 0
DWIDTH 5 0
BBX 5 3 0 5
BITMAP
20
50
88
ENDCHAR
STARTCHAR CARON
ENCODING 711
SWIDTH 230 0
DWIDTH 5 0
BBX 5 3 0 6
BITMAP
88
50
20
ENDCHAR
STARTCHAR MODIFIER
ENCODING 712
SWIDTH 230 0
DWIDTH 5 0
BBX 1 2 2 5
BITMAP
80
80
ENDCHAR
STARTCHAR MODIFIER
ENCODING 713
SWIDTH 230 0
DWIDTH 5 0
BBX 2 1 1 6
BITMAP
C0
ENDCHAR
STARTCHAR MODIFIER
ENCODING 714
SWIDTH 230 0
DWIDTH 5 0
BBX 2 2 2 5
BITMAP
40
80
ENDCHAR
STARTCHAR MODIFIER
ENCODING 715
SWIDTH 230 0
DWIDTH 5 0
BBX 2 2 2 5
BITMAP
80
40
ENDCHAR
STARTCHAR BREVE
ENCODING 728
SWIDTH 230 0
DWIDTH 5 0
BBX 5 2 1 6
BITMAP
88
70
ENDCHAR
STARTCHAR DOT
ENCODING 729
SWIDTH 230 0
DWIDTH 5 0
BBX 2 2 2 7
BITMAP
C0
C0
ENDCHAR
STARTCHAR RING
ENCODING 730
SWIDTH 230 0
DWIDTH 5 0
BBX 3 3 1 5
BITMAP
40
A0
40
ENDCHAR
STARTCHAR OGONEK
ENCODING 731
SWIDTH 230 0
DWIDTH 5 0
BBX 2 3 2 -2
BITMAP
40
80
40
ENDCHAR
STARTCHAR SMALL
ENCODING 732
SWIDTH 230 0
DWIDTH 5 0
BBX 5 2 0 6
BITMAP
68
B0
ENDCHAR
STARTCHAR DOUBLE
ENCODING 733
SWIDTH 230 0
DWIDTH 5 0
BBX 4 3 1 6
BITMAP
50
50
A0
ENDCHAR
STARTCHAR MODIFIER
ENCODING 750
SWIDTH 230 0
DWIDTH 5 0
BBX 4 3 1 4
BITMAP
90
90
90
ENDCHAR
STARTCHAR COMBINING
ENCODING 835
SWIDTH 230 0
DWIDTH 5 0
BBX 2 4 1 3
BITMAP
40
40
40
80
ENDCHAR
STARTCHAR COMBINING
ENCODING 860
SWIDTH 230 0
DWIDTH 5 0
BBX 5 2 0 -1
BITMAP
88
70
ENDCHAR
STARTCHAR COMBINING
ENCODING 865
SWIDTH 230 0
DWIDTH 5 0
BBX 5 2 0 7
BITMAP
70
88
ENDCHAR
STARTCHAR GREEK
ENCODING 880
SWIDTH 230 0
DWIDTH 5 0
BBX 4 7 0 0
BITMAP
80
80
80
F0
80
80
80
ENDCHAR
STARTCHAR GREEK
ENCODING 881
SWIDTH 230 0
DWIDTH 5 0
BBX 5 6 0 0
BITMAP
80
40
40
78
40
40
ENDCHAR
STARTCHAR GREEK
ENCODING 882
SWIDTH 230 0
DWIDTH 5 0
BBX 5 6 0 0
BITMAP
F8
A8
20
20
20
20
ENDCHAR
STARTCHAR GREEK
ENCODING 883
SWIDTH 230 0
DWIDTH 5 0
BBX 5 5 0 0
BITMAP
F8
A8
20
20
20
ENDCHAR
STARTCHAR GREEK
ENCODING 884
SWIDTH 230 0
DWIDTH 5 0
BBX 3 2 1 6
BITMAP
60
C0
ENDCHAR
STARTCHAR GREEK
ENCODING 885
SWIDTH 230 0
DWIDTH 5 0
BBX 4 3 0 -1
BITMAP
30
60
C0
ENDCHAR
STARTCHAR uni004E
ENCODING 886
SWIDTH 230 0
DWIDTH 5 0
BBX 4 6 1 0
BITMAP
90
B0
B0
D0
D0
90
ENDCHAR
STARTCHAR GREEK
ENCODING 887
SWIDTH 230 0
DWIDTH 5 0
BBX 5 6 1 -1
BITMAP
90
B0
D0
90
90
08
ENDCHAR
STARTCHAR GREEK
ENCODING 890
SWIDTH 230 0
DWIDTH 5 0
BBX 2 2 1 -2
BITMAP
80
C0
ENDCHAR
STARTCHAR GREEK
ENCODING 891
SWIDTH 230 0
DWIDTH 5 0
BBX 5 5 0 0
BITMAP
70
88
08
88
70
ENDCHAR
STARTCHAR GREEK
ENCODING 892
SWIDTH 230 0
DWIDTH 5 0
BBX 5 5 0 0
BITMAP
70
88
A0
88
70
ENDCHAR
STARTCHAR GREEK
ENCODING 893
SWIDTH 230 0
DWIDTH 5 0
BBX 5 5 0 0
BITMAP
70
88
28
88
70
ENDCHAR
STARTCHAR uni003B
ENCODING 894
SWIDTH 230 0
DWIDTH 5 0
BBX 2 6 1 -1
BITMAP
40
40
00
40
40
80
ENDCHAR
STARTCHAR uni037F
ENCODING 895
SWIDTH 230 0
DWIDTH 5 0
BBX 6 3 0 1
BITMAP
FC
FC
FC
ENDCHAR
STARTCHAR uni037F
ENCODING 896
SWIDTH 230 0
DWIDTH 5 0
BBX 5 3 0 0
BITMAP
F8
F8
F8
ENDCHAR
STARTCHAR uni0380
ENCODING 897
SWIDTH 230 0
DWIDTH 5 0
BBX 5 3 0 0
BITMAP
A8
50
A8
ENDCHAR
STARTCHAR GREEK
ENCODING 900
SWIDTH 230 0
DWIDTH 5 0
BBX 2 3 2 5
BITMAP
40
C0
80
ENDCHAR
STARTCHAR GREEK
ENCODING 901
SWIDTH 230 0
DWIDTH 5 0
BBX 6 3 0 5
BITMAP
10
B4
20
ENDCHAR
STARTCHAR GREEK
ENCODING 902
SWIDTH 230 0
DWIDTH 5 0
BBX 4 9 1 0
BITMAP
20
40
00
60
90
90
F0
90
90
ENDCHAR
STARTCHAR GREEK
ENCODING 903
SWIDTH 230 0
DWIDTH 5 0
BBX 2 2 2 3
BITMAP
C0
C0
ENDCHAR
STARTCHAR char201
ENCODING 904
SWIDTH 230 0
DWIDTH 5 0
BBX 4 8 1 0
BITMAP
20
40
F0
80
E0
80
80
F0
ENDCHAR
STARTCHAR GREEK
ENCODING 905
SWIDTH 230 0
DWIDTH 5 0
BBX 5 7 0 0
BITMAP
20
48
C8
78
48
48
48
ENDCHAR
STARTCHAR GREEK
ENCODING 906
SWIDTH 230 0
DWIDTH 5 0
BBX 4 7 0 0
BITMAP
20
70
A0
20
20
20
70
ENDCHAR
STARTCHAR GREEK
ENCODING 908
SWIDTH 230 0
DWIDTH 5 0
BBX 5 8 0 0
BITMAP
40
80
30
48
48
48
48
30
ENDCHAR
STARTCHAR GREEK
ENCODING 910
SWIDTH 230 0
DWIDTH 5 0
BBX 5 7 0 0
BITMAP
40
A8
28
28
10
10
10
ENDCHAR
STARTCHAR GREEK
ENCODING 911
SWIDTH 230 0
DWIDTH 5 0
BBX 5 8 0 0
BITMAP
40
80
70
88
88
88
50
D8
ENDCHAR
STARTCHAR GREEK
ENCODING 912
SWIDTH 230 0
DWIDTH 5 0
BBX 6 9 0 0
BITMAP
10
B4
20
00
20
20
20
20
20
ENDCHAR
STARTCHAR GREEK
ENCODING 913
SWIDTH 230 0
DWIDTH 5 0
BBX 4 6 1 0
BITMAP
60
90
90
F0
90
90
ENDCHAR
STARTCHAR uni0042
ENCODING 914
SWIDTH 230 0
DWIDTH 5 0
BBX 4 6 1 0
BITMAP
E0
90
E0
90
90
E0
ENDCHAR
STARTCHAR GREEK
ENCODING 915
SWIDTH 230 0
DWIDTH 5 0
BBX 4 5 1 0
BITMAP
F0
80
80
80
80
ENDCHAR
STARTCHAR GREEK
ENCODING 916
SWIDTH 230 0
DWIDTH 5 0
BBX 5 6 0 0
BITMAP
20
20
50
50
88
F8
ENDCHAR
STARTCHAR uni0045
ENCODING 917
SWIDTH 230 0
DWIDTH 5 0
BBX 4 6 1 0
BITMAP
F0
80
E0
80
80
F0
ENDCHAR
STARTCHAR uni005A
ENCODING 918
SWIDTH 230 0
DWIDTH 5 0
BBX 4 6 1 0
BITMAP
F0
10
20
40
80
F0
ENDCHAR
STARTCHAR uni0048
ENCODING 919
SWIDTH 230 0
DWIDTH 5 0
BBX 4 6 1 0
BITMAP
90
90
F0
90
90
90
ENDCHAR
STARTCHAR GREEK
ENCODING 920
SWIDTH 230 0
DWIDTH 5 0
BBX 4 6 1 0
BITMAP
60
90
B0
D0
90
60
ENDCHAR
STARTCHAR GREEK
ENCODING 921
SWIDTH 230 0
DWIDTH 5 0
BBX 3 6 1 0
BITMAP
E0
40
40
40
40
E0
ENDCHAR
STARTCHAR uni004B
ENCODING 922
SWIDTH 230 0
DWIDTH 5 0
BBX 4 6 1 0
BITMAP
90
A0
C0
A0
90
90
ENDCHAR
STARTCHAR GREEK
ENCODING 923
SWIDTH 230 0
DWIDTH 5 0
BBX 5 6 0 0
BITMAP
20
20
50
50
88
88
ENDCHAR
STARTCHAR uni004D
ENCODING 924
SWIDTH 230 0
DWIDTH 5 0
BBX 4 6 1 0
BITMAP
90
F0
B0
90
90
90
ENDCHAR
STARTCHAR uni004E
ENCODING 925
SWIDTH 230 0
DWIDTH 5 0
BBX 4 6 1 0
BITMAP
90
D0
D0
B0
B0
90
ENDCHAR
STARTCHAR GREEK
ENCODING 926
SWIDTH 230 0
DWIDTH 5 0
BBX 5 5 0 0
BITMAP
F8
00
70
00
F8
ENDCHAR
STARTCHAR GREEK
ENCODING 927
SWIDTH 230 0
DWIDTH 5 0
BBX 4 6 1 0
BITMAP
60
90
90
90
90
60
ENDCHAR
STARTCHAR char1055
ENCODING 928
SWIDTH 230 0
DWIDTH 5 0
BBX 4 6 1 0
BITMAP
F0
90
90
90
90
90
ENDCHAR
STARTCHAR uni0050
ENCODING 929
SWIDTH 230 0
DWIDTH 5 0
BBX 4 6 1 0
BITMAP
E0
90
90
E0
80
80
ENDCHAR
STARTCHAR GREEK
ENCODING 931
SWIDTH 230 0
DWIDTH 5 0
BBX 5 6 0 0
BITMAP
F8
40
20
40
80
F8
ENDCHAR
STARTCHAR GREEK
ENCODING 932
SWIDTH 230 0
DWIDTH 5 0
BBX 5 6 0 0
BITMAP
F8
20
20
20
20
20
ENDCHAR
STARTCHAR uni0059
ENCODING 933
SWIDTH 230 0
DWIDTH 5 0
BBX 5 6 0 0
BITMAP
88
88
50
20
20
20
ENDCHAR
STARTCHAR GREEK
ENCODING 934
SWIDTH 230 0
DWIDTH 5 0
BBX 5 7 0 0
BITMAP
20
70
A8
A8
A8
70
20
ENDCHAR
STARTCHAR uni0058
ENCODING 935
SWIDTH 230 0
DWIDTH 5 0
BBX 4 6 1 0
BITMAP
90
90
60
90
90
90
ENDCHAR
STARTCHAR GREEK
ENCODING 936
SWIDTH 230 0
DWIDTH 5 0
BBX 5 6 0 0
BITMAP
A8
A8
A8
70
20
20
ENDCHAR
STARTCHAR GREEK
ENCODING 937
SWIDTH 230 0
DWIDTH 5 0
BBX 5 6 0 0
BITMAP
70
88
88
88
50
D8
ENDCHAR
STARTCHAR GREEK
ENCODING 938
SWIDTH 230 0
DWIDTH 5 0
BBX 3 8 1 0
BITMAP
A0
00
40
40
40
40
40
40
ENDCHAR
STARTCHAR GREEK
ENCODING 939
SWIDTH 230 0
DWIDTH 5 0
BBX 5 8 0 0
BITMAP
50
00
88
88
50
20
20
20
ENDCHAR
STARTCHAR char225
ENCODING 940
SWIDTH 230 0
DWIDTH 5 0
BBX 4 8 1 0
BITMAP
20
40
00
70
90
90
B0
50
ENDCHAR
STARTCHAR GREEK
ENCODING 941
SWIDTH 230 0
DWIDTH 5 0
BBX 4 8 0 0
BITMAP
20
40
00
70
80
E0
80
70
ENDCHAR
STARTCHAR uni006E
ENCODING 942
SWIDTH 230 0
DWIDTH 5 0
BBX 4 9 1 -1
BITMAP
20
40
00
E0
90
90
90
90
10
ENDCHAR
STARTCHAR GREEK
ENCODING 943
SWIDTH 230 0
DWIDTH 5 0
BBX 3 8 1 0
BITMAP
20
40
00
C0
40
40
40
40
ENDCHAR
STARTCHAR GREEK
ENCODING 944
SWIDTH 230 0
DWIDTH 5 0
BBX 6 8 0 0
BITMAP
10
B4
20
48
48
48
48
38
ENDCHAR
STARTCHAR uni0061
ENCODING 945
SWIDTH 230 0
DWIDTH 5 0
BBX 4 5 1 0
BITMAP
70
90
90
B0
50
ENDCHAR
STARTCHAR char223
ENCODING 946
SWIDTH 230 0
DWIDTH 5 0
BBX 4 7 0 -1
BITMAP
60
90
A0
90
90
A0
80
ENDCHAR
STARTCHAR uni0076
ENCODING 947
SWIDTH 230 0
DWIDTH 5 0
BBX 4 7 1 -2
BITMAP
90
90
50
60
50
50
20
ENDCHAR
STARTCHAR GREEK
ENCODING 948
SWIDTH 230 0
DWIDTH 5 0
BBX 4 7 1 0
BITMAP
F0
80
60
90
90
90
60
ENDCHAR
STARTCHAR GREEK
ENCODING 949
SWIDTH 230 0
DWIDTH 5 0
BBX 4 5 0 0
BITMAP
70
80
E0
80
70
ENDCHAR
STARTCHAR GREEK
ENCODING 950
SWIDTH 230 0
DWIDTH 5 0
BBX 5 7 0 -1
BITMAP
F0
20
40
80
80
78
10
ENDCHAR
STARTCHAR GREEK
ENCODING 951
SWIDTH 230 0
DWIDTH 5 0
BBX 4 6 1 -1
BITMAP
E0
90
90
90
90
10
ENDCHAR
STARTCHAR GREEK
ENCODING 952
SWIDTH 230 0
DWIDTH 5 0
BBX 4 5 0 0
BITMAP
60
90
F0
90
60
ENDCHAR
STARTCHAR GREEK
ENCODING 953
SWIDTH 230 0
DWIDTH 5 0
BBX 2 5 2 0
BITMAP
C0
40
40
40
40
ENDCHAR
STARTCHAR uni006B
ENCODING 954
SWIDTH 230 0
DWIDTH 5 0
BBX 4 5 1 0
BITMAP
90
A0
E0
90
90
ENDCHAR
STARTCHAR GREEK
ENCODING 955
SWIDTH 230 0
DWIDTH 5 0
BBX 4 7 1 0
BITMAP
80
80
40
60
60
90
90
ENDCHAR
STARTCHAR uni0075
ENCODING 956
SWIDTH 230 0
DWIDTH 5 0
BBX 4 6 1 -1
BITMAP
90
90
90
90
E0
80
ENDCHAR
STARTCHAR uni0076
ENCODING 957
SWIDTH 230 0
DWIDTH 5 0
BBX 4 5 1 0
BITMAP
90
90
90
60
60
ENDCHAR
STARTCHAR GREEK
ENCODING 958
SWIDTH 230 0
DWIDTH 5 0
BBX 4 8 0 -2
BITMAP
60
90
40
80
80
60
10
20
ENDCHAR
STARTCHAR GREEK
ENCODING 959
SWIDTH 230 0
DWIDTH 5 0
BBX 4 5 1 0
BITMAP
60
90
90
90
60
ENDCHAR
STARTCHAR uni0070
ENCODING 961
SWIDTH 230 0
DWIDTH 5 0
BBX 4 8 1 -3
BITMAP
60
90
90
90
E0
80
80
80
ENDCHAR
STARTCHAR char231
ENCODING 962
SWIDTH 230 0
DWIDTH 5 0
BBX 4 7 1 -2
BITMAP
70
80
80
80
70
20
40
ENDCHAR
STARTCHAR char240
ENCODING 963
SWIDTH 230 0
DWIDTH 5 0
BBX 5 5 1 0
BITMAP
78
90
90
90
60
ENDCHAR
STARTCHAR GREEK
ENCODING 964
SWIDTH 230 0
DWIDTH 5 0
BBX 5 5 0 0
BITMAP
78
A0
20
20
10
ENDCHAR
STARTCHAR uni0075
ENCODING 965
SWIDTH 230 0
DWIDTH 5 0
BBX 4 5 1 0
BITMAP
90
90
90
90
70
ENDCHAR
STARTCHAR GREEK
ENCODING 966
SWIDTH 230 0
DWIDTH 5 0
BBX 5 7 1 -2
BITMAP
B0
A8
A8
A8
70
20
20
ENDCHAR
STARTCHAR uni0078
ENCODING 967
SWIDTH 230 0
DWIDTH 5 0
BBX 4 5 1 0
BITMAP
90
90
60
90
90
ENDCHAR
STARTCHAR GREEK
ENCODING 968
SWIDTH 230 0
DWIDTH 5 0
BBX 5 7 1 -2
BITMAP
A8
A8
A8
70
20
20
20
ENDCHAR
STARTCHAR GREEK
ENCODING 969
SWIDTH 230 0
DWIDTH 5 0
BBX 5 5 0 0
BITMAP
50
88
A8
A8
50
ENDCHAR
STARTCHAR GREEK
ENCODING 970
SWIDTH 230 0
DWIDTH 5 0
BBX 3 7 2 0
BITMAP
A0
00
C0
40
40
40
40
ENDCHAR
STARTCHAR char252
ENCODING 971
SWIDTH 230 0
DWIDTH 5 0
BBX 4 7 1 0
BITMAP
A0
00
90
90
90
90
70
ENDCHAR
STARTCHAR char243
ENCODING 972
SWIDTH 230 0
DWIDTH 5 0
BBX 4 8 1 0
BITMAP
10
20
00
60
90
90
90
60
ENDCHAR
STARTCHAR char250
ENCODING 973
SWIDTH 230 0
DWIDTH 5 0
BBX 4 8 1 0
BITMAP
20
40
00
90
90
90
90
70
ENDCHAR
STARTCHAR GREEK
ENCODING 974
SWIDTH 230 0
DWIDTH 5 0
BBX 5 8 0 0
BITMAP
20
40
00
50
88
A8
D8
88
ENDCHAR
STARTCHAR uni004B
ENCODING 975
SWIDTH 230 0
DWIDTH 5 0
BBX 4 7 1 -1
BITMAP
90
A0
C0
A0
90
90
20
ENDCHAR
STARTCHAR GREEK
ENCODING 976
SWIDTH 230 0
DWIDTH 5 0
BBX 4 6 0 0
BITMAP
60
90
E0
90
90
60
ENDCHAR
STARTCHAR GREEK
ENCODING 977
SWIDTH 230 0
DWIDTH 5 0
BBX 6 6 0 0
BITMAP
30
48
5C
E8
48
30
ENDCHAR
STARTCHAR uni0059
ENCODING 978
SWIDTH 230 0
DWIDTH 5 0
BBX 6 6 0 0
BITMAP
88
8C
50
20
20
20
ENDCHAR
STARTCHAR uni0059
ENCODING 979
SWIDTH 230 0
DWIDTH 5 0
BBX 6 7 0 0
BITMAP
40
88
8C
50
20
20
20
ENDCHAR
STARTCHAR uni0059
ENCODING 980
SWIDTH 230 0
DWIDTH 5 0
BBX 6 8 0 0
BITMAP
50
00
88
8C
50
20
20
20
ENDCHAR
STARTCHAR GREEK
ENCODING 981
SWIDTH 230 0
DWIDTH 5 0
BBX 5 9 0 -2
BITMAP
20
20
70
A8
A8
A8
70
20
20
ENDCHAR
STARTCHAR GREEK
ENCODING 982
SWIDTH 230 0
DWIDTH 5 0
BBX 5 5 0 0
BITMAP
F8
88
A8
D8
88
ENDCHAR
STARTCHAR uni0078
ENCODING 983
SWIDTH 230 0
DWIDTH 5 0
BBX 5 6 1 -1
BITMAP
90
90
60
90
98
20
ENDCHAR
STARTCHAR GREEK
ENCODING 984
SWIDTH 230 0
DWIDTH 5 0
BBX 5 8 0 -2
BITMAP
70
88
88
88
88
70
20
20
ENDCHAR
STARTCHAR GREEK
ENCODING 985
SWIDTH 230 0
DWIDTH 5 0
BBX 5 7 0 -2
BITMAP
70
88
88
88
70
20
20
ENDCHAR
STARTCHAR GREEK
ENCODING 986
SWIDTH 230 0
DWIDTH 5 0
BBX 5 8 1 -2
BITMAP
70
80
80
80
80
70
08
30
ENDCHAR
STARTCHAR GREEK
ENCODING 987
SWIDTH 230 0
DWIDTH 5 0
BBX 5 7 1 -2
BITMAP
70
80
80
80
70
08
30
ENDCHAR
STARTCHAR uni0046
ENCODING 988
SWIDTH 230 0
DWIDTH 5 0
BBX 4 6 1 0
BITMAP
F0
80
F0
90
80
80
ENDCHAR
STARTCHAR uni0046
ENCODING 989
SWIDTH 230 0
DWIDTH 5 0
BBX 4 6 1 -1
BITMAP
F0
80
E0
A0
80
80
ENDCHAR
STARTCHAR GREEK
ENCODING 990
SWIDTH 230 0
DWIDTH 5 0
BBX 6 6 0 -1
BITMAP
80
48
58
68
48
04
ENDCHAR
STARTCHAR GREEK
ENCODING 991
SWIDTH 230 0
DWIDTH 5 0
BBX 3 7 0 -1
BITMAP
20
40
80
E0
20
40
80
ENDCHAR
STARTCHAR GREEK
ENCODING 992
SWIDTH 230 0
DWIDTH 5 0
BBX 4 7 0 -1
BITMAP
40
20
60
90
30
50
10
ENDCHAR
STARTCHAR GREEK
ENCODING 993
SWIDTH 230 0
DWIDTH 5 0
BBX 4 7 0 -1
BITMAP
40
20
60
90
30
50
10
ENDCHAR
STARTCHAR COPTIC
ENCODING 994
SWIDTH 230 0
DWIDTH 5 0
BBX 5 7 1 -1
BITMAP
A8
A8
A8
A8
58
08
F0
ENDCHAR
STARTCHAR COPTIC
ENCODING 995
SWIDTH 230 0
DWIDTH 5 0
BBX 5 7 1 -2
BITMAP
A8
A8
A8
A8
58
08
F0
ENDCHAR
STARTCHAR COPTIC
ENCODING 996
SWIDTH 230 0
DWIDTH 5 0
BBX 4 7 0 0
BITMAP
50
90
90
70
10
10
10
ENDCHAR
STARTCHAR COPTIC
ENCODING 997
SWIDTH 230 0
DWIDTH 5 0
BBX 4 6 0 0
BITMAP
50
90
90
70
10
10
ENDCHAR
STARTCHAR COPTIC
ENCODING 998
SWIDTH 230 0
DWIDTH 5 0
BBX 4 9 0 -2
BITMAP
80
80
80
E0
90
90
90
10
E0
ENDCHAR
STARTCHAR COPTIC
ENCODING 999
SWIDTH 230 0
DWIDTH 5 0
BBX 5 7 0 -1
BITMAP
10
70
A8
48
08
70
80
ENDCHAR
STARTCHAR uni0053
ENCODING 1000
SWIDTH 230 0
DWIDTH 5 0
BBX 4 6 1 0
BITMAP
E0
10
60
80
90
60
ENDCHAR
STARTCHAR uni0053
ENCODING 1001
SWIDTH 230 0
DWIDTH 5 0
BBX 4 6 1 0
BITMAP
E0
10
60
80
80
70
ENDCHAR
STARTCHAR COPTIC
ENCODING 1002
SWIDTH 230 0
DWIDTH 5 0
BBX 5 7 0 0
BITMAP
50
A8
20
50
50
88
F8
ENDCHAR
STARTCHAR COPTIC
ENCODING 1003
SWIDTH 230 0
DWIDTH 5 0
BBX 5 5 0 0
BITMAP
50
A8
20
50
70
ENDCHAR
STARTCHAR COPTIC
ENCODING 1004
SWIDTH 230 0
DWIDTH 5 0
BBX 4 7 0 0
BITMAP
70
80
E0
90
90
90
60
ENDCHAR
STARTCHAR COPTIC
ENCODING 1005
SWIDTH 230 0
DWIDTH 5 0
BBX 4 6 0 0
BITMAP
60
80
A0
90
90
60
ENDCHAR
STARTCHAR COPTIC
ENCODING 1006
SWIDTH 230 0
DWIDTH 5 0
BBX 5 6 0 0
BITMAP
20
70
A8
20
20
20
ENDCHAR
STARTCHAR COPTIC
ENCODING 1007
SWIDTH 230 0
DWIDTH 5 0
BBX 5 6 0 0
BITMAP
30
20
F8
A0
20
60
ENDCHAR
STARTCHAR uni0078
ENCODING 1008
SWIDTH 230 0
DWIDTH 5 0
BBX 4 5 1 0
BITMAP
90
A0
60
50
90
ENDCHAR
STARTCHAR GREEK
ENCODING 1009
SWIDTH 230 0
DWIDTH 5 0
BBX 4 8 0 -3
BITMAP
60
90
90
90
E0
80
60
10
ENDCHAR
STARTCHAR uni0063
ENCODING 1010
SWIDTH 230 0
DWIDTH 5 0
BBX 4 5 1 0
BITMAP
70
80
80
80
70
ENDCHAR
STARTCHAR uni006A
ENCODING 1011
SWIDTH 230 0
DWIDTH 5 0
BBX 3 9 1 -2
BITMAP
20
00
60
20
20
20
20
20
C0
ENDCHAR
STARTCHAR GREEK
ENCODING 1012
SWIDTH 230 0
DWIDTH 5 0
BBX 4 6 1 0
BITMAP
60
90
B0
D0
90
60
ENDCHAR
STARTCHAR GREEK
ENCODING 1013
SWIDTH 230 0
DWIDTH 5 0
BBX 4 5 0 0
BITMAP
70
80
E0
80
70
ENDCHAR
STARTCHAR GREEK
ENCODING 1014
SWIDTH 230 0
DWIDTH 5 0
BBX 4 5 0 0
BITMAP
E0
10
70
10
E0
ENDCHAR
STARTCHAR GREEK
ENCODING 1015
SWIDTH 230 0
DWIDTH 5 0
BBX 4 6 0 0
BITMAP
80
E0
90
90
E0
80
ENDCHAR
STARTCHAR GREEK
ENCODING 1016
SWIDTH 230 0
DWIDTH 5 0
BBX 4 7 0 -1
BITMAP
80
E0
90
90
E0
80
80
ENDCHAR
STARTCHAR uni0043
ENCODING 1017
SWIDTH 230 0
DWIDTH 5 0
BBX 4 6 1 0
BITMAP
70
80
80
80
80
70
ENDCHAR
STARTCHAR uni004D
ENCODING 1018
SWIDTH 230 0
DWIDTH 5 0
BBX 4 6 1 0
BITMAP
90
F0
B0
90
90
90
ENDCHAR
STARTCHAR GREEK
ENCODING 1019
SWIDTH 230 0
DWIDTH 5 0
BBX 4 6 1 -2
BITMAP
90
F0
B0
90
80
80
ENDCHAR
STARTCHAR uni0070
ENCODING 1020
SWIDTH 230 0
DWIDTH 5 0
BBX 4 8 1 -3
BITMAP
60
90
90
90
E0
80
C0
80
ENDCHAR
STARTCHAR uni0043
ENCODING 1021
SWIDTH 230 0
DWIDTH 5 0
BBX 5 6 1 0
BITMAP
70
88
08
08
88
70
ENDCHAR
STARTCHAR uni0043
ENCODING 1022
SWIDTH 230 0
DWIDTH 5 0
BBX 4 6 1 0
BITMAP
70
80
A0
80
80
70
ENDCHAR
STARTCHAR uni0043
ENCODING 1023
SWIDTH 230 0
DWIDTH 5 0
BBX 4 6 1 0
BITMAP
E0
10
50
10
10
E0
ENDCHAR
STARTCHAR char203
ENCODING 1025
SWIDTH 230 0
DWIDTH 5 0
BBX 4 8 1 0
BITMAP
A0
00
F0
80
E0
80
80
F0
ENDCHAR
STARTCHAR char1026
ENCODING 1026
SWIDTH 230 0
DWIDTH 5 0
BBX 5 8 0 -1
BITMAP
E0
40
70
48
48
48
48
10
ENDCHAR
STARTCHAR char1027
ENCODING 1027
SWIDTH 230 0
DWIDTH 5 0
BBX 4 8 1 0
BITMAP
20
40
F0
80
80
80
80
80
ENDCHAR
STARTCHAR char1028
ENCODING 1028
SWIDTH 230 0
DWIDTH 5 0
BBX 4 6 0 0
BITMAP
60
90
C0
80
90
60
ENDCHAR
STARTCHAR char1029
ENCODING 1029
SWIDTH 230 0
DWIDTH 5 0
BBX 4 6 1 0
BITMAP
70
80
60
10
10
E0
ENDCHAR
STARTCHAR char1030
ENCODING 1030
SWIDTH 230 0
DWIDTH 5 0
BBX 1 6 2 0
BITMAP
80
80
80
80
80
80
ENDCHAR
STARTCHAR char1031
ENCODING 1031
SWIDTH 230 0
DWIDTH 5 0
BBX 3 7 1 0
BITMAP
A0
40
40
40
40
40
40
ENDCHAR
STARTCHAR char1032
ENCODING 1032
SWIDTH 230 0
DWIDTH 5 0
BBX 4 6 1 0
BITMAP
70
10
10
10
90
60
ENDCHAR
STARTCHAR char1033
ENCODING 1033
SWIDTH 230 0
DWIDTH 5 0
BBX 6 6 0 0
BITMAP
30
50
58
54
54
98
ENDCHAR
STARTCHAR char1034
ENCODING 1034
SWIDTH 230 0
DWIDTH 5 0
BBX 5 6 1 0
BITMAP
A0
A0
F0
A8
A8
B0
ENDCHAR
STARTCHAR char1035
ENCODING 1035
SWIDTH 230 0
DWIDTH 5 0
BBX 5 7 0 0
BITMAP
F0
40
70
48
48
48
48
ENDCHAR
STARTCHAR char1036
ENCODING 1036
SWIDTH 230 0
DWIDTH 5 0
BBX 4 7 1 0
BITMAP
20
D0
A0
C0
A0
90
90
ENDCHAR
STARTCHAR char1038
ENCODING 1038
SWIDTH 230 0
DWIDTH 5 0
BBX 4 8 1 0
BITMAP
50
20
90
90
90
70
10
60
ENDCHAR
STARTCHAR char1039
ENCODING 1039
SWIDTH 230 0
DWIDTH 5 0
BBX 5 7 0 -1
BITMAP
88
88
88
88
F8
20
20
ENDCHAR
STARTCHAR char1040
ENCODING 1040
SWIDTH 230 0
DWIDTH 5 0
BBX 4 6 1 0
BITMAP
60
90
90
F0
90
90
ENDCHAR
STARTCHAR char1041
ENCODING 1041
SWIDTH 230 0
DWIDTH 5 0
BBX 4 7 1 0
BITMAP
E0
80
E0
90
90
90
E0
ENDCHAR
STARTCHAR char1042
ENCODING 1042
SWIDTH 230 0
DWIDTH 5 0
BBX 4 6 1 0
BITMAP
E0
90
E0
90
90
E0
ENDCHAR
STARTCHAR char1043
ENCODING 1043
SWIDTH 230 0
DWIDTH 5 0
BBX 4 6 1 0
BITMAP
F0
80
80
80
80
80
ENDCHAR
STARTCHAR char1044
ENCODING 1044
SWIDTH 230 0
DWIDTH 5 0
BBX 5 7 0 -1
BITMAP
30
50
50
50
50
F8
88
ENDCHAR
STARTCHAR uni0045
ENCODING 1045
SWIDTH 230 0
DWIDTH 5 0
BBX 4 6 1 0
BITMAP
F0
80
E0
80
80
F0
ENDCHAR
STARTCHAR uni0058
ENCODING 1046
SWIDTH 230 0
DWIDTH 5 0
BBX 5 6 0 0
BITMAP
A8
A8
70
A8
A8
A8
ENDCHAR
STARTCHAR uni0033
ENCODING 1047
SWIDTH 230 0
DWIDTH 5 0
BBX 4 6 1 0
BITMAP
60
90
20
10
90
60
ENDCHAR
STARTCHAR char1080
ENCODING 1048
SWIDTH 230 0
DWIDTH 5 0
BBX 4 6 1 0
BITMAP
90
B0
B0
D0
D0
90
ENDCHAR
STARTCHAR char1080
ENCODING 1049
SWIDTH 230 0
DWIDTH 5 0
BBX 4 8 1 0
BITMAP
50
20
90
B0
B0
D0
D0
90
ENDCHAR
STARTCHAR uni004B
ENCODING 1050
SWIDTH 230 0
DWIDTH 5 0
BBX 4 6 1 0
BITMAP
90
A0
C0
A0
90
90
ENDCHAR
STARTCHAR char1051
ENCODING 1051
SWIDTH 230 0
DWIDTH 5 0
BBX 4 6 1 0
BITMAP
30
50
50
50
50
90
ENDCHAR
STARTCHAR uni004D
ENCODING 1052
SWIDTH 230 0
DWIDTH 5 0
BBX 4 6 1 0
BITMAP
90
F0
B0
90
90
90
ENDCHAR
STARTCHAR uni0048
ENCODING 1053
SWIDTH 230 0
DWIDTH 5 0
BBX 4 6 1 0
BITMAP
90
90
F0
90
90
90
ENDCHAR
STARTCHAR uni004F
ENCODING 1054
SWIDTH 230 0
DWIDTH 5 0
BBX 4 6 1 0
BITMAP
60
90
90
90
90
60
ENDCHAR
STARTCHAR char1055
ENCODING 1055
SWIDTH 230 0
DWIDTH 5 0
BBX 4 6 1 0
BITMAP
F0
90
90
90
90
90
ENDCHAR
STARTCHAR uni0043
ENCODING 1057
SWIDTH 230 0
DWIDTH 5 0
BBX 4 6 1 0
BITMAP
70
80
80
80
80
70
ENDCHAR
STARTCHAR uni0054
ENCODING 1058
SWIDTH 230 0
DWIDTH 5 0
BBX 3 6 2 0
BITMAP
E0
40
40
40
40
40
ENDCHAR
STARTCHAR char1038
ENCODING 1059
SWIDTH 230 0
DWIDTH 5 0
BBX 4 6 1 0
BITMAP
90
90
90
70
10
60
ENDCHAR
STARTCHAR char1060
ENCODING 1060
SWIDTH 230 0
DWIDTH 5 0
BBX 5 8 0 -1
BITMAP
20
70
A8
A8
A8
A8
70
20
ENDCHAR
STARTCHAR uni0058
ENCODING 1061
SWIDTH 230 0
DWIDTH 5 0
BBX 4 6 1 0
BITMAP
90
90
60
90
90
90
ENDCHAR
STARTCHAR char1062
ENCODING 1062
SWIDTH 230 0
DWIDTH 5 0
BBX 4 7 1 -1
BITMAP
A0
A0
A0
A0
A0
F0
10
ENDCHAR
STARTCHAR char1063
ENCODING 1063
SWIDTH 230 0
DWIDTH 5 0
BBX 4 6 0 0
BITMAP
90
90
70
10
10
10
ENDCHAR
STARTCHAR char1064
ENCODING 1064
SWIDTH 230 0
DWIDTH 5 0
BBX 5 6 0 0
BITMAP
A8
A8
A8
A8
A8
F0
ENDCHAR
STARTCHAR char1065
ENCODING 1065
SWIDTH 230 0
DWIDTH 5 0
BBX 6 7 0 -1
BITMAP
A8
A8
A8
A8
A8
7C
04
ENDCHAR
STARTCHAR char1066
ENCODING 1066
SWIDTH 230 0
DWIDTH 5 0
BBX 4 6 0 0
BITMAP
C0
40
40
60
50
60
ENDCHAR
STARTCHAR char1067
ENCODING 1067
SWIDTH 230 0
DWIDTH 5 0
BBX 4 6 1 0
BITMAP
90
90
90
D0
B0
D0
ENDCHAR
STARTCHAR char1068
ENCODING 1068
SWIDTH 230 0
DWIDTH 5 0
BBX 4 6 1 0
BITMAP
80
80
80
E0
90
E0
ENDCHAR
STARTCHAR uni0033
ENCODING 1069
SWIDTH 230 0
DWIDTH 5 0
BBX 4 6 1 0
BITMAP
60
90
30
10
90
60
ENDCHAR
STARTCHAR char1070
ENCODING 1070
SWIDTH 230 0
DWIDTH 5 0
BBX 5 6 1 0
BITMAP
90
A8
E8
A8
A8
90
ENDCHAR
STARTCHAR char1071
ENCODING 1071
SWIDTH 230 0
DWIDTH 5 0
BBX 4 6 1 0
BITMAP
70
90
90
70
90
90
ENDCHAR
STARTCHAR uni0061
ENCODING 1072
SWIDTH 230 0
DWIDTH 5 0
BBX 4 5 1 0
BITMAP
70
90
90
B0
50
ENDCHAR
STARTCHAR char1073
ENCODING 1073
SWIDTH 230 0
DWIDTH 5 0
BBX 4 7 1 0
BITMAP
10
60
80
E0
90
90
E0
ENDCHAR
STARTCHAR char1074
ENCODING 1074
SWIDTH 230 0
DWIDTH 5 0
BBX 4 5 1 0
BITMAP
E0
90
E0
90
E0
ENDCHAR
STARTCHAR char1075
ENCODING 1075
SWIDTH 230 0
DWIDTH 5 0
BBX 4 5 1 0
BITMAP
F0
80
80
80
80
ENDCHAR
STARTCHAR char1044
ENCODING 1076
SWIDTH 230 0
DWIDTH 5 0
BBX 5 7 0 -1
BITMAP
30
50
50
50
50
F8
88
ENDCHAR
STARTCHAR uni0065
ENCODING 1077
SWIDTH 230 0
DWIDTH 5 0
BBX 4 5 1 0
BITMAP
60
90
F0
80
70
ENDCHAR
STARTCHAR uni0058
ENCODING 1078
SWIDTH 230 0
DWIDTH 5 0
BBX 5 5 0 0
BITMAP
A8
A8
70
A8
A8
ENDCHAR
STARTCHAR uni0033
ENCODING 1079
SWIDTH 230 0
DWIDTH 5 0
BBX 4 5 1 0
BITMAP
60
90
20
90
60
ENDCHAR
STARTCHAR char1080
ENCODING 1080
SWIDTH 230 0
DWIDTH 5 0
BBX 4 5 1 0
BITMAP
90
B0
F0
D0
90
ENDCHAR
STARTCHAR char1080
ENCODING 1081
SWIDTH 230 0
DWIDTH 5 0
BBX 4 7 1 0
BITMAP
50
20
90
B0
F0
D0
90
ENDCHAR
STARTCHAR uni006B
ENCODING 1082
SWIDTH 230 0
DWIDTH 5 0
BBX 4 5 1 0
BITMAP
90
A0
E0
90
90
ENDCHAR
STARTCHAR char1051
ENCODING 1083
SWIDTH 230 0
DWIDTH 5 0
BBX 4 5 1 0
BITMAP
30
50
50
50
90
ENDCHAR
STARTCHAR uni006D
ENCODING 1084
SWIDTH 230 0
DWIDTH 5 0
BBX 4 5 1 0
BITMAP
90
F0
B0
90
90
ENDCHAR
STARTCHAR uni006D
ENCODING 1085
SWIDTH 230 0
DWIDTH 5 0
BBX 4 5 1 0
BITMAP
90
90
F0
90
90
ENDCHAR
STARTCHAR uni006F
ENCODING 1086
SWIDTH 230 0
DWIDTH 5 0
BBX 4 5 1 0
BITMAP
60
90
90
90
60
ENDCHAR
STARTCHAR uni006E
ENCODING 1087
SWIDTH 230 0
DWIDTH 5 0
BBX 4 5 1 0
BITMAP
F0
90
90
90
90
ENDCHAR
STARTCHAR uni0070
ENCODING 1088
SWIDTH 230 0
DWIDTH 5 0
BBX 4 7 1 -2
BITMAP
E0
90
90
90
E0
80
80
ENDCHAR
STARTCHAR uni0063
ENCODING 1089
SWIDTH 230 0
DWIDTH 5 0
BBX 4 5 1 0
BITMAP
70
80
80
80
70
ENDCHAR
STARTCHAR uni0074
ENCODING 1090
SWIDTH 230 0
DWIDTH 5 0
BBX 3 5 2 0
BITMAP
E0
40
40
40
40
ENDCHAR
STARTCHAR uni0079
ENCODING 1091
SWIDTH 230 0
DWIDTH 5 0
BBX 4 7 1 -2
BITMAP
90
90
90
90
70
10
60
ENDCHAR
STARTCHAR char1060
ENCODING 1092
SWIDTH 230 0
DWIDTH 5 0
BBX 5 7 0 -1
BITMAP
20
70
A8
A8
A8
70
20
ENDCHAR
STARTCHAR uni0078
ENCODING 1093
SWIDTH 230 0
DWIDTH 5 0
BBX 4 5 1 0
BITMAP
90
90
60
90
90
ENDCHAR
STARTCHAR char1062
ENCODING 1094
SWIDTH 230 0
DWIDTH 5 0
BBX 4 6 1 -1
BITMAP
A0
A0
A0
A0
F0
10
ENDCHAR
STARTCHAR char1063
ENCODING 1095
SWIDTH 230 0
DWIDTH 5 0
BBX 4 5 0 0
BITMAP
90
90
70
10
10
ENDCHAR
STARTCHAR char1064
ENCODING 1096
SWIDTH 230 0
DWIDTH 5 0
BBX 5 5 0 0
BITMAP
A8
A8
A8
A8
F0
ENDCHAR
STARTCHAR char1065
ENCODING 1097
SWIDTH 230 0
DWIDTH 5 0
BBX 6 6 0 -1
BITMAP
A8
A8
A8
A8
7C
04
ENDCHAR
STARTCHAR char1066
ENCODING 1098
SWIDTH 230 0
DWIDTH 5 0
BBX 4 5 1 0
BITMAP
C0
40
60
50
60
ENDCHAR
STARTCHAR char1067
ENCODING 1099
SWIDTH 230 0
DWIDTH 5 0
BBX 4 5 1 0
BITMAP
90
90
D0
B0
D0
ENDCHAR
STARTCHAR char1068
ENCODING 1100
SWIDTH 230 0
DWIDTH 5 0
BBX 4 5 1 0
BITMAP
80
80
E0
90
E0
ENDCHAR
STARTCHAR uni0033
ENCODING 1101
SWIDTH 230 0
DWIDTH 5 0
BBX 4 5 1 0
BITMAP
60
90
30
90
60
ENDCHAR
STARTCHAR char1070
ENCODING 1102
SWIDTH 230 0
DWIDTH 5 0
BBX 5 5 1 0
BITMAP
90
A8
E8
A8
90
ENDCHAR
STARTCHAR char1071
ENCODING 1103
SWIDTH 230 0
DWIDTH 5 0
BBX 4 5 1 0
BITMAP
70
90
70
90
90
ENDCHAR
STARTCHAR char1104
ENCODING 1104
SWIDTH 230 0
DWIDTH 5 0
BBX 4 6 1 0
BITMAP
E0
90
90
E0
80
80
ENDCHAR
STARTCHAR uni0065
ENCODING 1105
SWIDTH 230 0
DWIDTH 5 0
BBX 4 7 1 0
BITMAP
A0
00
60
90
F0
80
70
ENDCHAR
STARTCHAR char1026
ENCODING 1106
SWIDTH 230 0
DWIDTH 5 0
BBX 5 7 0 -1
BITMAP
40
E0
40
70
48
48
10
ENDCHAR
STARTCHAR char1027
ENCODING 1107
SWIDTH 230 0
DWIDTH 5 0
BBX 4 7 1 0
BITMAP
20
40
F0
80
80
80
80
ENDCHAR
STARTCHAR char1028
ENCODING 1108
SWIDTH 230 0
DWIDTH 5 0
BBX 4 5 1 0
BITMAP
60
90
C0
90
60
ENDCHAR
STARTCHAR uni0073
ENCODING 1109
SWIDTH 230 0
DWIDTH 5 0
BBX 4 5 1 0
BITMAP
70
80
60
10
E0
ENDCHAR
STARTCHAR uni0069
ENCODING 1110
SWIDTH 230 0
DWIDTH 5 0
BBX 2 7 2 0
BITMAP
40
00
C0
40
40
40
40
ENDCHAR
STARTCHAR uni0069
ENCODING 1111
SWIDTH 230 0
DWIDTH 5 0
BBX 3 7 2 0
BITMAP
A0
00
C0
40
40
40
40
ENDCHAR
STARTCHAR uni006A
ENCODING 1112
SWIDTH 230 0
DWIDTH 5 0
BBX 3 9 1 -2
BITMAP
20
00
60
20
20
20
20
20
C0
ENDCHAR
STARTCHAR uni0079
ENCODING 1118
SWIDTH 230 0
DWIDTH 5 0
BBX 4 7 1 -2
BITMAP
90
90
90
90
70
10
60
ENDCHAR
STARTCHAR char1122
ENCODING 1122
SWIDTH 230 0
DWIDTH 5 0
BBX 5 7 0 0
BITMAP
40
E0
40
70
48
48
70
ENDCHAR
STARTCHAR char1123
ENCODING 1123
SWIDTH 230 0
DWIDTH 5 0
BBX 5 6 0 0
BITMAP
40
E0
40
70
48
70
ENDCHAR
STARTCHAR char1126
ENCODING 1126
SWIDTH 230 0
DWIDTH 5 0
BBX 5 6 1 0
BITMAP
20
20
50
70
A8
A8
ENDCHAR
STARTCHAR char1127
ENCODING 1127
SWIDTH 230 0
DWIDTH 5 0
BBX 5 5 1 0
BITMAP
20
50
70
A8
A8
ENDCHAR
STARTCHAR char1128
ENCODING 1128
SWIDTH 230 0
DWIDTH 5 0
BBX 5 6 1 0
BITMAP
A0
A0
D0
F0
A8
A8
ENDCHAR
STARTCHAR char1129
ENCODING 1129
SWIDTH 230 0
DWIDTH 5 0
BBX 5 5 1 0
BITMAP
A0
D0
F0
A8
A8
ENDCHAR
STARTCHAR char1140
ENCODING 1140
SWIDTH 230 0
DWIDTH 5 0
BBX 5 6 1 0
BITMAP
90
98
90
60
60
60
ENDCHAR
STARTCHAR char1141
ENCODING 1141
SWIDTH 230 0
DWIDTH 5 0
BBX 5 5 1 0
BITMAP
90
98
90
60
60
ENDCHAR
STARTCHAR char1142
ENCODING 1142
SWIDTH 230 0
DWIDTH 5 0
BBX 5 8 1 0
BITMAP
A0
50
90
98
90
60
60
60
ENDCHAR
STARTCHAR char1143
ENCODING 1143
SWIDTH 230 0
DWIDTH 5 0
BBX 5 7 1 0
BITMAP
A0
50
90
98
90
60
60
ENDCHAR
STARTCHAR char1155
ENCODING 1155
SWIDTH 230 0
DWIDTH 5 0
BBX 4 3 2 4
BITMAP
10
60
80
ENDCHAR
STARTCHAR char1027
ENCODING 1168
SWIDTH 230 0
DWIDTH 5 0
BBX 4 7 1 0
BITMAP
10
F0
80
80
80
80
80
ENDCHAR
STARTCHAR char1075
ENCODING 1169
SWIDTH 230 0
DWIDTH 5 0
BBX 4 6 1 0
BITMAP
10
F0
80
80
80
80
ENDCHAR
STARTCHAR char1984
ENCODING 1984
SWIDTH 230 0
DWIDTH 5 0
BBX 6 2 0 2
BITMAP
FC
FC
ENDCHAR
STARTCHAR char1984
ENCODING 1985
SWIDTH 230 0
DWIDTH 5 0
BBX 6 2 0 -1
BITMAP
A8
54
ENDCHAR
STARTCHAR char1986
ENCODING 1986
SWIDTH 230 0
DWIDTH 5 0
BBX 6 1 0 -1
BITMAP
FC
ENDCHAR
STARTCHAR char1987
ENCODING 1987
SWIDTH 230 0
DWIDTH 5 0
BBX 5 1 2 -1
BITMAP
A8
ENDCHAR
STARTCHAR char3232
ENCODING 3232
SWIDTH 230 0
DWIDTH 5 0
BBX 6 7 0 0
BITMAP
18
04
F8
44
54
44
38
ENDCHAR
STARTCHAR char1480
ENCODING 4808
SWIDTH 230 0
DWIDTH 5 0
BBX 5 8 1 -1
BITMAP
F8
F8
F8
F8
F8
F8
F8
F8
ENDCHAR
STARTCHAR char7461
ENCODING 7461
SWIDTH 230 0
DWIDTH 5 0
BBX 5 5 0 0
BITMAP
70
70
70
20
D8
ENDCHAR
STARTCHAR uni0061
ENCODING 7936
SWIDTH 230 0
DWIDTH 5 0
BBX 5 7 0 0
BITMAP
40
80
38
48
48
58
28
ENDCHAR
STARTCHAR uni0041
ENCODING 7944
SWIDTH 230 0
DWIDTH 5 0
BBX 5 8 0 0
BITMAP
40
80
30
48
48
78
48
48
ENDCHAR
STARTCHAR uni0069
ENCODING 7989
SWIDTH 230 0
DWIDTH 5 0
BBX 3 7 2 0
BITMAP
A0
00
C0
40
40
40
40
ENDCHAR
STARTCHAR uni0075
ENCODING 8016
SWIDTH 230 0
DWIDTH 5 0
BBX 4 8 1 0
BITMAP
40
20
00
90
90
90
90
70
ENDCHAR
STARTCHAR char8212
ENCODING 8211
SWIDTH 230 0
DWIDTH 5 0
BBX 5 1 1 3
BITMAP
F8
ENDCHAR
STARTCHAR char8212
ENCODING 8212
SWIDTH 230 0
DWIDTH 5 0
BBX 5 1 1 3
BITMAP
F8
ENDCHAR
STARTCHAR char8216
ENCODING 8216
SWIDTH 230 0
DWIDTH 5 0
BBX 1 3 2 4
BITMAP
80
80
80
ENDCHAR
STARTCHAR char8217
ENCODING 8217
SWIDTH 230 0
DWIDTH 5 0
BBX 1 3 2 4
BITMAP
80
80
80
ENDCHAR
STARTCHAR char8218
ENCODING 8218
SWIDTH 230 0
DWIDTH 5 0
BBX 2 3 2 -1
BITMAP
40
40
80
ENDCHAR
STARTCHAR char8220
ENCODING 8220
SWIDTH 230 0
DWIDTH 5 0
BBX 4 3 1 3
BITMAP
50
A0
F0
ENDCHAR
STARTCHAR char8221
ENCODING 8221
SWIDTH 230 0
DWIDTH 5 0
BBX 4 3 1 3
BITMAP
F0
50
A0
ENDCHAR
STARTCHAR char8222
ENCODING 8222
SWIDTH 230 0
DWIDTH 5 0
BBX 4 3 1 -1
BITMAP
F0
50
A0
ENDCHAR
STARTCHAR char8223
ENCODING 8223
SWIDTH 230 0
DWIDTH 5 0
BBX 4 3 1 3
BITMAP
F0
A0
50
ENDCHAR
STARTCHAR char183
ENCODING 8226
SWIDTH 230 0
DWIDTH 5 0
BBX 2 2 2 2
BITMAP
C0
C0
ENDCHAR
STARTCHAR char8228
ENCODING 8228
SWIDTH 230 0
DWIDTH 5 0
BBX 1 1 2 0
BITMAP
80
ENDCHAR
STARTCHAR char8229
ENCODING 8229
SWIDTH 230 0
DWIDTH 5 0
BBX 3 1 1 0
BITMAP
A0
ENDCHAR
STARTCHAR char8230
ENCODING 8230
SWIDTH 230 0
DWIDTH 5 0
BBX 5 1 0 0
BITMAP
A8
ENDCHAR
STARTCHAR char8231
ENCODING 8231
SWIDTH 230 0
DWIDTH 5 0
BBX 1 1 2 2
BITMAP
80
ENDCHAR
STARTCHAR char8249
ENCODING 8249
SWIDTH 230 0
DWIDTH 5 0
BBX 3 5 1 0
BITMAP
20
40
80
40
20
ENDCHAR
STARTCHAR UNDERTIE
ENCODING 8255
SWIDTH 230 0
DWIDTH 5 0
BBX 5 2 0 0
BITMAP
88
70
ENDCHAR
STARTCHAR char8320
ENCODING 8320
SWIDTH 230 0
DWIDTH 5 0
BBX 4 5 1 -1
BITMAP
60
90
90
90
60
ENDCHAR
STARTCHAR char8364
ENCODING 8364
SWIDTH 230 0
DWIDTH 5 0
BBX 5 7 0 0
BITMAP
30
48
E0
40
E0
48
30
ENDCHAR
STARTCHAR char8482
ENCODING 8482
SWIDTH 230 0
DWIDTH 5 0
BBX 6 3 0 3
BITMAP
F4
5C
54
ENDCHAR
STARTCHAR char8592
ENCODING 8592
SWIDTH 230 0
DWIDTH 5 0
BBX 6 5 0 0
BITMAP
20
60
FC
60
20
ENDCHAR
STARTCHAR char8593
ENCODING 8593
SWIDTH 230 0
DWIDTH 5 0
BBX 5 6 0 0
BITMAP
20
70
F8
20
20
20
ENDCHAR
STARTCHAR char8594
ENCODING 8594
SWIDTH 230 0
DWIDTH 5 0
BBX 6 5 0 0
BITMAP
10
18
FC
18
10
ENDCHAR
STARTCHAR char8595
ENCODING 8595
SWIDTH 230 0
DWIDTH 5 0
BBX 5 6 0 0
BITMAP
20
20
20
F8
70
20
ENDCHAR
STARTCHAR char8596
ENCODING 8596
SWIDTH 230 0
DWIDTH 5 0
BBX 6 3 0 1
BITMAP
48
FC
48
ENDCHAR
STARTCHAR char8597
ENCODING 8597
SWIDTH 230 0
DWIDTH 5 0
BBX 5 8 0 -1
BITMAP
20
70
F8
20
20
F8
70
20
ENDCHAR
STARTCHAR char8598
ENCODING 8598
SWIDTH 230 0
DWIDTH 5 0
BBX 4 4 0 1
BITMAP
E0
C0
A0
10
ENDCHAR
STARTCHAR char8599
ENCODING 8599
SWIDTH 230 0
DWIDTH 5 0
BBX 4 4 1 1
BITMAP
70
30
50
80
ENDCHAR
STARTCHAR char8600
ENCODING 8600
SWIDTH 230 0
DWIDTH 5 0
BBX 4 4 1 0
BITMAP
80
50
30
70
ENDCHAR
STARTCHAR char8601
ENCODING 8601
SWIDTH 230 0
DWIDTH 5 0
BBX 4 4 0 0
BITMAP
10
A0
C0
E0
ENDCHAR
STARTCHAR char8624
ENCODING 8624
SWIDTH 230 0
DWIDTH 5 0
BBX 4 5 0 0
BITMAP
40
F0
50
10
10
ENDCHAR
STARTCHAR char8625
ENCODING 8625
SWIDTH 230 0
DWIDTH 5 0
BBX 4 5 0 0
BITMAP
20
F0
A0
80
80
ENDCHAR
STARTCHAR char8626
ENCODING 8626
SWIDTH 230 0
DWIDTH 5 0
BBX 4 5 0 -1
BITMAP
10
10
50
F0
40
ENDCHAR
STARTCHAR char8627
ENCODING 8627
SWIDTH 230 0
DWIDTH 5 0
BBX 4 5 0 -1
BITMAP
80
80
A0
F0
20
ENDCHAR
STARTCHAR char8628
ENCODING 8628
SWIDTH 230 0
DWIDTH 5 0
BBX 4 4 0 -1
BITMAP
E0
20
70
20
ENDCHAR
STARTCHAR char8629
ENCODING 8629
SWIDTH 230 0
DWIDTH 5 0
BBX 4 5 0 -1
BITMAP
10
10
50
F0
40
ENDCHAR
STARTCHAR char8630
ENCODING 8630
SWIDTH 230 0
DWIDTH 5 0
BBX 4 5 0 0
BITMAP
20
50
40
E0
40
ENDCHAR
STARTCHAR char8631
ENCODING 8631
SWIDTH 230 0
DWIDTH 5 0
BBX 4 5 1 0
BITMAP
40
A0
20
70
20
ENDCHAR
STARTCHAR char8689
ENCODING 8689
SWIDTH 230 0
DWIDTH 5 0
BBX 6 6 0 0
BITMAP
F8
80
B8
B0
A8
04
ENDCHAR
STARTCHAR char8690
ENCODING 8690
SWIDTH 230 0
DWIDTH 5 0
BBX 6 6 1 -1
BITMAP
80
54
34
74
04
7C
ENDCHAR
STARTCHAR char8693
ENCODING 8693
SWIDTH 230 0
DWIDTH 5 0
BBX 6 6 0 0
BITMAP
48
E8
48
48
5C
48
ENDCHAR
STARTCHAR char8694
ENCODING 8694
SWIDTH 230 0
DWIDTH 5 0
BBX 5 7 1 -1
BITMAP
10
F8
10
F8
10
F8
10
ENDCHAR
STARTCHAR char8695
ENCODING 8695
SWIDTH 230 0
DWIDTH 5 0
BBX 6 3 0 0
BITMAP
50
FC
50
ENDCHAR
STARTCHAR char8696
ENCODING 8696
SWIDTH 230 0
DWIDTH 5 0
BBX 6 3 0 0
BITMAP
28
FC
28
ENDCHAR
STARTCHAR char8701
ENCODING 8701
SWIDTH 230 0
DWIDTH 5 0
BBX 6 3 0 1
BITMAP
40
BC
40
ENDCHAR
STARTCHAR char8702
ENCODING 8702
SWIDTH 230 0
DWIDTH 5 0
BBX 6 3 0 1
BITMAP
08
F4
08
ENDCHAR
STARTCHAR char8703
ENCODING 8703
SWIDTH 230 0
DWIDTH 5 0
BBX 6 3 0 1
BITMAP
48
B4
48
ENDCHAR
STARTCHAR char8704
ENCODING 8704
SWIDTH 230 0
DWIDTH 5 0
BBX 5 6 1 -1
BITMAP
88
88
70
50
20
20
ENDCHAR
STARTCHAR char8705
ENCODING 8705
SWIDTH 230 0
DWIDTH 5 0
BBX 5 7 1 -1
BITMAP
70
88
88
80
88
88
70
ENDCHAR
STARTCHAR char8706
ENCODING 8706
SWIDTH 230 0
DWIDTH 5 0
BBX 4 7 1 0
BITMAP
80
40
20
50
90
90
60
ENDCHAR
STARTCHAR char8707
ENCODING 8707
SWIDTH 230 0
DWIDTH 5 0
BBX 5 6 1 0
BITMAP
F8
08
78
08
08
F8
ENDCHAR
STARTCHAR char8708
ENCODING 8708
SWIDTH 230 0
DWIDTH 5 0
BBX 5 8 1 -1
BITMAP
10
F8
28
78
28
48
F8
40
ENDCHAR
STARTCHAR char8709
ENCODING 8709
SWIDTH 230 0
DWIDTH 5 0
BBX 7 6 0 0
BITMAP
38
46
4C
74
C4
38
ENDCHAR
STARTCHAR char8710
ENCODING 8710
SWIDTH 230 0
DWIDTH 5 0
BBX 5 5 1 0
BITMAP
20
50
50
88
F8
ENDCHAR
STARTCHAR char8711
ENCODING 8711
SWIDTH 230 0
DWIDTH 5 0
BBX 5 5 1 0
BITMAP
F8
88
50
50
20
ENDCHAR
STARTCHAR char8712
ENCODING 8712
SWIDTH 230 0
DWIDTH 5 0
BBX 5 7 1 -1
BITMAP
38
40
80
F0
80
40
38
ENDCHAR
STARTCHAR char8713
ENCODING 8713
SWIDTH 230 0
DWIDTH 5 0
BBX 5 8 1 -1
BITMAP
08
38
50
A0
F0
A0
40
78
ENDCHAR
STARTCHAR char8714
ENCODING 8714
SWIDTH 230 0
DWIDTH 5 0
BBX 4 5 1 0
BITMAP
70
80
E0
80
70
ENDCHAR
STARTCHAR char8715
ENCODING 8715
SWIDTH 230 0
DWIDTH 5 0
BBX 5 7 1 -1
BITMAP
E0
10
08
78
08
10
E0
ENDCHAR
STARTCHAR char8716
ENCODING 8716
SWIDTH 230 0
DWIDTH 5 0
BBX 6 8 0 -1
BITMAP
80
70
48
24
3C
14
08
74
ENDCHAR
STARTCHAR char8717
ENCODING 8717
SWIDTH 230 0
DWIDTH 5 0
BBX 4 5 2 0
BITMAP
E0
10
70
10
E0
ENDCHAR
STARTCHAR char8719
ENCODING 8719
SWIDTH 230 0
DWIDTH 5 0
BBX 5 5 1 0
BITMAP
F8
50
50
50
50
ENDCHAR
STARTCHAR char8720
ENCODING 8720
SWIDTH 230 0
DWIDTH 5 0
BBX 5 5 1 0
BITMAP
50
50
50
50
F8
ENDCHAR
STARTCHAR char8721
ENCODING 8721
SWIDTH 230 0
DWIDTH 5 0
BBX 5 7 0 -1
BITMAP
F8
88
40
20
40
88
F8
ENDCHAR
STARTCHAR char8722
ENCODING 8722
SWIDTH 230 0
DWIDTH 5 0
BBX 3 1 0 2
BITMAP
E0
ENDCHAR
STARTCHAR char8723
ENCODING 8723
SWIDTH 230 0
DWIDTH 5 0
BBX 3 5 0 -1
BITMAP
E0
00
40
E0
40
ENDCHAR
STARTCHAR char8724
ENCODING 8724
SWIDTH 230 0
DWIDTH 5 0
BBX 5 8 0 -1
BITMAP
20
70
20
20
20
F8
20
20
ENDCHAR
STARTCHAR char8730
ENCODING 8730
SWIDTH 230 0
DWIDTH 5 0
BBX 7 7 0 -1
BITMAP
02
02
04
C4
28
28
10
ENDCHAR
STARTCHAR char8731
ENCODING 8731
SWIDTH 230 0
DWIDTH 5 0
BBX 7 8 0 -1
BITMAP
30
32
12
34
C4
28
28
10
ENDCHAR
STARTCHAR char8732
ENCODING 8732
SWIDTH 230 0
DWIDTH 5 0
BBX 7 7 0 -1
BITMAP
12
32
14
C4
28
28
10
ENDCHAR
STARTCHAR char8733
ENCODING 8733
SWIDTH 230 0
DWIDTH 5 0
BBX 4 3 0 1
BITMAP
D0
A0
D0
ENDCHAR
STARTCHAR char8734
ENCODING 8734
SWIDTH 230 0
DWIDTH 5 0
BBX 6 4 0 0
BITMAP
48
B4
B4
48
ENDCHAR
STARTCHAR char8776
ENCODING 8776
SWIDTH 230 0
DWIDTH 5 0
BBX 5 5 0 0
BITMAP
08
70
88
70
80
ENDCHAR
STARTCHAR char8790
ENCODING 8790
SWIDTH 230 0
DWIDTH 5 0
BBX 5 3 0 1
BITMAP
F8
50
F8
ENDCHAR
STARTCHAR char8800
ENCODING 8800
SWIDTH 230 0
DWIDTH 5 0
BBX 3 5 2 1
BITMAP
20
E0
40
E0
80
ENDCHAR
STARTCHAR char8804
ENCODING 8804
SWIDTH 230 0
DWIDTH 5 0
BBX 4 7 1 -1
BITMAP
20
40
80
40
20
00
F0
ENDCHAR
STARTCHAR char8805
ENCODING 8805
SWIDTH 230 0
DWIDTH 5 0
BBX 4 7 1 -1
BITMAP
40
20
10
20
40
00
F0
ENDCHAR
STARTCHAR char8978
ENCODING 8978
SWIDTH 230 0
DWIDTH 5 0
BBX 4 2 0 2
BITMAP
60
90
ENDCHAR
STARTCHAR char8994
ENCODING 8994
SWIDTH 230 0
DWIDTH 5 0
BBX 5 2 0 2
BITMAP
70
88
ENDCHAR
STARTCHAR bar
ENCODING 9472
SWIDTH 230 0
DWIDTH 5 0
BBX 5 1 1 2
BITMAP
F8
ENDCHAR
STARTCHAR QUADRANT
ENCODING 9622
SWIDTH 230 0
DWIDTH 5 0
BBX 3 3 0 0
BITMAP
E0
E0
E0
ENDCHAR
STARTCHAR QUADRANT
ENCODING 9623
SWIDTH 230 0
DWIDTH 5 0
BBX 3 3 3 0
BITMAP
E0
E0
E0
ENDCHAR
STARTCHAR QUADRANT
ENCODING 9624
SWIDTH 230 0
DWIDTH 5 0
BBX 3 3 0 3
BITMAP
E0
E0
E0
ENDCHAR
STARTCHAR QUADRANT
ENCODING 9625
SWIDTH 230 0
DWIDTH 5 0
BBX 6 6 0 0
BITMAP
E0
E0
E0
FC
FC
FC
ENDCHAR
STARTCHAR QUADRANT
ENCODING 9626
SWIDTH 230 0
DWIDTH 5 0
BBX 6 6 0 0
BITMAP
E0
E0
E0
1C
1C
1C
ENDCHAR
STARTCHAR QUADRANT
ENCODING 9627
SWIDTH 230 0
DWIDTH 5 0
BBX 6 6 0 0
BITMAP
FC
FC
FC
E0
E0
E0
ENDCHAR
STARTCHAR QUADRANT
ENCODING 9628
SWIDTH 230 0
DWIDTH 5 0
BBX 6 6 0 0
BITMAP
FC
FC
FC
1C
1C
1C
ENDCHAR
STARTCHAR QUADRANT
ENCODING 9629
SWIDTH 230 0
DWIDTH 5 0
BBX 3 3 3 3
BITMAP
E0
E0
E0
ENDCHAR
STARTCHAR QUADRANT
ENCODING 9630
SWIDTH 230 0
DWIDTH 5 0
BBX 6 6 0 0
BITMAP
1C
1C
1C
E0
E0
E0
ENDCHAR
STARTCHAR QUADRANT
ENCODING 9631
SWIDTH 230 0
DWIDTH 5 0
BBX 6 6 0 0
BITMAP
1C
1C
1C
FC
FC
FC
ENDCHAR
STARTCHAR BLACK
ENCODING 9632
SWIDTH 230 0
DWIDTH 5 0
BBX 6 6 0 0
BITMAP
FC
FC
FC
FC
FC
FC
ENDCHAR
STARTCHAR WHITE
ENCODING 9633
SWIDTH 230 0
DWIDTH 5 0
BBX 6 6 0 0
BITMAP
FC
84
84
84
84
FC
ENDCHAR
STARTCHAR WHITE
ENCODING 9634
SWIDTH 230 0
DWIDTH 5 0
BBX 6 6 0 0
BITMAP
78
84
84
84
84
78
ENDCHAR
STARTCHAR WHITE
ENCODING 9635
SWIDTH 230 0
DWIDTH 5 0
BBX 5 5 0 0
BITMAP
F8
88
A8
88
F8
ENDCHAR
STARTCHAR SQUARE
ENCODING 9636
SWIDTH 230 0
DWIDTH 5 0
BBX 5 5 0 0
BITMAP
F8
88
F8
88
F8
ENDCHAR
STARTCHAR SQUARE
ENCODING 9637
SWIDTH 230 0
DWIDTH 5 0
BBX 5 5 0 0
BITMAP
F8
A8
A8
A8
F8
ENDCHAR
STARTCHAR SQUARE
ENCODING 9638
SWIDTH 230 0
DWIDTH 5 0
BBX 5 5 0 0
BITMAP
F8
A8
F8
A8
F8
ENDCHAR
STARTCHAR SQUARE
ENCODING 9639
SWIDTH 230 0
DWIDTH 5 0
BBX 5 5 0 0
BITMAP
F8
C8
A8
98
F8
ENDCHAR
STARTCHAR SQUARE
ENCODING 9640
SWIDTH 230 0
DWIDTH 5 0
BBX 5 5 0 0
BITMAP
F8
98
A8
C8
F8
ENDCHAR
STARTCHAR SQUARE
ENCODING 9641
SWIDTH 230 0
DWIDTH 5 0
BBX 5 5 0 0
BITMAP
F8
A8
D8
A8
F8
ENDCHAR
STARTCHAR BLACK
ENCODING 9642
SWIDTH 230 0
DWIDTH 5 0
BBX 5 5 0 0
BITMAP
F8
F8
F8
F8
F8
ENDCHAR
STARTCHAR WHITE
ENCODING 9643
SWIDTH 230 0
DWIDTH 5 0
BBX 5 5 0 0
BITMAP
F8
88
88
88
F8
ENDCHAR
STARTCHAR BLACK
ENCODING 9644
SWIDTH 230 0
DWIDTH 5 0
BBX 5 3 0 0
BITMAP
F8
F8
F8
ENDCHAR
STARTCHAR WHITE
ENCODING 9645
SWIDTH 230 0
DWIDTH 5 0
BBX 5 3 0 0
BITMAP
F8
88
F8
ENDCHAR
STARTCHAR BLACK
ENCODING 9646
SWIDTH 230 0
DWIDTH 5 0
BBX 4 7 0 0
BITMAP
F0
F0
F0
F0
F0
F0
F0
ENDCHAR
STARTCHAR WHITE
ENCODING 9647
SWIDTH 230 0
DWIDTH 5 0
BBX 4 7 0 0
BITMAP
F0
90
90
90
90
90
F0
ENDCHAR
STARTCHAR BLACK
ENCODING 9648
SWIDTH 230 0
DWIDTH 5 0
BBX 6 3 0 0
BITMAP
7C
FC
F8
ENDCHAR
STARTCHAR WHITE
ENCODING 9649
SWIDTH 230 0
DWIDTH 5 0
BBX 6 3 0 0
BITMAP
7C
84
F8
ENDCHAR
STARTCHAR char9650
ENCODING 9650
SWIDTH 230 0
DWIDTH 5 0
BBX 7 4 1 1
BITMAP
10
38
7C
FE
ENDCHAR
STARTCHAR char9651
ENCODING 9651
SWIDTH 230 0
DWIDTH 5 0
BBX 7 4 1 1
BITMAP
10
28
44
FE
ENDCHAR
STARTCHAR char9652
ENCODING 9652
SWIDTH 230 0
DWIDTH 5 0
BBX 5 3 0 1
BITMAP
20
70
F8
ENDCHAR
STARTCHAR char9653
ENCODING 9653
SWIDTH 230 0
DWIDTH 5 0
BBX 5 3 0 1
BITMAP
20
50
F8
ENDCHAR
STARTCHAR char9654
ENCODING 9654
SWIDTH 230 0
DWIDTH 5 0
BBX 3 6 1 0
BITMAP
80
C0
E0
E0
C0
80
ENDCHAR
STARTCHAR char9655
ENCODING 9655
SWIDTH 230 0
DWIDTH 5 0
BBX 4 7 1 -1
BITMAP
80
C0
A0
90
A0
C0
80
ENDCHAR
STARTCHAR char9656
ENCODING 9656
SWIDTH 230 0
DWIDTH 5 0
BBX 3 5 1 0
BITMAP
80
C0
E0
C0
80
ENDCHAR
STARTCHAR char9657
ENCODING 9657
SWIDTH 230 0
DWIDTH 5 0
BBX 3 5 1 0
BITMAP
80
C0
A0
C0
80
ENDCHAR
STARTCHAR BLACK
ENCODING 9658
SWIDTH 230 0
DWIDTH 5 0
BBX 3 6 1 0
BITMAP
80
C0
E0
E0
C0
80
ENDCHAR
STARTCHAR WHITE
ENCODING 9659
SWIDTH 230 0
DWIDTH 5 0
BBX 7 5 -1 0
BITMAP
C0
B8
86
B8
C0
ENDCHAR
STARTCHAR char9660
ENCODING 9660
SWIDTH 230 0
DWIDTH 5 0
BBX 7 4 1 1
BITMAP
FE
7C
38
10
ENDCHAR
STARTCHAR char9661
ENCODING 9661
SWIDTH 230 0
DWIDTH 5 0
BBX 7 4 1 1
BITMAP
FE
44
28
10
ENDCHAR
STARTCHAR char9662
ENCODING 9662
SWIDTH 230 0
DWIDTH 5 0
BBX 5 3 0 1
BITMAP
F8
70
20
ENDCHAR
STARTCHAR char9663
ENCODING 9663
SWIDTH 230 0
DWIDTH 5 0
BBX 5 3 0 1
BITMAP
F8
50
20
ENDCHAR
STARTCHAR char9664
ENCODING 9664
SWIDTH 230 0
DWIDTH 5 0
BBX 4 7 1 -1
BITMAP
10
30
70
F0
70
30
10
ENDCHAR
STARTCHAR char9665
ENCODING 9665
SWIDTH 230 0
DWIDTH 5 0
BBX 4 7 1 -1
BITMAP
10
30
50
90
50
30
10
ENDCHAR
STARTCHAR char9666
ENCODING 9666
SWIDTH 230 0
DWIDTH 5 0
BBX 3 5 1 0
BITMAP
20
60
E0
60
20
ENDCHAR
STARTCHAR char9667
ENCODING 9667
SWIDTH 230 0
DWIDTH 5 0
BBX 3 5 1 0
BITMAP
20
60
A0
60
20
ENDCHAR
STARTCHAR BLACK
ENCODING 9668
SWIDTH 230 0
DWIDTH 5 0
BBX 3 6 1 0
BITMAP
20
60
E0
E0
60
20
ENDCHAR
STARTCHAR WHITE
ENCODING 9669
SWIDTH 230 0
DWIDTH 5 0
BBX 7 5 -1 0
BITMAP
06
3A
C2
3A
06
ENDCHAR
STARTCHAR BLACK
ENCODING 9670
SWIDTH 230 0
DWIDTH 5 0
BBX 5 5 0 1
BITMAP
20
70
F8
70
20
ENDCHAR
STARTCHAR WHITE
ENCODING 9671
SWIDTH 230 0
DWIDTH 5 0
BBX 5 5 0 1
BITMAP
20
50
88
50
20
ENDCHAR
STARTCHAR WHITE
ENCODING 9672
SWIDTH 230 0
DWIDTH 5 0
BBX 5 5 0 1
BITMAP
20
50
A8
50
20
ENDCHAR
STARTCHAR FISHEYE
ENCODING 9673
SWIDTH 230 0
DWIDTH 5 0
BBX 5 5 0 1
BITMAP
70
88
A8
88
70
ENDCHAR
STARTCHAR LOZENGE
ENCODING 9674
SWIDTH 230 0
DWIDTH 5 0
BBX 5 7 0 0
BITMAP
20
50
50
88
50
50
20
ENDCHAR
STARTCHAR WHITE
ENCODING 9675
SWIDTH 230 0
DWIDTH 5 0
BBX 5 5 0 1
BITMAP
70
88
88
88
70
ENDCHAR
STARTCHAR DOTTED
ENCODING 9676
SWIDTH 230 0
DWIDTH 5 0
BBX 5 5 0 1
BITMAP
50
88
00
88
50
ENDCHAR
STARTCHAR CIRCLE
ENCODING 9677
SWIDTH 230 0
DWIDTH 5 0
BBX 5 5 0 1
BITMAP
70
A8
A8
A8
70
ENDCHAR
STARTCHAR BULLSEYE
ENCODING 9678
SWIDTH 230 0
DWIDTH 5 0
BBX 5 5 0 1
BITMAP
70
88
A8
88
70
ENDCHAR
STARTCHAR BLACK
ENCODING 9679
SWIDTH 230 0
DWIDTH 5 0
BBX 5 5 0 1
BITMAP
70
F8
F8
F8
70
ENDCHAR
STARTCHAR CIRCLE
ENCODING 9680
SWIDTH 230 0
DWIDTH 5 0
BBX 4 4 1 2
BITMAP
60
D0
D0
60
ENDCHAR
STARTCHAR CIRCLE
ENCODING 9681
SWIDTH 230 0
DWIDTH 5 0
BBX 4 4 1 2
BITMAP
60
B0
B0
60
ENDCHAR
STARTCHAR CIRCLE
ENCODING 9682
SWIDTH 230 0
DWIDTH 5 0
BBX 4 4 1 2
BITMAP
60
F0
90
60
ENDCHAR
STARTCHAR CIRCLE
ENCODING 9683
SWIDTH 230 0
DWIDTH 5 0
BBX 4 4 1 2
BITMAP
60
90
F0
60
ENDCHAR
STARTCHAR CIRCLE
ENCODING 9684
SWIDTH 230 0
DWIDTH 5 0
BBX 4 4 1 2
BITMAP
60
B0
90
60
ENDCHAR
STARTCHAR CIRCLE
ENCODING 9685
SWIDTH 230 0
DWIDTH 5 0
BBX 4 4 1 2
BITMAP
60
B0
F0
60
ENDCHAR
STARTCHAR LEFT
ENCODING 9686
SWIDTH 230 0
DWIDTH 5 0
BBX 2 4 1 2
BITMAP
40
C0
C0
40
ENDCHAR
STARTCHAR RIGHT
ENCODING 9687
SWIDTH 230 0
DWIDTH 5 0
BBX 2 4 3 2
BITMAP
80
C0
C0
80
ENDCHAR
STARTCHAR INVERSE
ENCODING 9688
SWIDTH 230 0
DWIDTH 5 0
BBX 6 11 0 -2
BITMAP
FC
FC
FC
FC
CC
84
84
CC
FC
FC
FC
ENDCHAR
STARTCHAR INVERSE
ENCODING 9689
SWIDTH 230 0
DWIDTH 5 0
BBX 7 7 -1 0
BITMAP
FE
C6
BA
BA
BA
C6
FE
ENDCHAR
STARTCHAR UPPER
ENCODING 9690
SWIDTH 230 0
DWIDTH 5 0
BBX 7 4 -1 3
BITMAP
FE
C6
BA
BA
ENDCHAR
STARTCHAR LOWER
ENCODING 9691
SWIDTH 230 0
DWIDTH 5 0
BBX 7 4 -1 0
BITMAP
BA
BA
C6
FE
ENDCHAR
STARTCHAR UPPER
ENCODING 9692
SWIDTH 230 0
DWIDTH 5 0
BBX 3 3 0 3
BITMAP
60
80
80
ENDCHAR
STARTCHAR UPPER
ENCODING 9693
SWIDTH 230 0
DWIDTH 5 0
BBX 3 3 2 3
BITMAP
C0
20
20
ENDCHAR
STARTCHAR LOWER
ENCODING 9694
SWIDTH 230 0
DWIDTH 5 0
BBX 3 3 2 1
BITMAP
20
20
C0
ENDCHAR
STARTCHAR LOWER
ENCODING 9695
SWIDTH 230 0
DWIDTH 5 0
BBX 3 3 0 1
BITMAP
80
80
60
ENDCHAR
STARTCHAR UPPER
ENCODING 9696
SWIDTH 230 0
DWIDTH 5 0
BBX 5 3 0 3
BITMAP
70
88
88
ENDCHAR
STARTCHAR LOWER
ENCODING 9697
SWIDTH 230 0
DWIDTH 5 0
BBX 6 3 0 1
BITMAP
84
44
38
ENDCHAR
STARTCHAR BLACK
ENCODING 9698
SWIDTH 230 0
DWIDTH 5 0
BBX 6 6 0 0
BITMAP
04
0C
1C
3C
7C
FC
ENDCHAR
STARTCHAR BLACK
ENCODING 9699
SWIDTH 230 0
DWIDTH 5 0
BBX 6 6 0 0
BITMAP
80
C0
E0
F0
F8
FC
ENDCHAR
STARTCHAR BLACK
ENCODING 9700
SWIDTH 230 0
DWIDTH 5 0
BBX 6 6 0 0
BITMAP
FC
F8
F0
E0
C0
80
ENDCHAR
STARTCHAR BLACK
ENCODING 9701
SWIDTH 230 0
DWIDTH 5 0
BBX 6 6 0 0
BITMAP
FC
7C
3C
1C
0C
04
ENDCHAR
STARTCHAR WHITE
ENCODING 9702
SWIDTH 230 0
DWIDTH 5 0
BBX 5 5 0 1
BITMAP
70
88
88
88
70
ENDCHAR
STARTCHAR SQUARE
ENCODING 9703
SWIDTH 230 0
DWIDTH 5 0
BBX 5 5 0 0
BITMAP
F8
C8
C8
C8
F8
ENDCHAR
STARTCHAR SQUARE
ENCODING 9704
SWIDTH 230 0
DWIDTH 5 0
BBX 5 5 0 0
BITMAP
F8
98
98
98
F8
ENDCHAR
STARTCHAR SQUARE
ENCODING 9705
SWIDTH 230 0
DWIDTH 5 0
BBX 5 5 0 0
BITMAP
F8
E8
C8
88
F8
ENDCHAR
STARTCHAR SQUARE
ENCODING 9706
SWIDTH 230 0
DWIDTH 5 0
BBX 5 5 0 0
BITMAP
F8
88
98
B8
F8
ENDCHAR
STARTCHAR WHITE
ENCODING 9707
SWIDTH 230 0
DWIDTH 5 0
BBX 5 5 0 0
BITMAP
F8
A8
A8
A8
F8
ENDCHAR
STARTCHAR WHITE
ENCODING 9708
SWIDTH 230 0
DWIDTH 5 0
BBX 5 7 0 0
BITMAP
20
20
50
50
A8
88
F8
ENDCHAR
STARTCHAR UP-POINTING
ENCODING 9709
SWIDTH 230 0
DWIDTH 5 0
BBX 5 6 0 0
BITMAP
20
20
70
70
E8
F8
ENDCHAR
STARTCHAR UP-POINTING
ENCODING 9710
SWIDTH 230 0
DWIDTH 5 0
BBX 5 6 0 0
BITMAP
20
20
70
70
B8
F8
ENDCHAR
STARTCHAR LARGE
ENCODING 9711
SWIDTH 230 0
DWIDTH 5 0
BBX 5 5 0 0
BITMAP
70
88
88
88
70
ENDCHAR
STARTCHAR WHITE
ENCODING 9712
SWIDTH 230 0
DWIDTH 5 0
BBX 5 5 0 0
BITMAP
F8
A8
E8
88
F8
ENDCHAR
STARTCHAR WHITE
ENCODING 9713
SWIDTH 230 0
DWIDTH 5 0
BBX 5 5 0 0
BITMAP
F8
88
E8
A8
F8
ENDCHAR
STARTCHAR WHITE
ENCODING 9714
SWIDTH 230 0
DWIDTH 5 0
BBX 5 5 0 0
BITMAP
F8
88
B8
A8
F8
ENDCHAR
STARTCHAR WHITE
ENCODING 9715
SWIDTH 230 0
DWIDTH 5 0
BBX 5 5 0 0
BITMAP
F8
A8
B8
88
F8
ENDCHAR
STARTCHAR WHITE
ENCODING 9716
SWIDTH 230 0
DWIDTH 5 0
BBX 5 5 0 0
BITMAP
70
A8
E8
88
70
ENDCHAR
STARTCHAR WHITE
ENCODING 9717
SWIDTH 230 0
DWIDTH 5 0
BBX 5 5 0 0
BITMAP
70
88
E8
A8
70
ENDCHAR
STARTCHAR WHITE
ENCODING 9718
SWIDTH 230 0
DWIDTH 5 0
BBX 5 5 0 0
BITMAP
70
88
B8
A8
70
ENDCHAR
STARTCHAR WHITE
ENCODING 9719
SWIDTH 230 0
DWIDTH 5 0
BBX 5 5 0 0
BITMAP
70
A8
B8
88
70
ENDCHAR
STARTCHAR UPPER
ENCODING 9720
SWIDTH 230 0
DWIDTH 5 0
BBX 4 4 0 3
BITMAP
F0
A0
C0
80
ENDCHAR
STARTCHAR UPPER
ENCODING 9721
SWIDTH 230 0
DWIDTH 5 0
BBX 4 4 2 3
BITMAP
F0
50
30
10
ENDCHAR
STARTCHAR LOWER
ENCODING 9722
SWIDTH 230 0
DWIDTH 5 0
BBX 4 4 0 0
BITMAP
80
C0
A0
F0
ENDCHAR
STARTCHAR WHITE
ENCODING 9723
SWIDTH 230 0
DWIDTH 5 0
BBX 6 6 0 0
BITMAP
FC
84
84
84
84
FC
ENDCHAR
STARTCHAR BLACK
ENCODING 9724
SWIDTH 230 0
DWIDTH 5 0
BBX 6 6 0 0
BITMAP
FC
FC
FC
FC
FC
FC
ENDCHAR
STARTCHAR WHITE
ENCODING 9725
SWIDTH 230 0
DWIDTH 5 0
BBX 5 5 0 1
BITMAP
F8
88
88
88
F8
ENDCHAR
STARTCHAR BLACK
ENCODING 9726
SWIDTH 230 0
DWIDTH 5 0
BBX 5 5 0 1
BITMAP
F8
F8
F8
F8
F8
ENDCHAR
STARTCHAR LOWER
ENCODING 9727
SWIDTH 230 0
DWIDTH 5 0
BBX 4 4 2 0
BITMAP
10
30
50
F0
ENDCHAR
STARTCHAR char9728
ENCODING 9728
SWIDTH 230 0
DWIDTH 5 0
BBX 5 7 0 -1
BITMAP
20
00
A8
70
A8
00
20
ENDCHAR
STARTCHAR char9729
ENCODING 9729
SWIDTH 230 0
DWIDTH 5 0
BBX 5 3 0 2
BITMAP
50
78
F8
ENDCHAR
STARTCHAR char9730
ENCODING 9730
SWIDTH 230 0
DWIDTH 5 0
BBX 5 5 0 0
BITMAP
70
F8
20
20
40
ENDCHAR
STARTCHAR char9732
ENCODING 9732
SWIDTH 230 0
DWIDTH 5 0
BBX 6 6 0 0
BITMAP
20
48
10
44
A8
40
ENDCHAR
STARTCHAR char9733
ENCODING 9733
SWIDTH 230 0
DWIDTH 5 0
BBX 5 6 0 0
BITMAP
20
20
F8
70
70
88
ENDCHAR
STARTCHAR char9734
ENCODING 9734
SWIDTH 230 0
DWIDTH 5 0
BBX 5 6 0 0
BITMAP
20
20
D8
50
70
88
ENDCHAR
STARTCHAR char9773
ENCODING 9773
SWIDTH 230 0
DWIDTH 5 0
BBX 5 7 0 -1
BITMAP
70
88
28
68
10
68
80
ENDCHAR
STARTCHAR BLACK
ENCODING 9824
SWIDTH 230 0
DWIDTH 5 0
BBX 5 8 0 -1
BITMAP
20
20
70
F8
F8
70
20
70
ENDCHAR
STARTCHAR WHITE
ENCODING 9825
SWIDTH 230 0
DWIDTH 5 0
BBX 5 5 0 0
BITMAP
50
A8
88
50
20
ENDCHAR
STARTCHAR WHITE
ENCODING 9826
SWIDTH 230 0
DWIDTH 5 0
BBX 5 6 0 0
BITMAP
20
50
88
88
50
20
ENDCHAR
STARTCHAR BLACK
ENCODING 9827
SWIDTH 230 0
DWIDTH 5 0
BBX 5 8 0 -1
BITMAP
70
70
20
F8
F8
F8
20
70
ENDCHAR
STARTCHAR WHITE
ENCODING 9828
SWIDTH 230 0
DWIDTH 5 0
BBX 5 8 0 -1
BITMAP
20
20
50
88
88
70
20
70
ENDCHAR
STARTCHAR BLACK
ENCODING 9829
SWIDTH 230 0
DWIDTH 5 0
BBX 7 6 0 0
BITMAP
6C
FE
FE
7C
38
10
ENDCHAR
STARTCHAR BLACK
ENCODING 9830
SWIDTH 230 0
DWIDTH 5 0
BBX 5 9 0 -2
BITMAP
20
20
70
70
F8
70
70
20
20
ENDCHAR
STARTCHAR WHITE
ENCODING 9831
SWIDTH 230 0
DWIDTH 5 0
BBX 5 8 0 -1
BITMAP
70
50
20
F8
A8
F8
20
70
ENDCHAR
STARTCHAR char9833
ENCODING 9833
SWIDTH 230 0
DWIDTH 5 0
BBX 2 6 1 0
BITMAP
40
40
40
40
C0
C0
ENDCHAR
STARTCHAR char9834
ENCODING 9834
SWIDTH 230 0
DWIDTH 5 0
BBX 4 6 1 0
BITMAP
60
50
50
40
C0
C0
ENDCHAR
STARTCHAR char9835
ENCODING 9835
SWIDTH 230 0
DWIDTH 5 0
BBX 6 6 0 0
BITMAP
7C
44
44
44
CC
CC
ENDCHAR
STARTCHAR char9836
ENCODING 9836
SWIDTH 230 0
DWIDTH 5 0
BBX 6 6 0 0
BITMAP
7C
44
7C
44
CC
CC
ENDCHAR
STARTCHAR char9837
ENCODING 9837
SWIDTH 230 0
DWIDTH 5 0
BBX 3 6 0 0
BITMAP
80
80
80
E0
A0
C0
ENDCHAR
STARTCHAR MUSIC
ENCODING 9838
SWIDTH 230 0
DWIDTH 5 0
BBX 4 6 0 0
BITMAP
80
B0
D0
B0
D0
10
ENDCHAR
STARTCHAR char9839
ENCODING 9839
SWIDTH 230 0
DWIDTH 5 0
BBX 5 6 0 0
BITMAP
10
58
D0
58
D0
40
ENDCHAR
STARTCHAR char9992
ENCODING 9992
SWIDTH 230 0
DWIDTH 5 0
BBX 6 5 -1 0
BITMAP
20
90
FC
90
20
ENDCHAR
STARTCHAR char10003
ENCODING 10003
SWIDTH 230 0
DWIDTH 5 0
BBX 5 7 0 -1
BITMAP
08
10
10
A0
A0
40
40
ENDCHAR
STARTCHAR HEAVY
ENCODING 10004
SWIDTH 230 0
DWIDTH 5 0
BBX 6 8 0 -1
BITMAP
04
08
08
D0
50
50
20
20
ENDCHAR
STARTCHAR MULTIPLICATION
ENCODING 10005
SWIDTH 230 0
DWIDTH 5 0
BBX 5 5 0 0
BITMAP
88
50
20
50
88
ENDCHAR
STARTCHAR HEAVY
ENCODING 10006
SWIDTH 230 0
DWIDTH 5 0
BBX 5 5 0 0
BITMAP
D8
50
20
50
D8
ENDCHAR
STARTCHAR BALLOT
ENCODING 10007
SWIDTH 230 0
DWIDTH 5 0
BBX 5 7 0 0
BITMAP
08
48
50
20
50
90
80
ENDCHAR
STARTCHAR HEAVY
ENCODING 10008
SWIDTH 230 0
DWIDTH 5 0
BBX 5 7 0 0
BITMAP
08
58
70
20
70
D0
80
ENDCHAR
STARTCHAR HEAVY
ENCODING 10010
SWIDTH 230 0
DWIDTH 5 0
BBX 6 6 0 0
BITMAP
30
30
FC
FC
30
30
ENDCHAR
STARTCHAR OPEN
ENCODING 10011
SWIDTH 230 0
DWIDTH 5 0
BBX 5 5 0 1
BITMAP
20
20
D8
20
20
ENDCHAR
STARTCHAR HEAVY
ENCODING 10012
SWIDTH 230 0
DWIDTH 5 0
BBX 6 6 0 0
BITMAP
30
30
CC
CC
30
30
ENDCHAR
STARTCHAR LATIN
ENCODING 10013
SWIDTH 230 0
DWIDTH 5 0
BBX 5 6 0 0
BITMAP
20
20
F8
20
20
20
ENDCHAR
STARTCHAR SHADOWED
ENCODING 10014
SWIDTH 230 0
DWIDTH 5 0
BBX 6 7 0 0
BITMAP
30
30
FC
FC
30
30
30
ENDCHAR
STARTCHAR CIRCLED
ENCODING 10026
SWIDTH 230 0
DWIDTH 5 0
BBX 7 8 -1 -1
BITMAP
7C
EE
EE
82
C6
BA
FE
7C
ENDCHAR
STARTCHAR OPEN
ENCODING 10027
SWIDTH 230 0
DWIDTH 5 0
BBX 5 5 0 2
BITMAP
20
20
D8
70
88
ENDCHAR
STARTCHAR EIGHT
ENCODING 10035
SWIDTH 230 0
DWIDTH 5 0
BBX 5 7 0 -1
BITMAP
20
A8
70
F8
70
A8
20
ENDCHAR
STARTCHAR SIX
ENCODING 10038
SWIDTH 230 0
DWIDTH 5 0
BBX 5 6 0 0
BITMAP
20
A8
70
70
A8
20
ENDCHAR
STARTCHAR LOWER
ENCODING 10063
SWIDTH 230 0
DWIDTH 5 0
BBX 6 6 0 1
BITMAP
F8
8C
8C
8C
FC
7C
ENDCHAR
STARTCHAR UPPER
ENCODING 10064
SWIDTH 230 0
DWIDTH 5 0
BBX 6 6 0 1
BITMAP
7C
FC
8C
8C
8C
F8
ENDCHAR
STARTCHAR LOWER
ENCODING 10065
SWIDTH 230 0
DWIDTH 5 0
BBX 6 6 0 1
BITMAP
F8
8C
8C
8C
FC
7C
ENDCHAR
STARTCHAR UPPER
ENCODING 10066
SWIDTH 230 0
DWIDTH 5 0
BBX 6 6 0 1
BITMAP
7C
FC
8C
8C
8C
F8
ENDCHAR
STARTCHAR char10075
ENCODING 10075
SWIDTH 230 0
DWIDTH 5 0
BBX 2 4 2 3
BITMAP
40
80
C0
C0
ENDCHAR
STARTCHAR char10076
ENCODING 10076
SWIDTH 230 0
DWIDTH 5 0
BBX 2 4 2 3
BITMAP
C0
C0
40
80
ENDCHAR
STARTCHAR char10077
ENCODING 10077
SWIDTH 230 0
DWIDTH 5 0
BBX 5 4 1 3
BITMAP
48
90
D8
D8
ENDCHAR
STARTCHAR char10078
ENCODING 10078
SWIDTH 230 0
DWIDTH 5 0
BBX 5 4 1 3
BITMAP
D8
D8
48
90
ENDCHAR
STARTCHAR HEAVY
ENCODING 10080
SWIDTH 230 0
DWIDTH 5 0
BBX 5 4 0 -2
BITMAP
D8
D8
48
90
ENDCHAR
STARTCHAR HEAVY
ENCODING 10084
SWIDTH 230 0
DWIDTH 5 0
BBX 7 6 0 0
BITMAP
6C
FE
FE
7C
38
10
ENDCHAR
STARTCHAR MEDIUM
ENCODING 10092
SWIDTH 230 0
DWIDTH 5 0
BBX 5 7 0 0
BITMAP
18
30
60
C0
60
30
18
ENDCHAR
STARTCHAR MEDIUM
ENCODING 10093
SWIDTH 230 0
DWIDTH 5 0
BBX 5 7 0 0
BITMAP
C0
60
30
18
30
60
C0
ENDCHAR
STARTCHAR HEAVY
ENCODING 10094
SWIDTH 230 0
DWIDTH 5 0
BBX 6 8 0 -1
BITMAP
1C
38
70
E0
E0
70
38
1C
ENDCHAR
STARTCHAR HEAVY
ENCODING 10095
SWIDTH 230 0
DWIDTH 5 0
BBX 6 8 0 -1
BITMAP
E0
70
38
1C
1C
38
70
E0
ENDCHAR
STARTCHAR HEAVY
ENCODING 10096
SWIDTH 230 0
DWIDTH 5 0
BBX 6 8 0 -1
BITMAP
3C
78
F0
E0
E0
F0
78
3C
ENDCHAR
STARTCHAR HEAVY
ENCODING 10097
SWIDTH 230 0
DWIDTH 5 0
BBX 6 8 0 -1
BITMAP
F0
78
3C
1C
1C
3C
78
F0
ENDCHAR
STARTCHAR HEAVY
ENCODING 10102
SWIDTH 230 0
DWIDTH 5 0
BBX 6 8 0 -1
BITMAP
F0
78
3C
1C
1C
3C
78
F0
ENDCHAR
STARTCHAR DINGBAT
ENCODING 10122
SWIDTH 230 0
DWIDTH 5 0
BBX 6 8 0 -1
BITMAP
78
CC
EC
EC
EC
EC
C4
78
ENDCHAR
STARTCHAR DINGBAT
ENCODING 10123
SWIDTH 230 0
DWIDTH 5 0
BBX 6 8 0 -1
BITMAP
78
CC
B4
F4
EC
DC
84
78
ENDCHAR
STARTCHAR DINGBAT
ENCODING 10124
SWIDTH 230 0
DWIDTH 5 0
BBX 6 8 0 -1
BITMAP
78
8C
F4
CC
F4
F4
8C
78
ENDCHAR
STARTCHAR DINGBAT
ENCODING 10125
SWIDTH 230 0
DWIDTH 5 0
BBX 6 8 0 -1
BITMAP
78
E4
D4
B4
84
F4
F4
78
ENDCHAR
STARTCHAR DINGBAT
ENCODING 10126
SWIDTH 230 0
DWIDTH 5 0
BBX 6 8 0 -1
BITMAP
78
84
BC
8C
F4
F4
8C
78
ENDCHAR
STARTCHAR DINGBAT
ENCODING 10127
SWIDTH 230 0
DWIDTH 5 0
BBX 6 8 0 -1
BITMAP
78
CC
BC
8C
B4
B4
CC
78
ENDCHAR
STARTCHAR DINGBAT
ENCODING 10128
SWIDTH 230 0
DWIDTH 5 0
BBX 6 8 0 -1
BITMAP
78
84
F4
EC
EC
DC
DC
78
ENDCHAR
STARTCHAR DINGBAT
ENCODING 10129
SWIDTH 230 0
DWIDTH 5 0
BBX 6 8 0 -1
BITMAP
78
CC
B4
CC
B4
B4
CC
78
ENDCHAR
STARTCHAR DINGBAT
ENCODING 10130
SWIDTH 230 0
DWIDTH 5 0
BBX 6 8 0 -1
BITMAP
78
CC
B4
B4
C4
F4
CC
78
ENDCHAR
STARTCHAR DINGBAT
ENCODING 10131
SWIDTH 230 0
DWIDTH 5 0
BBX 7 8 0 -1
BITMAP
7C
B6
AA
AA
AA
AA
B6
7C
ENDCHAR
STARTCHAR HEAVY
ENCODING 10132
SWIDTH 230 0
DWIDTH 5 0
BBX 5 5 0 0
BITMAP
20
10
F8
10
20
ENDCHAR
STARTCHAR HEAVY
ENCODING 10133
SWIDTH 230 0
DWIDTH 5 0
BBX 6 6 0 0
BITMAP
30
30
FC
FC
30
30
ENDCHAR
STARTCHAR HEAVY
ENCODING 10134
SWIDTH 230 0
DWIDTH 5 0
BBX 6 2 0 2
BITMAP
FC
FC
ENDCHAR
STARTCHAR HEAVY
ENCODING 10135
SWIDTH 230 0
DWIDTH 5 0
BBX 6 6 0 0
BITMAP
30
00
FC
FC
00
30
ENDCHAR
STARTCHAR HEAVY
ENCODING 10136
SWIDTH 230 0
DWIDTH 5 0
BBX 5 5 0 0
BITMAP
80
40
28
18
38
ENDCHAR
STARTCHAR HEAVY
ENCODING 10137
SWIDTH 230 0
DWIDTH 5 0
BBX 5 3 0 1
BITMAP
10
F8
10
ENDCHAR
STARTCHAR HEAVY
ENCODING 10138
SWIDTH 230 0
DWIDTH 5 0
BBX 5 5 0 0
BITMAP
38
18
28
40
80
ENDCHAR
STARTCHAR DRAFTING
ENCODING 10139
SWIDTH 230 0
DWIDTH 5 0
BBX 8 5 -2 0
BITMAP
10
0C
FF
0C
10
ENDCHAR
STARTCHAR char11104
ENCODING 11104
SWIDTH 230 0
DWIDTH 5 0
BBX 5 8 1 -1
BITMAP
90
B8
90
90
E0
80
80
80
ENDCHAR
STARTCHAR char11105
ENCODING 11105
SWIDTH 230 0
DWIDTH 5 0
BBX 4 9 1 -1
BITMAP
80
80
80
F0
00
90
D0
B0
90
ENDCHAR
STARTCHAR char11106
ENCODING 11106
SWIDTH 230 0
DWIDTH 5 0
BBX 5 8 1 -1
BITMAP
78
80
98
98
80
98
88
C0
ENDCHAR
STARTCHAR char11107
ENCODING 11107
SWIDTH 230 0
DWIDTH 5 0
BBX 6 8 0 -1
BITMAP
F8
04
98
90
90
90
90
60
ENDCHAR
STARTCHAR char11108
ENCODING 11108
SWIDTH 230 0
DWIDTH 5 0
BBX 6 9 0 -1
BITMAP
30
48
48
48
FC
CC
CC
FC
78
ENDCHAR
STARTCHAR char11136
ENCODING 11136
SWIDTH 230 0
DWIDTH 5 0
BBX 5 9 0 -1
BITMAP
80
C0
E0
F0
F8
F0
E0
C0
80
ENDCHAR
STARTCHAR char11137
ENCODING 11137
SWIDTH 230 0
DWIDTH 5 0
BBX 5 9 0 -1
BITMAP
80
40
20
10
08
10
20
40
80
ENDCHAR
STARTCHAR char11138
ENCODING 11138
SWIDTH 230 0
DWIDTH 5 0
BBX 5 9 0 -1
BITMAP
08
18
38
78
F8
78
38
18
08
ENDCHAR
STARTCHAR char11139
ENCODING 11139
SWIDTH 230 0
DWIDTH 5 0
BBX 5 9 1 -1
BITMAP
08
10
20
40
80
40
20
10
08
ENDCHAR
STARTCHAR char11148
ENCODING 11148
SWIDTH 230 0
DWIDTH 5 0
BBX 5 6 0 0
BITMAP
50
50
F8
70
20
20
ENDCHAR
STARTCHAR char11149
ENCODING 11149
SWIDTH 230 0
DWIDTH 5 0
BBX 5 7 0 0
BITMAP
20
F8
D8
D8
F8
D8
F8
ENDCHAR
STARTCHAR bat
ENCODING 11150
SWIDTH 230 0
DWIDTH 5 0
BBX 5 7 0 0
BITMAP
20
F8
A8
88
D8
D8
F8
ENDCHAR
STARTCHAR bat
ENCODING 11151
SWIDTH 230 0
DWIDTH 5 0
BBX 5 7 0 0
BITMAP
20
F8
88
A8
A8
88
F8
ENDCHAR
STARTCHAR bat
ENCODING 11152
SWIDTH 230 0
DWIDTH 5 0
BBX 5 7 0 0
BITMAP
20
F8
88
88
88
88
F8
ENDCHAR
STARTCHAR bat
ENCODING 11153
SWIDTH 230 0
DWIDTH 5 0
BBX 5 7 0 0
BITMAP
20
F8
88
88
A8
88
F8
ENDCHAR
STARTCHAR bat
ENCODING 11154
SWIDTH 230 0
DWIDTH 5 0
BBX 5 7 0 0
BITMAP
20
F8
E8
98
C8
B8
F8
ENDCHAR
STARTCHAR play
ENCODING 11155
SWIDTH 230 0
DWIDTH 5 0
BBX 3 6 1 0
BITMAP
80
C0
E0
E0
C0
80
ENDCHAR
STARTCHAR pause
ENCODING 11156
SWIDTH 230 0
DWIDTH 5 0
BBX 5 6 0 0
BITMAP
D8
D8
D8
D8
D8
D8
ENDCHAR
STARTCHAR music
ENCODING 11157
SWIDTH 230 0
DWIDTH 5 0
BBX 6 6 0 0
BITMAP
7C
44
44
44
CC
CC
ENDCHAR
STARTCHAR clock
ENCODING 11158
SWIDTH 230 0
DWIDTH 5 0
BBX 6 6 0 0
BITMAP
78
DC
DC
C4
FC
78
ENDCHAR
STARTCHAR arch
ENCODING 11159
SWIDTH 230 0
DWIDTH 5 0
BBX 5 7 0 0
BITMAP
20
20
70
70
50
D8
88
ENDCHAR
STARTCHAR tiled
ENCODING 11160
SWIDTH 230 0
DWIDTH 5 0
BBX 6 6 0 0
BITMAP
EC
EC
EC
E0
EC
EC
ENDCHAR
STARTCHAR tiled
ENCODING 11161
SWIDTH 230 0
DWIDTH 5 0
BBX 6 6 0 0
BITMAP
DC
DC
DC
1C
DC
DC
ENDCHAR
STARTCHAR tiled
ENCODING 11162
SWIDTH 230 0
DWIDTH 5 0
BBX 6 6 0 0
BITMAP
FC
FC
FC
00
EC
EC
ENDCHAR
STARTCHAR float
ENCODING 11163
SWIDTH 230 0
DWIDTH 5 0
BBX 6 6 0 0
BITMAP
F0
F0
F4
F4
04
3C
ENDCHAR
STARTCHAR headphones
ENCODING 11164
SWIDTH 230 0
DWIDTH 5 0
BBX 5 6 0 0
BITMAP
70
88
88
88
D8
50
ENDCHAR
STARTCHAR muted,
ENCODING 11165
SWIDTH 230 0
DWIDTH 5 0
BBX 4 6 0 0
BITMAP
10
30
F0
F0
30
10
ENDCHAR
STARTCHAR loud
ENCODING 11166
SWIDTH 230 0
DWIDTH 5 0
BBX 6 6 0 0
BITMAP
10
30
F4
F4
30
10
ENDCHAR
STARTCHAR soft
ENCODING 11167
SWIDTH 230 0
DWIDTH 5 0
BBX 7 6 0 0
BITMAP
12
34
F2
F2
34
12
ENDCHAR
STARTCHAR heart
ENCODING 11168
SWIDTH 230 0
DWIDTH 5 0
BBX 6 6 0 0
BITMAP
48
38
D8
E8
14
08
ENDCHAR
STARTCHAR cpu
ENCODING 11169
SWIDTH 230 0
DWIDTH 5 0
BBX 5 6 0 0
BITMAP
A8
00
F8
F8
00
A8
ENDCHAR
STARTCHAR pacman
ENCODING 11170
SWIDTH 230 0
DWIDTH 5 0
BBX 5 5 0 0
BITMAP
70
D8
F0
C0
70
ENDCHAR
STARTCHAR mail
ENCODING 11171
SWIDTH 230 0
DWIDTH 5 0
BBX 5 5 0 0
BITMAP
F8
70
A8
D8
F8
ENDCHAR
STARTCHAR data
ENCODING 11172
SWIDTH 230 0
DWIDTH 5 0
BBX 6 6 0 0
BITMAP
FC
84
84
BC
AC
7C
ENDCHAR
STARTCHAR simon
ENCODING 11173
SWIDTH 230 0
DWIDTH 5 0
BBX 7 7 -1 -1
BITMAP
64
BA
7E
6C
FC
BA
4C
ENDCHAR
STARTCHAR core
ENCODING 11174
SWIDTH 230 0
DWIDTH 5 0
BBX 7 7 0 -1
BITMAP
D6
82
38
BA
38
82
D6
ENDCHAR
STARTCHAR grid
ENCODING 11175
SWIDTH 230 0
DWIDTH 5 0
BBX 5 5 0 0
BITMAP
D8
D8
00
D8
D8
ENDCHAR
STARTCHAR daze
ENCODING 11176
SWIDTH 230 0
DWIDTH 5 0
BBX 6 6 0 0
BITMAP
EC
E0
EC
E0
EC
EC
ENDCHAR
STARTCHAR term
ENCODING 11177
SWIDTH 230 0
DWIDTH 5 0
BBX 6 6 0 0
BITMAP
FC
BC
DC
A4
FC
FC
ENDCHAR
STARTCHAR lock
ENCODING 11178
SWIDTH 230 0
DWIDTH 5 0
BBX 5 7 0 -1
BITMAP
70
50
50
F8
D8
F8
70
ENDCHAR
STARTCHAR ichi
ENCODING 11179
SWIDTH 230 0
DWIDTH 5 0
BBX 4 1 0 3
BITMAP
F0
ENDCHAR
STARTCHAR ni
ENCODING 11180
SWIDTH 230 0
DWIDTH 5 0
BBX 4 3 0 2
BITMAP
F0
00
F0
ENDCHAR
STARTCHAR san
ENCODING 11181
SWIDTH 230 0
DWIDTH 5 0
BBX 5 5 0 1
BITMAP
F8
00
70
00
F8
ENDCHAR
STARTCHAR yon
ENCODING 11182
SWIDTH 230 0
DWIDTH 5 0
BBX 5 5 0 1
BITMAP
F8
A8
F8
88
F8
ENDCHAR
STARTCHAR go
ENCODING 11183
SWIDTH 230 0
DWIDTH 5 0
BBX 5 5 0 1
BITMAP
F0
40
70
50
F8
ENDCHAR
STARTCHAR cpu
ENCODING 11184
SWIDTH 230 0
DWIDTH 5 0
BBX 7 7 0 -1
BITMAP
54
FE
64
D6
4C
FE
54
ENDCHAR
STARTCHAR squiglies
ENCODING 11185
SWIDTH 230 0
DWIDTH 5 0
BBX 4 5 1 0
BITMAP
50
A0
00
50
A0
ENDCHAR
STARTCHAR next
ENCODING 11186
SWIDTH 230 0
DWIDTH 5 0
BBX 5 6 1 0
BITMAP
88
C8
E8
E8
C8
88
ENDCHAR
STARTCHAR prev
ENCODING 11187
SWIDTH 230 0
DWIDTH 5 0
BBX 5 6 1 0
BITMAP
88
98
B8
B8
98
88
ENDCHAR
STARTCHAR up
ENCODING 11188
SWIDTH 230 0
DWIDTH 5 0
BBX 7 8 0 -1
BITMAP
10
38
7C
FE
38
38
38
70
ENDCHAR
STARTCHAR down
ENCODING 11189
SWIDTH 230 0
DWIDTH 5 0
BBX 7 8 0 -1
BITMAP
1C
38
38
38
FE
7C
38
10
ENDCHAR
STARTCHAR bar
ENCODING 11190
SWIDTH 230 0
DWIDTH 5 0
BBX 5 1 1 2
BITMAP
F8
ENDCHAR
STARTCHAR good
ENCODING 11191
SWIDTH 230 0
DWIDTH 5 0
BBX 5 6 0 0
BITMAP
08
08
28
28
A8
A8
ENDCHAR
STARTCHAR okay
ENCODING 11192
SWIDTH 230 0
DWIDTH 5 0
BBX 5 4 0 0
BITMAP
20
20
A0
A8
ENDCHAR
STARTCHAR shit
ENCODING 11193
SWIDTH 230 0
DWIDTH 5 0
BBX 5 2 0 0
BITMAP
80
A8
ENDCHAR
STARTCHAR temp
ENCODING 11194
SWIDTH 230 0
DWIDTH 5 0
BBX 7 8 0 -1
BITMAP
10
06
4E
14
68
90
90
60
ENDCHAR
STARTCHAR pen
ENCODING 11195
SWIDTH 230 0
DWIDTH 5 0
BBX 7 7 0 -1
BITMAP
06
1E
3C
3C
78
A0
C0
ENDCHAR
STARTCHAR globe
ENCODING 11196
SWIDTH 230 0
DWIDTH 5 0
BBX 6 6 0 0
BITMAP
78
AC
E4
AC
C4
78
ENDCHAR
STARTCHAR some
ENCODING 11197
SWIDTH 230 0
DWIDTH 5 0
BBX 6 5 0 0
BITMAP
B4
30
B4
30
B4
ENDCHAR
STARTCHAR w_cloud
ENCODING 11198
SWIDTH 230 0
DWIDTH 5 0
BBX 7 5 0 1
BITMAP
38
7C
FE
FE
6C
ENDCHAR
STARTCHAR w_lightning
ENCODING 11199
SWIDTH 230 0
DWIDTH 5 0
BBX 7 8 0 -2
BITMAP
38
7C
FE
FE
6C
10
30
20
ENDCHAR
STARTCHAR w_rain
ENCODING 11200
SWIDTH 230 0
DWIDTH 5 0
BBX 7 8 0 -2
BITMAP
38
7C
FE
FE
6C
00
54
A8
ENDCHAR
STARTCHAR w_snow
ENCODING 11201
SWIDTH 230 0
DWIDTH 5 0
BBX 7 9 0 -3
BITMAP
38
7C
FE
FE
6C
00
90
28
12
ENDCHAR
STARTCHAR w_hail
ENCODING 11202
SWIDTH 230 0
DWIDTH 5 0
BBX 7 9 0 -3
BITMAP
38
7C
FE
FE
6C
10
44
10
44
ENDCHAR
STARTCHAR w_morerainidunno
ENCODING 11203
SWIDTH 230 0
DWIDTH 5 0
BBX 7 8 0 -2
BITMAP
38
7C
FE
FE
6C
00
44
10
ENDCHAR
STARTCHAR w_partly
ENCODING 11204
SWIDTH 230 0
DWIDTH 5 0
BBX 8 7 0 1
BITMAP
0A
2C
73
E2
F3
FC
5A
ENDCHAR
STARTCHAR w_partlymoon
ENCODING 11205
SWIDTH 230 0
DWIDTH 5 0
BBX 8 8 0 1
BITMAP
08
10
10
59
EE
F0
FC
58
ENDCHAR
STARTCHAR w_moon
ENCODING 11206
SWIDTH 230 0
DWIDTH 5 0
BBX 5 5 0 0
BITMAP
40
80
80
C8
70
ENDCHAR
STARTCHAR w_sun
ENCODING 11207
SWIDTH 230 0
DWIDTH 5 0
BBX 7 7 0 0
BITMAP
92
7C
44
C6
44
7C
92
ENDCHAR
STARTCHAR w_wind
ENCODING 11208
SWIDTH 230 0
DWIDTH 5 0
BBX 8 7 0 -1
BITMAP
18
F8
03
FF
00
FC
0C
ENDCHAR
STARTCHAR char11209
ENCODING 11209
SWIDTH 230 0
DWIDTH 5 0
BBX 6 7 0 0
BITMAP
FC
A4
FC
AC
D4
EC
FC
ENDCHAR
STARTCHAR clock,hour
ENCODING 11210
SWIDTH 230 0
DWIDTH 5 0
BBX 6 6 0 0
BITMAP
78
DC
DC
DC
FC
78
ENDCHAR
STARTCHAR clock,halfhour
ENCODING 11211
SWIDTH 230 0
DWIDTH 5 0
BBX 6 6 0 0
BITMAP
78
DC
DC
EC
EC
78
ENDCHAR
STARTCHAR clock,15til
ENCODING 11212
SWIDTH 230 0
DWIDTH 5 0
BBX 6 6 0 0
BITMAP
78
DC
DC
9C
FC
78
ENDCHAR
STARTCHAR char11213
ENCODING 11213
SWIDTH 230 0
DWIDTH 5 0
BBX 7 7 -1 0
BITMAP
44
FE
FE
82
AA
82
FE
ENDCHAR
STARTCHAR char11214
ENCODING 11214
SWIDTH 230 0
DWIDTH 5 0
BBX 7 7 -1 0
BITMAP
C6
6C
EE
00
6C
EE
AA
ENDCHAR
STARTCHAR char11215
ENCODING 11215
SWIDTH 230 0
DWIDTH 5 0
BBX 7 7 -1 0
BITMAP
1E
0E
1E
BA
F0
E0
F0
ENDCHAR
STARTCHAR char11216
ENCODING 11216
SWIDTH 230 0
DWIDTH 5 0
BBX 8 7 0 0
BITMAP
3C
42
99
99
99
42
3C
ENDCHAR
STARTCHAR char11217
ENCODING 11217
SWIDTH 230 0
DWIDTH 5 0
BBX 7 7 0 -1
BITMAP
3C
7E
7E
7E
3C
60
C0
ENDCHAR
STARTCHAR char11218
ENCODING 11218
SWIDTH 230 0
DWIDTH 5 0
BBX 7 7 -1 0
BITMAP
0A
0C
0E
00
E0
60
A0
ENDCHAR
STARTCHAR char8212
ENCODING 11834
SWIDTH 230 0
DWIDTH 5 0
BBX 5 1 1 3
BITMAP
F8
ENDCHAR
STARTCHAR char38521
ENCODING 38521
SWIDTH 230 0
DWIDTH 5 0
BBX 4 4 2 0
BITMAP
60
F0
F0
60
ENDCHAR
STARTCHAR uniE0A0
ENCODING 57504
SWIDTH 416 0
DWIDTH 5 0
BBX 5 11 0 -1
BITMAP
20
70
F8
20
28
28
28
28
30
20
20
ENDCHAR
STARTCHAR uniE0A1
ENCODING 57505
SWIDTH 416 0
DWIDTH 5 0
BBX 4 9 1 0
BITMAP
80
80
80
F0
00
90
D0
B0
90
ENDCHAR
STARTCHAR uniE0A2
ENCODING 57506
SWIDTH 416 0
DWIDTH 5 0
BBX 5 8 0 0
BITMAP
20
50
50
F8
D8
D8
F8
70
ENDCHAR
STARTCHAR uniE0A3
ENCODING 57507
SWIDTH 416 0
DWIDTH 5 0
BBX 4 9 1 0
BITMAP
60
90
80
F0
00
90
D0
B0
90
ENDCHAR
STARTCHAR uniE0B0
ENCODING 57520
SWIDTH 416 0
DWIDTH 5 0
BBX 4 8 0 0
BITMAP
80
C0
E0
F0
F0
E0
C0
80
ENDCHAR
STARTCHAR uniE0B1
ENCODING 57521
SWIDTH 416 0
DWIDTH 5 0
BBX 5 12 0 -2
BITMAP
80
80
40
20
10
08
08
10
20
40
80
80
ENDCHAR
STARTCHAR uniE0B2
ENCODING 57522
SWIDTH 416 0
DWIDTH 5 0
BBX 4 8 1 0
BITMAP
10
30
70
F0
F0
70
30
10
ENDCHAR
STARTCHAR uniE0B3
ENCODING 57523
SWIDTH 416 0
DWIDTH 5 0
BBX 5 12 0 -2
BITMAP
08
08
10
20
40
80
80
40
20
10
08
08
ENDCHAR
STARTCHAR uniE1F1
ENCODING 57841
SWIDTH 416 0
DWIDTH 5 0
BBX 5 7 0 0
BITMAP
F8
00
F8
00
F8
00
F8
ENDCHAR
STARTCHAR uniE1F2
ENCODING 57842
SWIDTH 416 0
DWIDTH 5 0
BBX 5 7 0 0
BITMAP
B8
00
B8
00
B8
00
B8
ENDCHAR
STARTCHAR uniE1F3
ENCODING 57843
SWIDTH 416 0
DWIDTH 5 0
BBX 5 7 0 0
BITMAP
F0
00
F8
00
F0
00
F8
ENDCHAR
STARTCHAR uniE1F4
ENCODING 57844
SWIDTH 416 0
DWIDTH 5 0
BBX 5 7 0 0
BITMAP
78
00
F8
00
78
00
F8
ENDCHAR
STARTCHAR FULLWIDTH
ENCODING 65374
SWIDTH 230 0
DWIDTH 5 0
BBX 9 2 -2 3
BITMAP
7080
8F00
ENDCHAR
STARTCHAR HALFWIDTH
ENCODING 65378
SWIDTH 230 0
DWIDTH 5 0
BBX 3 6 0 1
BITMAP
E0
80
80
80
80
80
ENDCHAR
STARTCHAR HALFWIDTH
ENCODING 65379
SWIDTH 230 0
DWIDTH 5 0
BBX 3 6 1 -1
BITMAP
20
20
20
20
20
E0
ENDCHAR
ENDFONT
